<?xml version="1.0" encoding="UTF-8" standalone="no"?>
<svg
   xmlns:dc="http://purl.org/dc/elements/1.1/"
   xmlns:cc="http://creativecommons.org/ns#"
   xmlns:rdf="http://www.w3.org/1999/02/22-rdf-syntax-ns#"
   xmlns:svg="http://www.w3.org/2000/svg"
   xmlns="http://www.w3.org/2000/svg"
   xml:space="preserve"
   version="1.1"
   y="0"
   x="0"
   width="0.65000004in"
   gorn="0"
   id="Layer_1"
   enable-background="new 0 0 72 46.8"
   viewBox="0 0 46.800004 59.227496"
   height="0.82260412in"><desc
     id="desc3"><referenceFile>CP2102_breakout_pcb-presne.svg</referenceFile></desc><metadata
     id="metadata3799"><rdf:RDF><cc:Work
         rdf:about=""><dc:format>image/svg+xml</dc:format><dc:type
           rdf:resource="http://purl.org/dc/dcmitype/StillImage" /><dc:title></dc:title></cc:Work></rdf:RDF></metadata><defs
     id="defs3797" /><path
     style="fill:#ffffff;stroke-width:0.99986893"
     d="m 45.714805,57.7875 -44.2748051,0 0,-57.7875 44.2748051,0 z m -5.477823,-3.598558 c 0,0.80391 0.65193,1.45585 1.455841,1.45585 0.803845,0 1.455765,-0.65194 1.455765,-1.45585 0,-0.803864 -0.65192,-1.455776 -1.455765,-1.455776 -0.803911,0 -1.455841,0.651912 -1.455841,1.455776 z m -7.199088,0 c 0,0.80391 0.651922,1.45585 1.455846,1.45585 0.80391,0 1.455807,-0.65194 1.455807,-1.45585 0,-0.803864 -0.651897,-1.455776 -1.455807,-1.455776 -0.803924,0 -1.455846,0.651912 -1.455846,1.455776 z m -7.198058,0 c 0,0.80391 0.651902,1.45585 1.455819,1.45585 0.803914,0 1.455839,-0.65194 1.455839,-1.45585 0,-0.803864 -0.651925,-1.455776 -1.455839,-1.455776 -0.803917,0 -1.455819,0.651912 -1.455819,1.455776 z m -7.200072,0 c 0,0.80391 0.651925,1.45585 1.455842,1.45585 0.803859,0 1.455784,-0.65194 1.455784,-1.45585 0,-0.803864 -0.651925,-1.455776 -1.455784,-1.455776 -0.803917,0 -1.455842,0.651912 -1.455842,1.455776 z m -7.198068,0 c 0,0.80391 0.651917,1.45585 1.455835,1.45585 0.80386,0 1.45579,-0.65194 1.45579,-1.45585 0,-0.803864 -0.65193,-1.455776 -1.45579,-1.455776 -0.803918,0 -1.455835,0.651912 -1.455835,1.455776 z m -7.1991161,0 c 0,0.80391 0.65213,1.45585 1.455824,1.45585 0.803963,0 1.455873,-0.65194 1.455873,-1.45585 0,-0.803864 -0.65191,-1.455776 -1.455873,-1.455776 -0.803694,0 -1.455824,0.651912 -1.455824,1.455776 z"
     gorn="0.3.0.0.0.0.0.0.0.0.0.0"
     id="path3681" /><g
     transform="translate(1.4399999,0)"
     id="copper1"><g
       style="display:inline"
       gorn="0.3.0.0.0.0.0.0.0.0.0.1.0.0.0.0.0.0.0.0.0"
       id="copper0"
       transform="matrix(0.99986932,0,0,0.99986932,-20.93837,10.993563)"><circle
         style="fill:none;stroke:#f5bd18;stroke-width:1.22399998;stroke-opacity:1"
         cx="61.199001"
         cy="43.201"
         r="2.052"
         gorn="0.3.0.0.0.0.0.0.0.0.0.1.0.0.0.0.0.0.0.0.0.0"
         id="connector11pad" /><circle
         style="fill:none;stroke:#f5bd18;stroke-width:1.22399998;stroke-opacity:1"
         cx="53.999001"
         cy="43.201"
         r="2.052"
         gorn="0.3.0.0.0.0.0.0.0.0.0.1.0.0.0.0.0.0.0.0.0.1"
         id="connector10pad" /><circle
         style="fill:none;stroke:#f5bd18;stroke-width:1.22399998;stroke-opacity:1"
         cx="46.799999"
         cy="43.201"
         r="2.052"
         gorn="0.3.0.0.0.0.0.0.0.0.0.1.0.0.0.0.0.0.0.0.0.2"
         id="connector9pad" /><circle
         style="fill:none;stroke:#f5bd18;stroke-width:1.22399998;stroke-opacity:1"
         cx="39.598999"
         cy="43.201"
         r="2.052"
         gorn="0.3.0.0.0.0.0.0.0.0.0.1.0.0.0.0.0.0.0.0.0.3"
         id="connector8pad" /><circle
         style="fill:none;stroke:#f5bd18;stroke-width:1.22399998;stroke-opacity:1"
         cx="32.400002"
         cy="43.201"
         r="2.052"
         gorn="0.3.0.0.0.0.0.0.0.0.0.1.0.0.0.0.0.0.0.0.0.4"
         id="connector7pad" /><circle
         style="fill:none;stroke:#f5bd18;stroke-width:1.22399998;stroke-opacity:1"
         cx="25.200001"
         cy="43.201"
         r="2.052"
         gorn="0.3.0.0.0.0.0.0.0.0.0.1.0.0.0.0.0.0.0.0.0.5"
         id="connector6pad" /></g></g><g
     transform="translate(1.4399999,0)"
     id="silkscreen"><rect
       style="fill:none;stroke:#000000;stroke-width:1"
       id="rect3711"
       width="45.800003"
       height="57.535999"
       x="-0.93999988"
       y="1.191498" /></g></svg>
