<?xml version='1.0' encoding='UTF-8' standalone='no'?>
<svg
  xmlns:dc="http://purl.org/dc/elements/1.1/"
  xmlns:cc="http://creativecommons.org/ns#"
  xmlns:rdf="http://www.w3.org/1999/02/22-rdf-syntax-ns#"
  xmlns:svg="http://www.w3.org/2000/svg"
  xmlns="http://www.w3.org/2000/svg"
  xmlns:xlink="http://www.w3.org/1999/xlink"
  width="1.9685in"
  height="0.98425198in"
  viewBox="0 0 1968.5007 984.25229"
  version="1.1"
  id="svg2320">
  <metadata
    id="metadata394">
    <rdf:RDF>
      <cc:Work
        rdf:about="">
        <dc:format>image/svg+xml</dc:format>
        <dc:type
          rdf:resource="http://purl.org/dc/dcmitype/StillImage"
        />
        <dc:title/>
      </cc:Work>
    </rdf:RDF>
  </metadata>
  <defs
    id="defs2318">
  </defs>
  <g
    id="breadboard">
    <path
      d="M 1968.5006,0 H 0 V 984.2503 H 1968.5006 Z M 84.643978,844.55055 c 29.305562,0 53.092152,23.78659 53.092152,53.09215 0,29.30556 -23.78659,53.09216 -53.092152,53.09216 -29.290683,0 -53.077278,-23.7866 -53.077278,-53.09216 0,-29.30556 23.786595,-53.09215 53.077278,-53.09215 z m 1793.306922,0 c 29.3056,0 53.0922,23.78659 53.0922,53.09215 0,29.30556 -23.7866,53.09216 -53.0922,53.09216 -29.3056,0 -53.0922,-23.7866 -53.0922,-53.09216 0,-29.30556 23.7866,-53.09215 53.0922,-53.09215 z M 84.643978,35.493943 c 29.305562,0 53.092152,23.786594 53.092152,53.092154 0,29.305553 -23.78659,53.092153 -53.092152,53.092153 -29.290683,0 -53.077278,-23.7866 -53.077278,-53.092153 0,-29.30556 23.786595,-53.092154 53.077278,-53.092154 z m 1793.306922,0 c 29.3056,0 53.0922,23.786594 53.0922,53.092154 0,29.305553 -23.7866,53.092153 -53.0922,53.092153 -29.3056,0 -53.0922,-23.7866 -53.0922,-53.092153 0,-29.30556 23.7866,-53.092154 53.0922,-53.092154 z"
      id="path1695"
      fill="#d40000"
      stroke-width="1.42809"
    />
    <circle
      cx="84.497963"
      cy="88.036003"
      r="65.245361"
      id="circle1698"
      fill="none"
      stroke="#ffffff"
      stroke-width="1.42566px"
    />
    <circle
      cx="84.497963"
      cy="897.90839"
      r="65.245361"
      id="circle1702"
      fill="none"
      stroke="#ffffff"
      stroke-width="1.42566px"
    />
    <circle
      cx="1877.7"
      cy="88.036003"
      r="65.245361"
      id="circle1706"
      fill="none"
      stroke="#ffffff"
      stroke-width="1.42566px"
    />
    <circle
      cx="1877.7"
      cy="897.90839"
      r="65.245361"
      id="circle1710"
      fill="none"
      stroke="#ffffff"
      stroke-width="1.42566px"
    />
    <rect
      x="947.77869"
      y="193.15878"
      width="740.8031"
      height="594.31744"
      id="rect1714"
      fill="#33669a"
      stroke-width="1.33333"
    />
    <path
      d="m 1086.7635,260.25053 h 149.475"
      id="path1717"
      fill="none"
      fill-rule="nonzero"
      stroke="#000000"
      stroke-width="1.30732px"
      stroke-linejoin="miter"
      stroke-miterlimit="10"
    />
    <path
      d="m 1086.7635,720.37778 h 149.475"
      id="path1720"
      fill="none"
      fill-rule="nonzero"
      stroke="#000000"
      stroke-width="1.30732px"
      stroke-linejoin="miter"
      stroke-miterlimit="10"
    />
    <path
      d="M 1236.2385,260.25053 V 720.37778"
      id="path1723"
      fill="none"
      fill-rule="nonzero"
      stroke="#ffffff"
      stroke-width="1.30732px"
      stroke-linejoin="miter"
      stroke-miterlimit="10"
    />
    <path
      d="M 1540.8709,260.26484 V 382.0798"
      id="path1726"
      fill="none"
      fill-rule="nonzero"
      stroke="#000000"
      stroke-width="1.30732px"
      stroke-linejoin="miter"
      stroke-miterlimit="10"
    />
    <path
      d="M 1540.8709,591.70095 V 713.52069"
      id="path1729"
      fill="none"
      fill-rule="nonzero"
      stroke="#000000"
      stroke-width="1.30732px"
      stroke-linejoin="miter"
      stroke-miterlimit="10"
    />
    <path
      d="M 1008.7894,490.29506 H 1170.643"
      id="path1732"
      fill="none"
      fill-rule="nonzero"
      stroke="#000000"
      stroke-width="1.30732px"
      stroke-linejoin="miter"
      stroke-miterlimit="10"
    />
    <path
      d="m 1559.9508,390.74065 -138.79,99.57828"
      id="path1735"
      fill="none"
      fill-rule="nonzero"
      stroke="#000000"
      stroke-width="1.30732px"
      stroke-linejoin="miter"
      stroke-miterlimit="10"
    />
    <path
      d="m 1170.643,490.29506 h 250.5178"
      id="path1738"
      fill="none"
      fill-rule="nonzero"
      stroke="#ffffff"
      stroke-width="1.30732px"
      stroke-linejoin="miter"
      stroke-miterlimit="10"
    />
    <ellipse
      cx="1086.7635"
      cy="260.25052"
      id="circle1741"
      rx="15.595794"
      ry="15.33662"
      fill="#ffffff"
      stroke-width="0.46195"
    />
    <ellipse
      cx="1554.6274"
      cy="260.26483"
      rx="23.383982"
      ry="9.5770369"
      id="ellipse1744"
      fill="#ffffff"
      stroke-width="0.46195"
    />
    <ellipse
      cx="1008.7894"
      cy="490.3046"
      rx="9.7388792"
      ry="23.009703"
      id="ellipse1747"
      fill="#ffffff"
      stroke-width="0.46195"
    />
    <ellipse
      cx="1086.7635"
      cy="720.37775"
      id="circle1750"
      rx="15.595794"
      ry="15.33662"
      fill="#ffffff"
      stroke-width="0.46195"
    />
    <ellipse
      cx="1554.6274"
      cy="720.36353"
      rx="23.383982"
      ry="9.5913525"
      id="ellipse1753"
      fill="#ffffff"
      stroke-width="0.46195"
    />
    <path
      d="m 1233.1038,318.30446 85.0733,-34.71019"
      id="path1756"
      fill="none"
      fill-rule="nonzero"
      stroke="#ffffff"
      stroke-width="1.30732px"
      stroke-linejoin="miter"
      stroke-miterlimit="10"
    />
    <path
      d="m 1233.1038,345.35589 85.0733,-34.70543"
      id="path1759"
      fill="none"
      fill-rule="nonzero"
      stroke="#ffffff"
      stroke-width="1.30732px"
      stroke-linejoin="miter"
      stroke-miterlimit="10"
    />
    <path
      d="m 1233.1038,372.4121 85.0733,-34.7102"
      id="path1762"
      fill="none"
      fill-rule="nonzero"
      stroke="#ffffff"
      stroke-width="1.30732px"
      stroke-linejoin="miter"
      stroke-miterlimit="10"
    />
    <path
      d="m 1233.1038,399.46353 85.0733,-34.71021"
      id="path1765"
      fill="none"
      fill-rule="nonzero"
      stroke="#ffffff"
      stroke-width="1.30732px"
      stroke-linejoin="miter"
      stroke-miterlimit="10"
    />
    <path
      d="m 1233.1038,426.51495 85.0733,-34.70543"
      id="path1768"
      fill="none"
      fill-rule="nonzero"
      stroke="#ffffff"
      stroke-width="1.30732px"
      stroke-linejoin="miter"
      stroke-miterlimit="10"
    />
    <path
      d="m 1233.1038,453.57116 85.0733,-34.71019"
      id="path1771"
      fill="none"
      fill-rule="nonzero"
      stroke="#ffffff"
      stroke-width="1.30732px"
      stroke-linejoin="miter"
      stroke-miterlimit="10"
    />
    <path
      d="m 1233.1038,480.6226 85.0733,-34.71021"
      id="path1774"
      fill="none"
      fill-rule="nonzero"
      stroke="#ffffff"
      stroke-width="1.30732px"
      stroke-linejoin="miter"
      stroke-miterlimit="10"
    />
    <path
      d="m 1233.1038,507.65971 85.0733,-34.69589"
      id="path1777"
      fill="none"
      fill-rule="nonzero"
      stroke="#ffffff"
      stroke-width="1.30732px"
      stroke-linejoin="miter"
      stroke-miterlimit="10"
    />
    <path
      d="m 1233.1038,534.71592 85.0733,-34.71021"
      id="path1780"
      fill="none"
      fill-rule="nonzero"
      stroke="#ffffff"
      stroke-width="1.30732px"
      stroke-linejoin="miter"
      stroke-miterlimit="10"
    />
    <path
      d="m 1233.1038,561.76735 85.0733,-34.71021"
      id="path1783"
      fill="none"
      fill-rule="nonzero"
      stroke="#ffffff"
      stroke-width="1.30732px"
      stroke-linejoin="miter"
      stroke-miterlimit="10"
    />
    <path
      d="m 1233.1038,588.81877 85.0733,-34.70542"
      id="path1786"
      fill="none"
      fill-rule="nonzero"
      stroke="#ffffff"
      stroke-width="1.30732px"
      stroke-linejoin="miter"
      stroke-miterlimit="10"
    />
    <path
      d="m 1233.1038,615.87498 85.0733,-34.71019"
      id="path1789"
      fill="none"
      fill-rule="nonzero"
      stroke="#ffffff"
      stroke-width="1.30732px"
      stroke-linejoin="miter"
      stroke-miterlimit="10"
    />
    <path
      d="m 1233.1038,642.92642 85.0733,-34.71021"
      id="path1792"
      fill="none"
      fill-rule="nonzero"
      stroke="#ffffff"
      stroke-width="1.30732px"
      stroke-linejoin="miter"
      stroke-miterlimit="10"
    />
    <path
      d="m 1233.1038,669.97784 85.0733,-34.71019"
      id="path1795"
      fill="none"
      fill-rule="nonzero"
      stroke="#ffffff"
      stroke-width="1.30732px"
      stroke-linejoin="miter"
      stroke-miterlimit="10"
    />
    <path
      d="m 1233.1038,697.02927 85.0733,-34.70541"
      id="path1798"
      fill="none"
      fill-rule="nonzero"
      stroke="#ffffff"
      stroke-width="1.30732px"
      stroke-linejoin="miter"
      stroke-miterlimit="10"
    />
    <rect
      x="947.77869"
      y="193.15878"
      width="740.8031"
      height="594.31744"
      id="rect1801"
      fill="#33669a"
      fill-opacity="0.8"
      stroke-width="1.33333"
    />
    <rect
      x="970.07037"
      y="212.38094"
      width="696.2616"
      height="555.85919"
      id="rect1804"
      fill="#ffffff"
      fill-opacity="0.2"
      stroke-width="1.33333"
    />
    <path
      d="m 1357.613,490.72453 c 0,21.14392 -17.4688,38.33678 -38.9797,38.33678 h -0.8688 c -21.54,0 -38.9797,-17.19286 -38.9797,-38.33678 v -0.86364 c 0,-21.14392 17.4397,-38.33201 38.9797,-38.33201 h 0.8688 c 21.5109,0 38.9797,17.18809 38.9797,38.33201 z"
      id="path1807"
      fill="url(#_Radial1)"
      fill-rule="nonzero"
      stroke-width="0.46195"
    />
    <path
      d="m 1357.613,490.72453 c 0,21.14392 -17.4688,38.33678 -38.9797,38.33678 h -0.8688 c -21.54,0 -38.9797,-17.19286 -38.9797,-38.33678 v -0.86364 c 0,-21.14392 17.4397,-38.33201 38.9797,-38.33201 h 0.8688 c 21.5109,0 38.9797,17.18809 38.9797,38.33201 z"
      id="path1810"
      fill="url(#_Linear2)"
      fill-rule="nonzero"
      stroke-width="0.46195"
    />
    <ellipse
      cx="1587.2264"
      cy="720.34918"
      id="circle1813"
      rx="27.275656"
      ry="26.822386"
      fill="#4378a5"
      stroke-width="0.46195"
    />
    <ellipse
      cx="1587.2264"
      cy="720.34918"
      id="circle1816"
      rx="17.580448"
      ry="17.288294"
      fill="#33669a"
      stroke-width="0.46195"
    />
    <path
      d="m 1333.8747,605.2824 h -4.6806 v -24.11104 c 0,-0.76385 0.01,-1.56944 0.01,-2.43055 0,-0.875 0.031,-1.72222 0.052,-2.56942 0.031,-0.86115 0.052,-1.68057 0.083,-2.47222 0.031,-0.7777 0.052,-1.47227 0.052,-2.06945 -0.2916,0.31937 -0.5698,0.59729 -0.8052,0.83333 -0.2219,0.22229 -0.4583,0.44448 -0.7083,0.66656 -0.2365,0.20823 -0.4865,0.43052 -0.7636,0.66656 -0.2635,0.25011 -0.5833,0.51396 -0.9448,0.84719 l -3.9443,3.18054 -2.5695,-3.2361 10.2083,-7.90276 h 4 z"
      id="path1819"
      fill="#ffffff"
      fill-rule="nonzero"
      stroke="#ffffff"
      stroke-width="0.266666px"
      stroke-linecap="butt"
      stroke-linejoin="miter"
      stroke-miterlimit="10"
    />
    <path
      d="m 1372.4857,585.92134 c 0,3.11111 -0.2365,5.90277 -0.6802,8.37499 -0.4583,2.45831 -1.1805,4.55554 -2.1944,6.26386 -1,1.69443 -2.2916,3.01387 -3.8611,3.90276 -1.5834,0.88886 -3.5139,1.34717 -5.7639,1.34717 -2.0833,0 -3.9305,-0.44448 -5.4721,-1.34717 -1.5417,-0.90281 -2.8473,-2.20833 -3.8612,-3.90276 -1,-1.70832 -1.7778,-3.79165 -2.2916,-6.26386 -0.5,-2.48611 -0.7636,-5.26388 -0.7636,-8.37499 0,-3.1111 0.2365,-5.91664 0.6948,-8.37495 0.4448,-2.45834 1.1668,-4.54167 2.1528,-6.24999 0.9719,-1.70833 2.2639,-3 3.8333,-3.88888 1.5694,-0.90281 3.4722,-1.36115 5.7084,-1.36115 2.111,0 3.9583,0.44448 5.5138,1.34717 1.5555,0.88885 2.8611,2.16666 3.8889,3.87499 1.0135,1.70832 1.7916,3.77776 2.3194,6.24997 0.5136,2.47221 0.7782,5.27777 0.7782,8.40276 z m -19.9583,0 c 0,2.63889 0.1385,4.94443 0.3885,6.91665 0.2636,1.98611 0.7084,3.63887 1.2917,4.93054 0.5833,1.29167 1.3472,2.30554 2.3055,2.95833 0.9448,0.66656 2.0973,0.98614 3.4723,0.98614 1.375,0 2.5417,-0.31937 3.5,-0.97229 0.9448,-0.65281 1.736,-1.62499 2.3472,-2.93054 0.625,-1.31949 1.0694,-2.94444 1.3472,-4.93053 0.2635,-1.97223 0.4031,-4.29166 0.4031,-6.95832 0,-2.63888 -0.1531,-4.95833 -0.4031,-6.93053 -0.2636,-1.97222 -0.7219,-3.6111 -1.3472,-4.90275 -0.6115,-1.30552 -1.4028,-2.29168 -2.3472,-2.94445 -0.9583,-0.63895 -2.125,-0.97229 -3.5,-0.97229 -1.375,0 -2.5278,0.31938 -3.4723,0.97229 -0.9583,0.65282 -1.7222,1.62499 -2.3055,2.94445 -0.5833,1.3055 -1.0135,2.94443 -1.2917,4.90275 -0.2635,1.95833 -0.3885,4.29165 -0.3885,6.93053 z"
      id="path1822"
      fill="#ffffff"
      fill-rule="nonzero"
      stroke="#ffffff"
      stroke-width="0.266666px"
      stroke-linecap="butt"
      stroke-linejoin="miter"
      stroke-miterlimit="10"
    />
    <path
      d="m 1403.1383,605.2824 -4.2638,-11.95831 h -14.5138 l -4.3056,11.95831 h -5.0139 l 14.3055,-38.77765 h 4.5278 l 14.3472,38.77765 z m -5.8333,-16.31939 -3.9443,-11.19442 c -0.1115,-0.31937 -0.2365,-0.70833 -0.375,-1.16671 -0.1532,-0.45834 -0.3052,-0.94448 -0.4719,-1.47227 -0.1667,-0.52781 -0.3052,-1.08326 -0.4719,-1.65278 -0.1667,-0.56948 -0.3052,-1.13889 -0.4448,-1.68054 -0.125,0.54167 -0.2781,1.11108 -0.4302,1.69444 -0.1531,0.58333 -0.3198,1.1389 -0.4719,1.68054 -0.1666,0.54167 -0.3052,1.02782 -0.4718,1.47227 -0.1667,0.44448 -0.2782,0.81938 -0.375,1.12507 l -3.8612,11.19441 z"
      id="path1825"
      fill="#ffffff"
      fill-rule="nonzero"
      stroke="#ffffff"
      stroke-width="0.266666px"
      stroke-linecap="butt"
      stroke-linejoin="miter"
      stroke-miterlimit="10"
    />
    <path
      d="m 1427.9993,566.67141 -14.4999,38.61099 h -4.7777 l 14.5138,-38.61099 z"
      id="path1828"
      fill="#ffffff"
      fill-rule="nonzero"
      stroke="#ffffff"
      stroke-width="0.266666px"
      stroke-linecap="butt"
      stroke-linejoin="miter"
      stroke-miterlimit="10"
    />
    <path
      d="m 1455.402,605.2824 h -24.2915 v -4.12499 l 9.3333,-10.05553 c 1.3333,-1.41663 2.5277,-2.7361 3.5694,-3.91665 1.0556,-1.16671 1.9445,-2.33333 2.6806,-3.45832 0.7365,-1.12506 1.3054,-2.26388 1.6944,-3.38888 0.375,-1.13891 0.5833,-2.38889 0.5833,-3.70832 0,-1.04156 -0.1531,-1.95832 -0.4448,-2.75 -0.3052,-0.7777 -0.7364,-1.45827 -1.3055,-2.01388 -0.5552,-0.55562 -1.2222,-0.97229 -1.9862,-1.26386 -0.7635,-0.27771 -1.6111,-0.41667 -2.5694,-0.41667 -1.6805,0 -3.1944,0.34719 -4.5694,1.01396 -1.3611,0.68052 -2.6388,1.54166 -3.875,2.59721 l -2.7083,-3.13886 c 0.7083,-0.6249 1.4723,-1.22221 2.2916,-1.77778 0.8198,-0.55552 1.6945,-1.02781 2.625,-1.43047 0.9448,-0.41667 1.9444,-0.73604 3,-0.97219 1.0417,-0.22229 2.1389,-0.34718 3.2917,-0.34718 1.7083,0 3.236,0.24989 4.625,0.72218 1.3887,0.47219 2.5555,1.16672 3.5138,2.04167 0.9448,0.875 1.6806,1.97221 2.2222,3.24998 0.5281,1.26386 0.7917,2.70833 0.7917,4.30556 0,1.4861 -0.2365,2.93053 -0.7219,4.27776 -0.4719,1.34716 -1.111,2.69442 -1.9445,3.99998 -0.8333,1.3195 -1.8193,2.62499 -2.9582,3.95832 -1.1528,1.3195 -2.3889,2.68054 -3.7083,4.12499 l -7.4861,7.88885 v 0.22219 h 18.361 z"
      id="path1831"
      fill="#ffffff"
      fill-rule="nonzero"
      stroke="#ffffff"
      stroke-width="0.266666px"
      stroke-linecap="butt"
      stroke-linejoin="miter"
      stroke-miterlimit="10"
    />
    <path
      d="m 1473.1243,581.58803 c 1.7638,0 3.4027,0.25011 4.9165,0.73604 1.514,0.48615 2.8473,1.19439 3.9585,2.15277 1.1245,0.94448 2.0137,2.125 2.6527,3.54166 0.6385,1.41664 0.9583,3.04165 0.9583,4.87497 0,2.01389 -0.3052,3.81943 -0.9031,5.41665 -0.5969,1.59723 -1.5001,2.95833 -2.6945,4.06944 -1.1805,1.11108 -2.6389,1.95833 -4.4028,2.54165 -1.75,0.58334 -3.75,0.875 -6.0277,0.875 -0.9031,0 -1.7917,-0.0281 -2.6667,-0.125 -0.875,-0.0969 -1.7361,-0.22229 -2.5416,-0.375 -0.8052,-0.16656 -1.5695,-0.38885 -2.3055,-0.6527 -0.7365,-0.27771 -1.3889,-0.56948 -1.9723,-0.91667 v -4.55554 c 0.5833,0.41666 1.2638,0.77781 2.0556,1.08341 0.7916,0.31938 1.625,0.58333 2.5,0.80552 0.875,0.20844 1.736,0.36115 2.611,0.48615 0.875,0.125 1.6945,0.18062 2.4445,0.18062 1.4028,0 2.6527,-0.16656 3.75,-0.48614 1.111,-0.33334 2.0277,-0.84719 2.7916,-1.52777 0.7636,-0.66656 1.3612,-1.54167 1.7639,-2.58334 0.4167,-1.04156 0.6115,-2.26387 0.6115,-3.68054 0,-2.54166 -0.7917,-4.44442 -2.3473,-5.77775 -1.5556,-1.34716 -3.8334,-1.98611 -6.8194,-1.98611 -0.4719,0 -0.9865,0.0281 -1.5555,0.0552 -0.5552,0.0417 -1.1112,0.11156 -1.6667,0.18062 -0.5698,0.0698 -1.0973,0.15282 -1.5973,0.23604 -0.5135,0.0833 -0.9448,0.15282 -1.3333,0.2223 l -2.3888,-1.49998 1.4583,-18.1805 h 18.3748 v 4.38887 h -14.1666 l -1.0281,11.05551 c 0.5698,-0.0969 1.3195,-0.22219 2.25,-0.33333 0.9166,-0.11157 2.0416,-0.2223 3.3193,-0.2223 z"
      id="path1834"
      fill="#ffffff"
      fill-rule="nonzero"
      stroke="#ffffff"
      stroke-width="0.266666px"
      stroke-linecap="butt"
      stroke-linejoin="miter"
      stroke-miterlimit="10"
    />
    <path
      d="m 1516.1519,585.92134 c 0,3.11111 -0.2365,5.90277 -0.6948,8.37499 -0.4448,2.45831 -1.1662,4.55554 -2.1804,6.26386 -1,1.69443 -2.2919,3.01387 -3.8751,3.90276 -1.5833,0.88886 -3.5,1.34717 -5.75,1.34717 -2.0833,0 -3.9305,-0.44448 -5.4723,-1.34717 -1.5415,-0.90281 -2.847,-2.20833 -3.861,-3.90276 -1,-1.70832 -1.7778,-3.79165 -2.2916,-6.26386 -0.5,-2.48611 -0.7635,-5.26388 -0.7635,-8.37499 0,-3.1111 0.2365,-5.91664 0.6802,-8.37495 0.4583,-2.45834 1.1812,-4.54167 2.1666,-6.24999 0.9729,-1.70833 2.2639,-3 3.8333,-3.88888 1.5556,-0.90281 3.4722,-1.36115 5.7083,-1.36115 2.1111,0 3.9583,0.44448 5.514,1.34717 1.5555,0.88885 2.861,2.16666 3.8888,3.87499 1.0146,1.70832 1.7917,3.77776 2.3195,6.24997 0.5135,2.47221 0.7781,5.27777 0.7781,8.40276 z m -19.9583,0 c 0,2.63889 0.1344,4.94443 0.3885,6.91665 0.2636,1.98611 0.6948,3.63887 1.2913,4.93054 0.5833,1.29167 1.3478,2.30554 2.3056,2.95833 0.9448,0.66656 2.0972,0.98614 3.4722,0.98614 1.3746,0 2.5417,-0.31937 3.486,-0.97229 0.9584,-0.65281 1.75,-1.62499 2.3612,-2.93054 0.6114,-1.31949 1.0696,-2.94444 1.3477,-4.93053 0.2635,-1.97223 0.4031,-4.29166 0.4031,-6.95832 0,-2.63888 -0.1531,-4.95833 -0.4031,-6.93053 -0.2636,-1.97222 -0.7365,-3.6111 -1.3477,-4.90275 -0.6115,-1.30552 -1.4028,-2.29168 -2.3612,-2.94445 -0.9448,-0.63895 -2.111,-0.97229 -3.486,-0.97229 -1.3746,0 -2.5277,0.31938 -3.4722,0.97229 -0.9583,0.65282 -1.7222,1.62499 -2.3056,2.94445 -0.5969,1.3055 -1.0146,2.94443 -1.2913,4.90275 -0.2635,1.95833 -0.3885,4.29165 -0.3885,6.93053 z"
      id="path1837"
      fill="#ffffff"
      fill-rule="nonzero"
      stroke="#ffffff"
      stroke-width="0.266666px"
      stroke-linecap="butt"
      stroke-linejoin="miter"
      stroke-miterlimit="10"
    />
    <path
      d="m 1544.4019,566.67141 h 5.2777 l -13.0139,38.61099 h -4.986 l -12.9723,-38.61099 h 5.25 l 7.861,24.49991 c 0.5136,1.59723 0.9584,3.13888 1.333,4.63888 0.3895,1.5 0.7083,2.87499 1.0145,4.19443 0.2636,-1.3195 0.5969,-2.69443 1,-4.19443 0.4167,-1.5 0.8896,-3.09722 1.4445,-4.79165 z"
      id="path1840"
      fill="#ffffff"
      fill-rule="nonzero"
      stroke="#ffffff"
      stroke-width="0.266666px"
      stroke-linecap="butt"
      stroke-linejoin="miter"
      stroke-miterlimit="10"
    />
    <path
      d="m 1577.7767,605.2824 -4.2638,-11.95831 h -14.5139 l -4.3056,11.95831 h -5.0138 l 14.3193,-38.77765 h 4.5278 l 14.3332,38.77765 z m -5.8195,-16.31939 -3.9443,-11.19442 c -0.1042,-0.31937 -0.2219,-0.70833 -0.375,-1.16671 -0.1532,-0.45834 -0.3052,-0.94448 -0.4719,-1.47227 -0.1667,-0.52781 -0.3052,-1.08326 -0.4719,-1.65278 -0.1667,-0.56948 -0.3052,-1.13889 -0.4448,-1.68054 -0.1187,0.54167 -0.2781,1.11108 -0.4302,1.69444 -0.1531,0.58333 -0.3198,1.1389 -0.4719,1.68054 -0.1666,0.54167 -0.3062,1.02782 -0.4718,1.47227 -0.1667,0.44448 -0.2782,0.81938 -0.375,1.12507 l -3.8611,11.19441 z"
      id="path1843"
      fill="#ffffff"
      fill-rule="nonzero"
      stroke="#ffffff"
      stroke-width="0.266666px"
      stroke-linecap="butt"
      stroke-linejoin="miter"
      stroke-miterlimit="10"
    />
    <path
      d="m 1603.9709,570.44917 c -1.9165,0 -3.6249,0.34718 -5.1665,1.06942 -1.5417,0.70844 -2.875,1.73611 -3.9584,3.08334 -1.0978,1.33333 -1.9582,2.97221 -2.5416,4.87497 -0.5833,1.91668 -0.8886,4.08332 -0.8886,6.49999 0,2.48609 0.2636,4.69442 0.7917,6.61108 0.5417,1.91666 1.3195,3.55555 2.361,4.87499 1.0548,1.30551 2.3612,2.31944 3.9166,3.01388 1.5556,0.68052 3.4029,1.02781 5.4861,1.02781 1.5834,0 3.0834,-0.16657 4.5001,-0.45834 1.4162,-0.30552 2.8194,-0.66656 4.2083,-1.06942 v 4.27776 c -0.6948,0.26386 -1.3894,0.5 -2.0694,0.69438 -0.6802,0.20822 -1.4162,0.375 -2.1667,0.48614 -0.75,0.125 -1.5695,0.22229 -2.4306,0.29177 -0.8615,0.0552 -1.8055,0.0833 -2.861,0.0833 -2.9168,0 -5.4307,-0.47218 -7.5695,-1.41663 -2.1389,-0.94448 -3.9027,-2.29165 -5.2917,-4.04165 -1.3894,-1.74998 -2.4304,-3.84721 -3.111,-6.29163 -0.6802,-2.44445 -1.0146,-5.16666 -1.0146,-8.13887 0,-2.93054 0.3886,-5.5972 1.1663,-8.04165 0.7781,-2.43053 1.9165,-4.51386 3.4027,-6.26385 1.4861,-1.73611 3.361,-3.09721 5.5833,-4.06944 2.2222,-0.97219 4.7777,-1.44446 7.6527,-1.44446 1.9168,0 3.7362,0.20844 5.486,0.58323 1.7362,0.375 3.3056,0.94448 4.7085,1.69445 l -2.0694,4.12499 c -1.1113,-0.56948 -2.3333,-1.04156 -3.6528,-1.44446 -1.3195,-0.41666 -2.8056,-0.61114 -4.4723,-0.61114 z"
      id="path1846"
      fill="#ffffff"
      fill-rule="nonzero"
      stroke="#ffffff"
      stroke-width="0.266666px"
      stroke-linecap="butt"
      stroke-linejoin="miter"
      stroke-miterlimit="10"
    />
    <path
      d="m 1359.7496,670.21274 h -4.6805 V 646.1017 c 0,-0.76386 0,-1.56944 0.01,-2.44443 0.01,-0.86114 0.031,-1.70834 0.052,-2.56944 0.031,-0.84719 0.052,-1.66665 0.073,-2.45832 0.031,-0.77771 0.042,-1.47228 0.073,-2.06945 -0.2781,0.31937 -0.5552,0.59729 -0.8052,0.83333 -0.2365,0.22229 -0.4584,0.44448 -0.7084,0.6527 -0.2364,0.2223 -0.4864,0.43053 -0.7635,0.68063 -0.2635,0.2501 -0.5833,0.51396 -0.9448,0.83333 l -3.9443,3.19444 -2.5695,-3.25 10.2083,-7.88886 h 3.9861 v 38.5971 z"
      id="path1849"
      fill="#ffffff"
      fill-rule="nonzero"
      stroke="#ffffff"
      stroke-width="0.266666px"
      stroke-linecap="butt"
      stroke-linejoin="miter"
      stroke-miterlimit="10"
    />
    <path
      d="m 1398.3605,650.85168 c 0,3.11111 -0.2364,5.90277 -0.6947,8.36109 -0.4448,2.47221 -1.1806,4.56943 -2.1806,6.26386 -0.9864,1.70833 -2.3056,3.02777 -3.875,3.91666 -1.5556,0.88885 -3.4861,1.34717 -5.7499,1.34717 -2.0972,0 -3.9167,-0.44448 -5.4722,-1.34717 -1.5556,-0.90281 -2.8334,-2.20833 -3.8612,-3.91666 -1.0135,-1.69443 -1.7778,-3.77775 -2.2916,-6.26386 -0.5,-2.47222 -0.7636,-5.24998 -0.7636,-8.36109 0,-3.1111 0.2365,-5.91664 0.6802,-8.37497 0.4584,-2.45833 1.1807,-4.54166 2.1667,-6.24998 0.9719,-1.70834 2.264,-2.99999 3.8333,-3.90277 1.5695,-0.88885 3.4723,-1.34717 5.7084,-1.34717 2.0971,0 3.9444,0.44448 5.5138,1.33334 1.5695,0.90281 2.8473,2.18054 3.889,3.88887 1.0281,1.70832 1.8055,3.77776 2.3193,6.24997 0.5,2.47222 0.7781,5.27778 0.7781,8.40276 z m -19.9582,0 c 0,2.63889 0.1386,4.94443 0.3886,6.91665 0.2635,1.97222 0.6948,3.62498 1.2917,4.93054 0.5833,1.29167 1.3611,2.29166 2.3055,2.95832 0.9302,0.66657 2.1111,0.98615 3.4722,0.98615 1.3611,0 2.5416,-0.31938 3.4861,-0.97229 0.9583,-0.65281 1.75,-1.62499 2.3611,-2.93055 0.625,-1.31949 1.0556,-2.95831 1.3471,-4.93053 0.2781,-1.97222 0.4031,-4.30554 0.4031,-6.95831 0,-2.63888 -0.1385,-4.95831 -0.4031,-6.93053 -0.2781,-1.97222 -0.7219,-3.6111 -1.3471,-4.91665 -0.6114,-1.29168 -1.4028,-2.27778 -2.3611,-2.93055 -0.9448,-0.65271 -2.125,-0.97229 -3.4861,-0.97229 -1.3612,0 -2.5416,0.31938 -3.4722,0.97229 -0.9448,0.65281 -1.7222,1.62499 -2.3055,2.93055 -0.5969,1.31949 -1.0136,2.95833 -1.2917,4.91665 -0.2636,1.95833 -0.3886,4.29165 -0.3886,6.93053 z"
      id="path1852"
      fill="#ffffff"
      fill-rule="nonzero"
      stroke="#ffffff"
      stroke-width="0.266666px"
      stroke-linecap="butt"
      stroke-linejoin="miter"
      stroke-miterlimit="10"
    />
    <path
      d="m 1429.0133,670.21274 -4.2639,-11.97219 h -14.5139 l -4.3055,11.97219 h -5.0138 l 14.3055,-38.77765 h 4.5277 l 14.3471,38.77765 z m -5.8195,-16.31939 -3.9444,-11.20831 c -0.1115,-0.30553 -0.2365,-0.69438 -0.375,-1.15273 -0.1386,-0.47219 -0.3052,-0.95833 -0.4719,-1.48611 -0.1667,-0.52782 -0.3052,-1.08326 -0.4719,-1.6389 -0.1667,-0.56948 -0.3198,-1.13889 -0.4583,-1.68055 -0.1386,0.54167 -0.2636,1.11108 -0.4167,1.69445 -0.1531,0.56948 -0.3469,1.11108 -0.5,1.65278 -0.1666,0.54166 -0.3198,1.02781 -0.4719,1.4861 -0.1531,0.44448 -0.2781,0.81937 -0.375,1.11108 l -3.8612,11.20829 h 11.3472 z"
      id="path1855"
      fill="#ffffff"
      fill-rule="nonzero"
      stroke="#ffffff"
      stroke-width="0.266666px"
      stroke-linecap="butt"
      stroke-linejoin="miter"
      stroke-miterlimit="10"
    />
    <path
      d="m 1453.8743,631.58786 -14.4861,38.61098 h -4.7777 l 14.5138,-38.61098 z"
      id="path1858"
      fill="#ffffff"
      fill-rule="nonzero"
      stroke="#ffffff"
      stroke-width="0.266666px"
      stroke-linecap="butt"
      stroke-linejoin="miter"
      stroke-miterlimit="10"
    />
    <path
      d="m 1473.3742,670.21274 h -4.6944 V 646.1017 c 0,-0.76386 0,-1.56944 0.01,-2.44443 0.01,-0.86114 0.031,-1.70834 0.052,-2.56944 0.031,-0.84719 0.052,-1.66665 0.083,-2.45832 0.031,-0.77771 0.042,-1.47228 0.073,-2.06945 -0.2917,0.31937 -0.5698,0.59729 -0.8053,0.83333 -0.25,0.22229 -0.4718,0.44448 -0.7083,0.6527 -0.25,0.2223 -0.5,0.43053 -0.7635,0.68063 -0.2782,0.2501 -0.5969,0.51396 -0.9584,0.83333 l -3.9444,3.19444 -2.5555,-3.25 10.1944,-7.88886 h 4 v 38.5971 z"
      id="path1861"
      fill="#ffffff"
      fill-rule="nonzero"
      stroke="#ffffff"
      stroke-width="0.266666px"
      stroke-linecap="butt"
      stroke-linejoin="miter"
      stroke-miterlimit="10"
    />
    <path
      d="m 1513.4436,661.5461 h -5.6667 v 8.66664 h -4.6944 v -8.66664 h -17.9861 v -4.20833 l 17.6667,-25.97213 h 5.0138 v 25.77769 h 5.6667 z m -10.3611,-4.38889 v -9.38885 c 0,-1 0.01,-2.02778 0.042,-3.0972 0.031,-1.08327 0.062,-2.1389 0.094,-3.16668 0.031,-1.02781 0.094,-1.99999 0.1187,-2.90276 0.042,-0.90281 0.073,-1.65276 0.1042,-2.2361 h -0.25 c -0.1344,0.34719 -0.2781,0.73604 -0.4583,1.16672 -0.1803,0.43052 -0.3896,0.86114 -0.6115,1.3055 -0.2365,0.44448 -0.4448,0.84719 -0.6802,1.25002 -0.25,0.41667 -0.4583,0.76386 -0.6396,1.02781 l -10.9583,16.0694 h 13.25 z"
      id="path1864"
      fill="#ffffff"
      fill-rule="nonzero"
      stroke="#ffffff"
      stroke-width="0.266666px"
      stroke-linecap="butt"
      stroke-linejoin="miter"
      stroke-miterlimit="10"
    />
    <path
      d="m 1540.2491,631.58786 h 5.2777 l -13.0277,38.61098 h -4.9722 l -12.9723,-38.61098 h 5.25 l 7.8473,24.49992 c 0.5135,1.58332 0.9583,3.12499 1.3477,4.63886 0.375,1.5 0.7229,2.87499 1,4.18056 0.2781,-1.30551 0.6114,-2.68056 1.0135,-4.18056 0.3886,-1.51387 0.875,-3.0972 1.4311,-4.79164 z"
      id="path1867"
      fill="#ffffff"
      fill-rule="nonzero"
      stroke="#ffffff"
      stroke-width="0.266666px"
      stroke-linecap="butt"
      stroke-linejoin="miter"
      stroke-miterlimit="10"
    />
    <path
      d="m 1579.4989,650.53223 c 0,3.26389 -0.4167,6.1111 -1.2778,8.58332 -0.8615,2.45832 -2.0694,4.49998 -3.6943,6.15276 -1.6251,1.65277 -3.6111,2.87497 -5.9723,3.70831 -2.3473,0.81937 -5.0139,1.23619 -8,1.23619 h -9.7499 v -38.61099 h 10.8472 c 2.7084,0 5.1666,0.40282 7.3749,1.20838 2.2083,0.81948 4.0832,2.01388 5.611,3.6111 1.5418,1.6111 2.7501,3.58332 3.5973,5.93054 0.8479,2.3472 1.2645,5.06943 1.2645,8.18052 z m -5.236,0.15281 c 0,-2.56943 -0.2917,-4.79164 -0.875,-6.66664 -0.5834,-1.88888 -1.4311,-3.43054 -2.5556,-4.63886 -1.1394,-1.22221 -2.5139,-2.11112 -4.1389,-2.70833 -1.625,-0.59729 -3.4862,-0.875 -5.5694,-0.875 h -5.3611 v 30.18046 h 4.3193 c 4.6945,0 8.2362,-1.27784 10.5973,-3.84721 2.361,-2.56944 3.5834,-6.38886 3.5834,-11.44442 z"
      id="path1870"
      fill="#ffffff"
      fill-rule="nonzero"
      stroke="#ffffff"
      stroke-width="0.266666px"
      stroke-linecap="butt"
      stroke-linejoin="miter"
      stroke-miterlimit="10"
    />
    <path
      d="m 1603.9572,635.36563 c -1.9028,0 -3.625,0.36115 -5.1668,1.06943 -1.5415,0.72218 -2.861,1.74998 -3.9582,3.08331 -1.0978,1.34717 -1.9444,2.9861 -2.5417,4.88887 -0.5968,1.90278 -0.8896,4.08332 -0.8896,6.48609 0,2.49999 0.2782,4.69442 0.7917,6.62498 0.5281,1.91665 1.3328,3.55555 2.361,4.86109 1.0417,1.3195 2.3473,2.33334 3.9167,3.02777 1.5695,0.68063 3.389,1.02781 5.4861,1.02781 1.5694,0 3.0972,-0.16656 4.5,-0.47218 1.4028,-0.29177 2.8194,-0.65271 4.2084,-1.06943 v 4.27777 c -0.6948,0.2777 -1.3894,0.5 -2.0695,0.70833 -0.6802,0.20844 -1.4163,0.36114 -2.1667,0.48614 -0.75,0.125 -1.5554,0.22229 -2.4304,0.27771 -0.875,0.0698 -1.8195,0.0969 -2.8611,0.0969 -2.9029,0 -5.4306,-0.47219 -7.5695,-1.41664 -2.1388,-0.94447 -3.8888,-2.30554 -5.2917,-4.04165 -1.4028,-1.74998 -2.4443,-3.84721 -3.1111,-6.29163 -0.6667,-2.44445 -1.0146,-5.16666 -1.0146,-8.13887 0,-2.93054 0.3886,-5.6111 1.1664,-8.04165 0.7781,-2.43053 1.9027,-4.51386 3.4028,-6.26385 1.5,-1.75001 3.3749,-3.09721 5.5832,-4.06943 2.2083,-0.97229 4.7779,-1.44446 7.6528,-1.44446 1.9167,0 3.7501,0.20823 5.4861,0.58334 1.7222,0.375 3.2917,0.94447 4.7084,1.68056 l -2.0696,4.12497 c -1.1112,-0.55552 -2.3471,-1.04167 -3.6527,-1.44445 -1.3062,-0.40271 -2.7917,-0.61114 -4.4722,-0.61114 z"
      id="path1873"
      fill="#ffffff"
      fill-rule="nonzero"
      stroke="#ffffff"
      stroke-width="0.266666px"
      stroke-linecap="butt"
      stroke-linejoin="miter"
      stroke-miterlimit="10"
    />
    <path
      d="m 1019.4035,605.2824 h -4.6805 v -24.11104 c 0,-0.76385 0,-1.56944 0.014,-2.43055 0.014,-0.875 0.028,-1.72222 0.055,-2.56942 0.028,-0.86115 0.055,-1.68057 0.083,-2.47222 0.028,-0.7777 0.028,-1.47227 0.055,-2.06945 -0.2917,0.31937 -0.5695,0.59729 -0.8056,0.83333 -0.2222,0.22229 -0.4583,0.44448 -0.7084,0.66656 -0.236,0.20823 -0.4861,0.43052 -0.7638,0.66656 -0.2639,0.25011 -0.5833,0.51396 -0.9445,0.84719 l -3.9444,3.18054 -2.5695,-3.2361 10.2083,-7.90276 h 3.9861 v 38.59711 z"
      id="path1876"
      fill="#ffffff"
      fill-rule="nonzero"
      stroke="#ffffff"
      stroke-width="0.266666px"
      stroke-linecap="butt"
      stroke-linejoin="miter"
      stroke-miterlimit="10"
    />
    <path
      d="m 1058.0145,585.92134 c 0,3.11111 -0.2365,5.90277 -0.6803,8.37499 -0.4583,2.45831 -1.1805,4.55554 -2.1944,6.26386 -1,1.69443 -2.2917,3.01387 -3.8611,3.90276 -1.5833,0.88886 -3.5,1.34717 -5.7638,1.34717 -2.0973,0 -3.9306,-0.44448 -5.4723,-1.34717 -1.5416,-0.90281 -2.8333,-2.20833 -3.8611,-3.90276 -1.0139,-1.70832 -1.7777,-3.79165 -2.2916,-6.26386 -0.5,-2.48611 -0.7639,-5.26388 -0.7639,-8.37499 0,-3.1111 0.2361,-5.91664 0.6944,-8.37495 0.4445,-2.45834 1.1667,-4.54167 2.1528,-6.24999 0.9722,-1.70833 2.2639,-3 3.8333,-3.88888 1.5694,-0.90281 3.4723,-1.36115 5.7083,-1.36115 2.1111,0 3.9583,0.44448 5.5138,1.34717 1.5557,0.88885 2.8473,2.16666 3.889,3.87499 1.0281,1.70832 1.7916,3.77776 2.3194,6.24997 0.5135,2.47221 0.7781,5.27777 0.7781,8.40276 z m -19.9583,0 c 0,2.63889 0.1384,4.94443 0.3889,6.91665 0.2639,1.98611 0.6944,3.63887 1.2917,4.93054 0.5833,1.29167 1.3471,2.30554 2.3055,2.95833 0.9448,0.66656 2.1111,0.98614 3.4723,0.98614 1.3611,0 2.5416,-0.31937 3.4999,-0.97229 0.9448,-0.65281 1.7361,-1.62499 2.3473,-2.93054 0.625,-1.31949 1.0693,-2.94444 1.3471,-4.93053 0.2636,-1.97223 0.4032,-4.29166 0.4032,-6.95832 0,-2.63888 -0.1386,-4.95833 -0.4032,-6.93053 -0.2781,-1.97222 -0.7218,-3.6111 -1.3471,-4.90275 -0.6115,-1.30552 -1.4029,-2.29168 -2.3473,-2.94445 -0.9584,-0.63895 -2.1389,-0.97229 -3.4999,-0.97229 -1.3612,0 -2.5278,0.31938 -3.4723,0.97229 -0.9582,0.65282 -1.7222,1.62499 -2.3055,2.94445 -0.5973,1.3055 -1.014,2.94443 -1.2917,4.90275 -0.2639,1.95833 -0.3889,4.29165 -0.3889,6.93053 z"
      id="path1879"
      fill="#ffffff"
      fill-rule="nonzero"
      stroke="#ffffff"
      stroke-width="0.266666px"
      stroke-linecap="butt"
      stroke-linejoin="miter"
      stroke-miterlimit="10"
    />
    <path
      d="m 1088.6672,605.2824 -4.2639,-11.95831 h -14.5139 l -4.3055,11.95831 h -5.0138 l 14.3055,-38.77765 h 4.5278 l 14.3471,38.77765 z m -5.8333,-16.31939 -3.9445,-11.19442 c -0.1114,-0.31937 -0.2364,-0.70833 -0.375,-1.16671 -0.1531,-0.45834 -0.3052,-0.94448 -0.4719,-1.47227 -0.1666,-0.52781 -0.3052,-1.08326 -0.4718,-1.65278 -0.1667,-0.56948 -0.3198,-1.13889 -0.4584,-1.68054 -0.1114,0.54167 -0.2635,1.11108 -0.4166,1.69444 -0.1532,0.58333 -0.3198,1.12492 -0.4865,1.66665 -0.1666,0.54166 -0.3198,1.02781 -0.4719,1.47227 -0.1385,0.44448 -0.2781,0.81947 -0.375,1.12507 l -3.861,11.19441 h 11.3333 z"
      id="path1882"
      fill="#ffffff"
      fill-rule="nonzero"
      stroke="#ffffff"
      stroke-width="0.266666px"
      stroke-linecap="butt"
      stroke-linejoin="miter"
      stroke-miterlimit="10"
    />
    <path
      d="m 1134.7642,605.2824 h -24.2915 v -4.12499 l 9.3194,-10.05553 c 1.3471,-1.41663 2.5278,-2.7361 3.5833,-3.91665 1.0417,-1.16671 1.9305,-2.33333 2.6666,-3.45832 0.7365,-1.12506 1.2917,-2.26388 1.6945,-3.38888 0.3886,-1.13891 0.5834,-2.38889 0.5834,-3.70832 0,-1.04156 -0.1532,-1.95832 -0.4448,-2.75 -0.3052,-0.7777 -0.7365,-1.45827 -1.3056,-2.01388 -0.5552,-0.55562 -1.2083,-0.97229 -1.9861,-1.26386 -0.7781,-0.27771 -1.6249,-0.41667 -2.5694,-0.41667 -1.6805,0 -3.1944,0.34719 -4.5694,1.01396 -1.3612,0.68052 -2.6389,1.54166 -3.8611,2.59721 l -2.7223,-3.13886 c 0.7084,-0.6249 1.4723,-1.22221 2.2917,-1.77778 0.8198,-0.55552 1.7083,-1.02781 2.639,-1.43047 0.9166,-0.41667 1.9305,-0.73604 2.986,-0.97219 1.0417,-0.22229 2.1528,-0.34718 3.2917,-0.34718 1.7083,0 3.2499,0.24989 4.6249,0.72218 1.375,0.47219 2.5556,1.16672 3.5139,2.04167 0.9448,0.875 1.6945,1.97221 2.2223,3.24998 0.5135,1.26386 0.7916,2.70833 0.7916,4.30556 0,1.4861 -0.2364,2.93053 -0.7083,4.27776 -0.4864,1.34716 -1.125,2.69442 -1.9583,3.99998 -0.8333,1.3195 -1.8055,2.62499 -2.9583,3.95832 -1.1389,1.3195 -2.3889,2.68054 -3.7083,4.12499 l -7.4861,7.88885 v 0.22219 h 18.361 z"
      id="path1885"
      fill="#ffffff"
      fill-rule="nonzero"
      stroke="#ffffff"
      stroke-width="0.266666px"
      stroke-linecap="butt"
      stroke-linejoin="miter"
      stroke-miterlimit="10"
    />
    <path
      d="m 1152.4725,581.58803 c 1.7639,0 3.4028,0.25011 4.9167,0.73604 1.5138,0.48615 2.8333,1.19439 3.9722,2.15277 1.1251,0.94448 2,2.125 2.6389,3.54166 0.6386,1.41664 0.9583,3.04165 0.9583,4.87497 0,2.01389 -0.3052,3.81943 -0.9031,5.41665 -0.5968,1.59723 -1.5,2.95833 -2.6805,4.06944 -1.1944,1.11108 -2.6667,1.95833 -4.4166,2.54165 -1.7362,0.58334 -3.7639,0.875 -6.0279,0.875 -0.8885,0 -1.7916,-0.0281 -2.6665,-0.125 -0.875,-0.0969 -1.7223,-0.22229 -2.5417,-0.375 -0.8198,-0.16656 -1.5833,-0.38885 -2.3056,-0.6527 -0.7219,-0.27771 -1.3887,-0.56948 -1.9722,-0.91667 v -4.55554 c 0.5834,0.41666 1.2639,0.77781 2.0555,1.08341 0.7917,0.31938 1.625,0.58333 2.5,0.80552 0.875,0.20844 1.75,0.36115 2.6112,0.48615 0.875,0.125 1.6943,0.18062 2.4443,0.18062 1.4029,0 2.6667,-0.16656 3.75,-0.48614 1.0973,-0.33334 2.0417,-0.84719 2.8057,-1.52777 0.7635,-0.66656 1.347,-1.54167 1.75,-2.58334 0.4166,-1.04156 0.6114,-2.26387 0.6114,-3.68054 0,-2.54166 -0.7781,-4.44442 -2.3333,-5.77775 -1.5694,-1.34716 -3.8333,-1.98611 -6.8333,-1.98611 -0.4719,0 -0.9865,0.0281 -1.5417,0.0552 -0.5698,0.0417 -1.125,0.11156 -1.6805,0.18062 -0.5552,0.0698 -1.0972,0.15282 -1.5972,0.23604 -0.5,0.0833 -0.9448,0.15282 -1.3195,0.2223 l -2.4028,-1.49998 1.4583,-18.1805 h 18.3889 v 4.38887 h -14.1805 l -1.0282,11.05551 c 0.5698,-0.0969 1.3195,-0.22219 2.25,-0.33333 0.9167,-0.11157 2.0417,-0.2223 3.3195,-0.2223 z"
      id="path1888"
      fill="#ffffff"
      fill-rule="nonzero"
      stroke="#ffffff"
      stroke-width="0.266666px"
      stroke-linecap="butt"
      stroke-linejoin="miter"
      stroke-miterlimit="10"
    />
    <path
      d="m 1195.5002,585.92134 c 0,3.11111 -0.2365,5.90277 -0.6802,8.37499 -0.4584,2.45831 -1.1806,4.55554 -2.1944,6.26386 -1,1.69443 -2.2917,3.01387 -3.8612,3.90276 -1.5833,0.88886 -3.5,1.34717 -5.7638,1.34717 -2.0972,0 -3.9305,-0.44448 -5.4722,-1.34717 -1.5416,-0.90281 -2.8333,-2.20833 -3.8611,-3.90276 -1.0136,-1.70832 -1.7777,-3.79165 -2.2917,-6.26386 -0.5,-2.48611 -0.7635,-5.26388 -0.7635,-8.37499 0,-3.1111 0.2364,-5.91664 0.6948,-8.37495 0.4448,-2.45834 1.1667,-4.54167 2.1528,-6.24999 0.9718,-1.70833 2.2638,-3 3.8333,-3.88888 1.5695,-0.90281 3.4722,-1.36115 5.7083,-1.36115 2.1112,0 3.9584,0.44448 5.5139,1.34717 1.5555,0.88885 2.8472,2.16666 3.8888,3.87499 1.0281,1.70832 1.7917,3.77776 2.3195,6.24997 0.5135,2.47221 0.7781,5.27777 0.7781,8.40276 z m -19.9583,0 c 0,2.63889 0.1385,4.94443 0.3885,6.91665 0.2635,1.98611 0.7083,3.63887 1.2917,4.93054 0.5833,1.29167 1.3472,2.30554 2.3056,2.95833 0.9448,0.66656 2.111,0.98614 3.4722,0.98614 1.3611,0 2.5416,-0.31937 3.5,-0.97229 0.9448,-0.65281 1.736,-1.62499 2.3471,-2.93054 0.625,-1.31949 1.0695,-2.94444 1.3472,-4.93053 0.2636,-1.97223 0.4032,-4.29166 0.4032,-6.95832 0,-2.63888 -0.1386,-4.95833 -0.4032,-6.93053 -0.2781,-1.97222 -0.7218,-3.6111 -1.3472,-4.90275 -0.6114,-1.30552 -1.4028,-2.29168 -2.3471,-2.94445 -0.9584,-0.63895 -2.1389,-0.97229 -3.5,-0.97229 -1.3612,0 -2.5278,0.31938 -3.4722,0.97229 -0.9583,0.65282 -1.7223,1.62499 -2.3056,2.94445 -0.5834,1.3055 -1.0136,2.94443 -1.2917,4.90275 -0.2635,1.95833 -0.3885,4.29165 -0.3885,6.93053 z"
      id="path1891"
      fill="#ffffff"
      fill-rule="nonzero"
      stroke="#ffffff"
      stroke-width="0.266666px"
      stroke-linecap="butt"
      stroke-linejoin="miter"
      stroke-miterlimit="10"
    />
    <path
      d="m 1223.7501,566.67141 h 5.2916 l -13.0277,38.61099 h -4.9862 l -12.9721,-38.61099 h 5.25 l 7.8611,24.49991 c 0.5135,1.59723 0.9583,3.13888 1.3333,4.63888 0.3886,1.5 0.7084,2.87499 1.0136,4.19443 0.2781,-1.3195 0.5968,-2.69443 1.0135,-4.19443 0.4031,-1.5 0.875,-3.09722 1.4305,-4.79165 z"
      id="path1894"
      fill="#ffffff"
      fill-rule="nonzero"
      stroke="#ffffff"
      stroke-width="0.266666px"
      stroke-linecap="butt"
      stroke-linejoin="miter"
      stroke-miterlimit="10"
    />
    <path
      d="m 1019.4035,670.21274 h -4.6805 V 646.1017 c 0,-0.76386 0,-1.56944 0.014,-2.44443 0.014,-0.86114 0.028,-1.70834 0.055,-2.56944 0.028,-0.84719 0.055,-1.66665 0.083,-2.45832 0.028,-0.77771 0.028,-1.47228 0.055,-2.06945 -0.2917,0.31937 -0.5695,0.59729 -0.8056,0.83333 -0.2222,0.22229 -0.4583,0.44448 -0.7084,0.6527 -0.236,0.2223 -0.4861,0.43053 -0.7638,0.68063 -0.2639,0.2501 -0.5695,0.5 -0.9306,0.80552 l -3.9444,3.19442 -2.5694,-3.23609 10.2083,-7.90276 h 3.9861 z"
      id="path1897"
      fill="#ffffff"
      fill-rule="nonzero"
      stroke="#ffffff"
      stroke-width="0.266666px"
      stroke-linecap="butt"
      stroke-linejoin="miter"
      stroke-miterlimit="10"
    />
    <path
      d="m 1058.0145,650.85168 c 0,3.11111 -0.2365,5.90277 -0.6803,8.36109 -0.4583,2.47221 -1.1805,4.56943 -2.1944,6.26386 -1,1.70833 -2.2917,3.02777 -3.8611,3.91666 -1.5833,0.88885 -3.5,1.34717 -5.7638,1.34717 -2.0973,0 -3.9306,-0.44448 -5.4723,-1.34717 -1.5416,-0.90281 -2.8333,-2.20833 -3.8611,-3.91666 -1.0139,-1.69443 -1.7777,-3.77775 -2.2916,-6.26386 -0.5,-2.47222 -0.7639,-5.24998 -0.7639,-8.36109 0,-3.1111 0.2361,-5.91664 0.6944,-8.37497 0.4445,-2.45833 1.1667,-4.54166 2.1528,-6.24998 0.9722,-1.70834 2.2639,-2.99999 3.8333,-3.90277 1.5694,-0.88885 3.4723,-1.34717 5.7083,-1.34717 2.1111,0 3.9583,0.44448 5.5138,1.33334 1.5557,0.90281 2.8473,2.18054 3.889,3.88887 1.0281,1.70832 1.7916,3.77776 2.3194,6.24997 0.5135,2.47222 0.7781,5.27778 0.7781,8.40276 z m -19.9583,0 c 0,2.63889 0.1384,4.94443 0.3889,6.91665 0.2639,1.97222 0.6944,3.62498 1.2917,4.93054 0.5833,1.29167 1.3471,2.29166 2.3055,2.95832 0.9448,0.66657 2.1111,0.98615 3.4723,0.98615 1.3611,0 2.5416,-0.31938 3.4999,-0.97229 0.9448,-0.65281 1.7361,-1.62499 2.3473,-2.93055 0.625,-1.31949 1.0693,-2.95831 1.3471,-4.93053 0.2636,-1.97222 0.4032,-4.30554 0.4032,-6.95831 0,-2.63888 -0.1386,-4.95831 -0.4032,-6.93053 -0.2781,-1.97222 -0.7218,-3.6111 -1.3471,-4.91665 -0.6115,-1.29168 -1.4029,-2.27778 -2.3473,-2.93055 -0.9584,-0.65271 -2.1389,-0.97229 -3.4999,-0.97229 -1.3612,0 -2.5278,0.31938 -3.4723,0.97229 -0.9582,0.65281 -1.7222,1.62499 -2.3055,2.93055 -0.5973,1.31949 -1.014,2.95833 -1.2917,4.91665 -0.2639,1.95833 -0.3889,4.29165 -0.3889,6.93053 z"
      id="path1900"
      fill="#ffffff"
      fill-rule="nonzero"
      stroke="#ffffff"
      stroke-width="0.266666px"
      stroke-linecap="butt"
      stroke-linejoin="miter"
      stroke-miterlimit="10"
    />
    <path
      d="m 1088.6672,670.21274 -4.2639,-11.97219 h -14.5139 l -4.3055,11.97219 h -5.0138 l 14.3055,-38.77765 h 4.5278 l 14.3471,38.77765 z m -5.8333,-16.31939 -3.9445,-11.20831 c -0.1114,-0.30553 -0.2364,-0.69438 -0.375,-1.15273 -0.1531,-0.47219 -0.3052,-0.95833 -0.4719,-1.48611 -0.1666,-0.52782 -0.3052,-1.08326 -0.4718,-1.6389 -0.1667,-0.56948 -0.3198,-1.13889 -0.4584,-1.68055 -0.1114,0.54167 -0.2635,1.11108 -0.4166,1.69445 -0.1532,0.56948 -0.3198,1.11108 -0.4865,1.65278 -0.1666,0.54166 -0.3198,1.02781 -0.4719,1.4861 -0.1385,0.44448 -0.2781,0.81937 -0.375,1.11108 l -3.861,11.20829 h 11.3333 z"
      id="path1903"
      fill="#ffffff"
      fill-rule="nonzero"
      stroke="#ffffff"
      stroke-width="0.266666px"
      stroke-linecap="butt"
      stroke-linejoin="miter"
      stroke-miterlimit="10"
    />
    <path
      d="m 1126.8476,670.21274 h -4.6944 V 646.1017 c 0,-0.76386 0,-1.56944 0.01,-2.44443 0.01,-0.86114 0.031,-1.70834 0.052,-2.56944 0.031,-0.84719 0.052,-1.66665 0.083,-2.45832 0.031,-0.77771 0.042,-1.47228 0.073,-2.06945 -0.3053,0.31937 -0.5698,0.59729 -0.8053,0.83333 -0.2364,0.22229 -0.4583,0.44448 -0.7083,0.6527 -0.25,0.2223 -0.4864,0.43053 -0.7635,0.68063 -0.2782,0.2501 -0.5834,0.51396 -0.9584,0.83333 l -3.9443,3.19441 -2.5555,-3.25 10.1943,-7.88886 h 4.0139 z"
      id="path1906"
      fill="#ffffff"
      fill-rule="nonzero"
      stroke="#ffffff"
      stroke-width="0.266666px"
      stroke-linecap="butt"
      stroke-linejoin="miter"
      stroke-miterlimit="10"
    />
    <path
      d="m 1164.8058,670.21274 h -24.2916 v -4.12499 l 9.3333,-10.05553 c 1.3334,-1.43047 2.5139,-2.7361 3.5695,-3.91665 1.0555,-1.18056 1.9444,-2.33334 2.6805,-3.45833 0.7365,-1.12506 1.2917,-2.26387 1.6805,-3.40276 0.4032,-1.12506 0.5969,-2.375 0.5969,-3.69443 0,-1.04156 -0.1531,-1.97222 -0.4583,-2.75 -0.2917,-0.79166 -0.7365,-1.45828 -1.2917,-2.01388 -0.5552,-0.55562 -1.2222,-0.97229 -2,-1.26386 -0.7781,-0.27771 -1.6111,-0.41667 -2.5555,-0.41667 -1.6945,0 -3.2083,0.33333 -4.5695,1.01396 -1.3611,0.68062 -2.6528,1.54166 -3.875,2.59721 l -2.7083,-3.13888 c 0.7083,-0.63895 1.4723,-1.23604 2.2917,-1.79165 0.8052,-0.54167 1.6944,-1.02781 2.625,-1.43061 0.9302,-0.40271 1.9305,-0.72219 2.9861,-0.95833 1.0555,-0.2223 2.1527,-0.34719 3.3055,-0.34719 1.7084,0 3.2362,0.23604 4.625,0.70833 1.375,0.48615 2.5417,1.16672 3.5,2.05554 0.9583,0.875 1.7083,1.97222 2.2222,3.23611 0.5135,1.27784 0.7917,2.7222 0.7917,4.31943 0,1.48611 -0.2365,2.91665 -0.7084,4.27776 -0.4719,1.34717 -1.1111,2.69443 -1.9445,3.99999 -0.8333,1.30551 -1.8193,2.62499 -2.9583,3.94443 -1.1527,1.33333 -2.3888,2.69443 -3.7222,4.12499 l -7.486,7.90276 v 0.22229 h 18.361 z"
      id="path1909"
      fill="#ffffff"
      fill-rule="nonzero"
      stroke="#ffffff"
      stroke-width="0.266666px"
      stroke-linecap="butt"
      stroke-linejoin="miter"
      stroke-miterlimit="10"
    />
    <path
      d="m 1195.5002,650.85168 c 0,3.11111 -0.2365,5.90277 -0.6802,8.36109 -0.4584,2.47221 -1.1806,4.56943 -2.1944,6.26386 -1,1.70833 -2.2917,3.02777 -3.8612,3.91666 -1.5833,0.88885 -3.5,1.34717 -5.7638,1.34717 -2.0972,0 -3.9305,-0.44448 -5.4722,-1.34717 -1.5416,-0.90281 -2.8333,-2.20833 -3.8611,-3.91666 -1.0136,-1.69443 -1.7777,-3.77775 -2.2917,-6.26386 -0.5,-2.47222 -0.7635,-5.24998 -0.7635,-8.36109 0,-3.1111 0.2364,-5.91664 0.6948,-8.37497 0.4448,-2.45833 1.1667,-4.54166 2.1528,-6.24998 0.9718,-1.70834 2.2638,-2.99999 3.8333,-3.90277 1.5695,-0.88885 3.4722,-1.34717 5.7083,-1.34717 2.1112,0 3.9584,0.44448 5.5139,1.33334 1.5555,0.90281 2.8472,2.18054 3.8888,3.88887 1.0281,1.70832 1.7917,3.77776 2.3195,6.24997 0.5135,2.47222 0.7781,5.27778 0.7781,8.40276 z m -19.9583,0 c 0,2.63889 0.1385,4.94443 0.3885,6.91665 0.2635,1.97222 0.7083,3.62498 1.2917,4.93054 0.5833,1.29167 1.3472,2.29166 2.3056,2.95832 0.9448,0.66657 2.111,0.98615 3.4722,0.98615 1.3611,0 2.5416,-0.31938 3.5,-0.97229 0.9448,-0.65281 1.736,-1.62499 2.3471,-2.93055 0.625,-1.31949 1.0695,-2.95831 1.3472,-4.93053 0.2636,-1.97222 0.4032,-4.30554 0.4032,-6.95831 0,-2.63888 -0.1386,-4.95831 -0.4032,-6.93053 -0.2781,-1.97222 -0.7218,-3.6111 -1.3472,-4.91665 -0.6114,-1.29168 -1.4028,-2.27778 -2.3471,-2.93055 -0.9584,-0.65271 -2.1389,-0.97229 -3.5,-0.97229 -1.3612,0 -2.5278,0.31938 -3.4722,0.97229 -0.9583,0.65281 -1.7223,1.62499 -2.3056,2.93055 -0.5834,1.31949 -1.0136,2.95833 -1.2917,4.91665 -0.2635,1.95833 -0.3885,4.29165 -0.3885,6.93053 z"
      id="path1912"
      fill="#ffffff"
      fill-rule="nonzero"
      stroke="#ffffff"
      stroke-width="0.266666px"
      stroke-linecap="butt"
      stroke-linejoin="miter"
      stroke-miterlimit="10"
    />
    <path
      d="m 1223.7501,631.58786 h 5.2916 l -13.0277,38.61098 h -4.9862 l -12.9721,-38.61098 h 5.25 l 7.8611,24.49992 c 0.5135,1.58332 0.9583,3.12499 1.3333,4.63886 0.3886,1.5 0.7084,2.87499 1.0136,4.18056 0.2781,-1.30551 0.5968,-2.68056 1.0135,-4.18056 0.4031,-1.51387 0.875,-3.0972 1.4305,-4.79164 z"
      id="path1915"
      fill="#ffffff"
      fill-rule="nonzero"
      stroke="#ffffff"
      stroke-width="0.266666px"
      stroke-linecap="butt"
      stroke-linejoin="miter"
      stroke-miterlimit="10"
    />
    <path
      d="m 1014.9869,711.46259 c 1.7639,0 3.4027,0.23604 4.9166,0.72218 1.5139,0.48615 2.8333,1.20837 3.9722,2.15277 1.1251,0.94448 2,2.12499 2.6389,3.54166 0.639,1.43047 0.9583,3.04165 0.9583,4.88887 0,1.99998 -0.3055,3.81943 -0.9028,5.40275 -0.5973,1.59722 -1.5,2.97222 -2.6805,4.08332 -1.1944,1.09725 -2.6667,1.95832 -4.4167,2.54167 -1.7361,0.58333 -3.7638,0.87499 -6.0277,0.87499 -0.8889,0 -1.7917,-0.0417 -2.6667,-0.13833 -0.875,-0.0833 -1.7222,-0.20844 -2.5416,-0.375 -0.8194,-0.16656 -1.5834,-0.375 -2.3056,-0.65271 -0.7222,-0.26385 -1.3889,-0.55562 -1.9722,-0.91666 v -4.54165 c 0.5832,0.40281 1.2639,0.76385 2.0555,1.08342 0.7917,0.30552 1.625,0.58322 2.5001,0.79166 0.875,0.22219 1.7499,0.375 2.611,0.48615 0.875,0.125 1.6945,0.18062 2.4445,0.18062 1.4028,0 2.6666,-0.16667 3.75,-0.48614 1.0972,-0.31938 2.0416,-0.83334 2.8055,-1.5139 0.7639,-0.68052 1.3472,-1.54165 1.75,-2.58333 0.4167,-1.04166 0.6111,-2.27776 0.6111,-3.69443 0,-2.52775 -0.7777,-4.43054 -2.3472,-5.77775 -1.5555,-1.33332 -3.8194,-1.98611 -6.8194,-1.98611 -0.4722,0 -0.9861,0.0281 -1.5417,0.0698 -0.5694,0.0417 -1.125,0.0833 -1.6805,0.15281 -0.5556,0.0552 -1.0973,0.13834 -1.5972,0.22219 -0.5,0.0833 -0.9445,0.16667 -1.3195,0.23604 l -2.4028,-1.51389 1.4583,-18.18048 h 18.3888 v 4.38887 h -14.1664 l -1.0278,11.06941 c 0.5694,-0.11157 1.3195,-0.23605 2.25,-0.34719 0.9166,-0.0969 2.0277,-0.18063 3.3055,-0.18063 z"
      id="path1918"
      fill="#ffffff"
      fill-rule="nonzero"
      stroke="#ffffff"
      stroke-width="0.306667px"
      stroke-linecap="butt"
      stroke-linejoin="miter"
      stroke-miterlimit="10"
    />
    <path
      d="m 1058.0145,715.78202 c 0,3.1111 -0.2365,5.91664 -0.6803,8.37497 -0.4583,2.45833 -1.1805,4.55554 -2.1944,6.26386 -1,1.70835 -2.2917,3.01389 -3.8611,3.91665 -1.5833,0.88886 -3.5,1.34717 -5.7638,1.34717 -2.0973,0 -3.9306,-0.44448 -5.4723,-1.34717 -1.5416,-0.91666 -2.8333,-2.2083 -3.8611,-3.91665 -1.0139,-1.70832 -1.7777,-3.79164 -2.2916,-6.26386 -0.5,-2.4722 -0.7639,-5.26387 -0.7639,-8.37497 0,-3.11109 0.2361,-5.90276 0.6944,-8.37497 0.4445,-2.45833 1.1667,-4.54166 2.1528,-6.23608 0.9722,-1.70834 2.2639,-3.01389 3.8333,-3.90278 1.5694,-0.88885 3.4723,-1.34716 5.7083,-1.34716 2.1111,0 3.9583,0.44448 5.5138,1.33333 1.5557,0.88885 2.8473,2.18056 3.889,3.88888 1.0281,1.69443 1.7916,3.76387 2.3194,6.23608 0.5135,2.48611 0.7781,5.27777 0.7781,8.40276 z m -19.9583,0 c 0,2.63888 0.1384,4.95832 0.3889,6.93054 0.2639,1.9722 0.6944,3.62498 1.2917,4.91664 0.5833,1.30551 1.3471,2.30554 2.3055,2.97221 0.9448,0.6527 2.1111,0.98614 3.4723,0.98614 1.3611,0 2.5416,-0.31937 3.4999,-0.97218 0.9448,-0.65271 1.7361,-1.62498 2.3473,-2.94444 0.625,-1.30551 1.0693,-2.94443 1.3471,-4.91663 0.2636,-1.97222 0.4032,-4.30556 0.4032,-6.97221 0,-2.63889 -0.1386,-4.94443 -0.4032,-6.91664 -0.2781,-1.98611 -0.7218,-3.61109 -1.3471,-4.91665 -0.6115,-1.29168 -1.4029,-2.27777 -2.3473,-2.93054 -0.9584,-0.65281 -2.1389,-0.97229 -3.4999,-0.97229 -1.3612,0 -2.5278,0.31937 -3.4723,0.97229 -0.9582,0.65271 -1.7222,1.62499 -2.3055,2.93054 -0.5973,1.31949 -1.014,2.94443 -1.2917,4.91665 -0.2639,1.95832 -0.3889,4.27775 -0.3889,6.91664 z"
      id="path1921"
      fill="#ffffff"
      fill-rule="nonzero"
      stroke="#ffffff"
      stroke-width="0.306667px"
      stroke-linecap="butt"
      stroke-linejoin="miter"
      stroke-miterlimit="10"
    />
    <path
      d="m 1080.3616,696.51819 -14.4999,38.62488 h -4.75 l 14.4999,-38.62488 z"
      id="path1924"
      fill="#ffffff"
      fill-rule="nonzero"
      stroke="#ffffff"
      stroke-width="0.306667px"
      stroke-linecap="butt"
      stroke-linejoin="miter"
      stroke-miterlimit="10"
    />
    <path
      d="m 1083.9311,718.64311 c 0,-1.86109 0.083,-3.68053 0.2781,-5.52775 0.1948,-1.83333 0.5281,-3.59721 0.9865,-5.26387 0.4583,-1.68055 1.111,-3.24999 1.9305,-4.69443 0.8198,-1.45828 1.8611,-2.69443 3.125,-3.76387 1.2779,-1.06944 2.7778,-1.90278 4.5278,-2.51388 1.7638,-0.61115 3.8194,-0.90281 6.1805,-0.90281 0.3469,0 0.7083,0.0135 1.1251,0.0281 0.4031,0 0.8198,0.0417 1.236,0.0833 0.4302,0.0417 0.8198,0.0969 1.2084,0.16657 0.375,0.0698 0.7218,0.13833 1.0135,0.22229 v 4.09721 c -0.6115,-0.20823 -1.3195,-0.36104 -2.0972,-0.47219 -0.7781,-0.0969 -1.5556,-0.15281 -2.3195,-0.15281 -1.5971,0 -3,0.18063 -4.2221,0.56948 -1.2363,0.375 -2.2778,0.90281 -3.1528,1.59724 -0.875,0.68062 -1.6389,1.49997 -2.2222,2.45832 -0.5969,0.95833 -1.0833,1.99998 -1.4445,3.15276 -0.375,1.15274 -0.6531,2.37499 -0.8333,3.68055 -0.1948,1.29167 -0.2917,2.65276 -0.3469,4.06942 h 0.3198 c 0.3469,-0.63896 0.7916,-1.23604 1.2916,-1.79166 0.5,-0.55562 1.1111,-1.02781 1.7779,-1.41663 0.6666,-0.38885 1.4306,-0.72219 2.2777,-0.93052 0.8468,-0.22229 1.7778,-0.34719 2.8333,-0.34719 1.6945,0 3.2222,0.27771 4.5833,0.79167 1.3612,0.51396 2.5417,1.27784 3.4862,2.27778 0.9583,1 1.7083,2.2361 2.2221,3.68053 0.5282,1.45829 0.7917,3.11111 0.7917,4.9861 0,1.99999 -0.2635,3.80554 -0.8333,5.40277 -0.5552,1.59722 -1.3334,2.97221 -2.3611,4.08331 -1.0416,1.12507 -2.2778,1.98611 -3.7361,2.56944 -1.4445,0.59729 -3.0833,0.90281 -4.8889,0.90281 -1.7778,0 -3.4444,-0.34719 -4.9999,-1.02781 -1.5417,-0.69437 -2.889,-1.73611 -4.0279,-3.13888 -1.1527,-1.4028 -2.0416,-3.18055 -2.6943,-5.31942 -0.6531,-2.13889 -1.0136,-4.65277 -1.0136,-7.55554 z m 12.6528,12.99997 c 1.0555,0 2.0277,-0.19437 2.9166,-0.54166 0.8886,-0.34719 1.6389,-0.90281 2.2777,-1.63889 0.6386,-0.73604 1.139,-1.65276 1.4723,-2.77777 0.3469,-1.12492 0.5136,-2.44443 0.5136,-3.9722 0,-1.23619 -0.1386,-2.34723 -0.4302,-3.31945 -0.2917,-0.97218 -0.7365,-1.80555 -1.3195,-2.49998 -0.5834,-0.68063 -1.3334,-1.20838 -2.1945,-1.58333 -0.875,-0.36115 -1.9167,-0.55563 -3.0833,-0.55563 -1.1944,0 -2.2778,0.22219 -3.2639,0.6249 -0.9864,0.40281 -1.8333,0.94448 -2.5278,1.6111 -0.6948,0.66656 -1.2222,1.4028 -1.6111,2.26389 -0.375,0.84719 -0.5698,1.68055 -0.5698,2.54165 0,1.16673 0.1667,2.34722 0.5,3.52777 0.3198,1.18056 0.8052,2.22221 1.4583,3.15277 0.6386,0.93052 1.4583,1.69443 2.4305,2.27777 0.9865,0.59729 2.139,0.88885 3.4307,0.88885 z"
      id="path1927"
      fill="#ffffff"
      fill-rule="nonzero"
      stroke="#ffffff"
      stroke-width="0.306667px"
      stroke-linecap="butt"
      stroke-linejoin="miter"
      stroke-miterlimit="10"
    />
    <path
      d="m 1138.4725,715.78202 c 0,3.1111 -0.2364,5.91664 -0.6802,8.37497 -0.4583,2.45833 -1.1806,4.55554 -2.1806,6.26386 -1.0135,1.70835 -2.2916,3.01389 -3.875,3.91665 -1.5833,0.88886 -3.5,1.34717 -5.7638,1.34717 -2.0972,0 -3.9305,-0.44448 -5.4722,-1.34717 -1.5417,-0.91666 -2.8333,-2.2083 -3.8611,-3.91665 -1.0136,-1.70832 -1.7777,-3.79164 -2.2777,-6.26386 -0.5136,-2.4722 -0.7636,-5.26387 -0.7636,-8.37497 0,-3.11109 0.2219,-5.90276 0.6802,-8.37497 0.4448,-2.45833 1.1667,-4.54166 2.1528,-6.23608 0.9719,-1.70834 2.2639,-3.01389 3.8333,-3.90278 1.5694,-0.88885 3.4722,-1.34716 5.7083,-1.34716 2.1111,0 3.9583,0.44448 5.5139,1.33333 1.5555,0.88885 2.8472,2.18056 3.8889,3.88888 1.0281,1.69443 1.7916,3.76387 2.3195,6.23608 0.5135,2.48611 0.7781,5.27777 0.7781,8.40276 z m -19.9581,0 c 0,2.63888 0.1385,4.95832 0.3885,6.93054 0.2635,1.9722 0.7083,3.62498 1.2917,4.91664 0.5833,1.30551 1.347,2.30554 2.3055,2.97221 0.9448,0.6527 2.1111,0.98614 3.4722,0.98614 1.3611,0 2.5416,-0.31937 3.5,-0.97218 0.9447,-0.65271 1.7361,-1.62498 2.3472,-2.94444 0.625,-1.30551 1.0694,-2.94443 1.3471,-4.91663 0.2636,-1.97222 0.4031,-4.30556 0.4031,-6.97221 0,-2.63889 -0.1385,-4.94443 -0.4031,-6.91664 -0.2781,-1.98611 -0.7219,-3.61109 -1.3471,-4.91665 -0.6114,-1.29168 -1.4028,-2.27777 -2.3472,-2.93054 -0.9584,-0.65281 -2.1389,-0.97229 -3.5,-0.97229 -1.3612,0 -2.5277,0.31937 -3.4722,0.97229 -0.9584,0.65271 -1.7222,1.62499 -2.3055,2.93054 -0.5834,1.31949 -1.0136,2.94443 -1.2917,4.91665 -0.2635,1.95832 -0.3885,4.27775 -0.3885,6.91664 z"
      id="path1930"
      fill="#ffffff"
      fill-rule="nonzero"
      stroke="#ffffff"
      stroke-width="0.306667px"
      stroke-linecap="butt"
      stroke-linejoin="miter"
      stroke-miterlimit="10"
    />
    <path
      d="m 1173.9725,735.15695 h -4.9445 v -18.01381 h -17.75 v 18.01381 h -4.9583 v -38.62486 h 4.9583 v 16.27772 h 17.75 v -16.27772 h 4.9445 z"
      id="path1933"
      fill="#ffffff"
      fill-rule="nonzero"
      stroke="#ffffff"
      stroke-width="0.306667px"
      stroke-linecap="butt"
      stroke-linejoin="miter"
      stroke-miterlimit="10"
    />
    <path
      d="m 1201.139,735.15695 h -19.6805 v -3.30553 l 14.2778,-22.08328 h -13.3888 v -3.62497 h 18.3332 v 3.84721 l -13.9583,21.54159 h 14.4444 v 3.62498 z"
      id="path1936"
      fill="#ffffff"
      fill-rule="nonzero"
      stroke="#ffffff"
      stroke-width="0.306667px"
      stroke-linecap="butt"
      stroke-linejoin="miter"
      stroke-miterlimit="10"
    />
    <text
      x="1060.2705"
      y="309.98892"
      id="text1939"
      transform="scale(0.95465247,1.0475016)"
      font-size="64.9316"
      font-family="'Droid Sans'"
      fill="#ffffff"
      stroke="#ffffff"
      stroke-width="0.249103px"
      stroke-linecap="butt"
      stroke-linejoin="miter"
      stroke-miterlimit="10">JQC-3F - T73 - DC5VDC</text>
    <text
      x="223.11813"
      y="-24.298054"
      id="text1942"
      transform="matrix(0,1.0042279,-0.99578988,0,0,0)"
      font-weight="500"
      font-size="55.3194"
      font-family="OCRA"
      fill="#ffffff"
      stroke-width="1.33333">DC+</text>
    <text
      x="383.29071"
      y="98.741478"
      id="text1946"
      transform="scale(1.0042279,0.99578988)"
      font-weight="500"
      font-size="55.3194"
      font-family="OCRA"
      fill="#ffffff"
      stroke-width="1.33333">H</text>
    <text
      x="661.22308"
      y="98.741478"
      id="text1950"
      transform="scale(1.0042279,0.99578988)"
      font-weight="500"
      font-size="55.3194"
      font-family="OCRA"
      fill="#ffffff"
      stroke-width="1.33333">L</text>
    <text
      x="424.54364"
      y="-20.385763"
      id="text1954"
      transform="matrix(0,1.0042279,-0.99578988,0,0,0)"
      font-weight="500"
      font-size="55.3194"
      font-family="OCRA"
      fill="#ffffff"
      stroke-width="1.33333">DC-</text>
    <text
      x="-553.00018"
      y="1958.9103"
      id="text1958"
      transform="matrix(0,-1.0042279,0.99578988,0,0,0)"
      font-weight="500"
      font-size="55.3194"
      font-family="OCRA"
      fill="#ffffff"
      stroke-width="1.33333">COM</text>
    <text
      x="-335.94629"
      y="1958.9103"
      id="text1962"
      transform="matrix(0,-1.0042279,0.99578988,0,0,0)"
      font-weight="500"
      font-size="55.3194"
      font-family="OCRA"
      fill="#ffffff"
      stroke-width="1.33333">NC</text>
    <text
      x="-723.87433"
      y="1961.1278"
      id="text1966"
      transform="matrix(0,-1.0042279,0.99578988,0,0,0)"
      font-weight="500"
      font-size="55.3194"
      font-family="OCRA"
      fill="#ffffff"
      stroke-width="1.33333">NO</text>
    <text
      x="635.40149"
      y="-23.092987"
      id="text1970"
      transform="matrix(0,1.0042279,-0.99578988,0,0,0)"
      font-weight="500"
      font-size="55.3194"
      font-family="OCRA"
      fill="#ffffff"
      stroke-width="1.33333">IN</text>
    <path
      d="M 1279.986,564.71308 V 735.7264"
      id="path1974"
      fill="none"
      fill-rule="nonzero"
      stroke="#ffffff"
      stroke-width="1.04px"
      stroke-linecap="butt"
      stroke-linejoin="miter"
      stroke-miterlimit="10"
    />
    <rect
      x="1071.1678"
      y="705.03638"
      width="31.19644"
      height="30.678011"
      id="rect1977"
      fill="none"
      stroke-width="0.46195"
    />
    <rect
      x="1071.1678"
      y="244.90913"
      width="31.19644"
      height="30.678011"
      id="rect1980"
      fill="none"
      stroke-width="0.46195"
    />
    <rect
      x="999.03589"
      y="467.29971"
      width="19.492315"
      height="46.014633"
      id="rect1983"
      fill="none"
      stroke-width="0.46195"
    />
    <rect
      x="1531.2435"
      y="250.67349"
      width="46.767963"
      height="19.16839"
      id="rect1986"
      fill="none"
      stroke-width="0.46195"
    />
    <rect
      x="1531.2435"
      y="710.77209"
      width="46.767963"
      height="19.182705"
      id="rect1989"
      fill="none"
      stroke-width="0.46195"
    />
    <rect
      x="1732.276"
      y="196.85323"
      width="157.48558"
      height="590.55353"
      id="rect1992"
      fill="#0000ff"
      stroke-width="1.33333"
    />
    <circle
      cx="1745.6113"
      cy="-566.23975"
      r="59.055359"
      id="circle1995"
      transform="rotate(27.303514)"
      fill="#ececec"
      stroke-width="1.33333"
    />
    <rect
      x="1167.449"
      y="-1372.233"
      width="118.11072"
      height="13.472178"
      id="rect1998"
      transform="rotate(57.381969)"
      fill="#999999"
      stroke-width="1.33333"
    />
    <rect
      x="-1414.0587"
      y="-1244.8169"
      width="118.11072"
      height="13.472178"
      id="rect2001"
      transform="rotate(146.89467)"
      fill="#999999"
      stroke-width="1.33333"
    />
    <circle
      cx="1835.2769"
      cy="-396.07919"
      r="59.055359"
      id="circle2004"
      transform="rotate(27.303514)"
      fill="#ececec"
      stroke-width="1.33333"
    />
    <rect
      x="1330.3219"
      y="-1269.9252"
      width="118.11072"
      height="13.472178"
      id="rect2007"
      transform="rotate(57.381969)"
      fill="#999999"
      stroke-width="1.33333"
    />
    <rect
      x="-1338.0802"
      y="-1381.5436"
      width="118.11072"
      height="13.472178"
      id="rect2010"
      transform="rotate(148.03839)"
      fill="#999999"
      stroke-width="1.33333"
    />
    <circle
      cx="1920.5601"
      cy="-229.90849"
      r="59.055359"
      id="circle2013"
      transform="rotate(27.303514)"
      fill="#ececec"
      stroke-width="1.33333"
    />
    <rect
      x="1487.403"
      y="-1168.8735"
      width="118.11072"
      height="13.472178"
      id="rect2016"
      transform="rotate(57.381969)"
      fill="#999999"
      stroke-width="1.33333"
    />
    <rect
      x="-1199.4924"
      y="-1569.2693"
      width="118.11072"
      height="13.472178"
      id="rect2019"
      transform="rotate(146.58229)"
      fill="#999999"
      stroke-width="1.33333"
    />
    <rect
      x="84.502525"
      y="193.96432"
      width="157.48558"
      height="590.55353"
      id="rect2022"
      fill="#0000ff"
      stroke-width="1.33333"
    />
    <circle
      cx="280.0878"
      cy="187.03656"
      r="59.055359"
      id="circle2025"
      transform="rotate(27.303514)"
      fill="#ececec"
      stroke-width="1.33333"
    />
    <rect
      x="276.80338"
      y="14.105508"
      width="118.11072"
      height="13.472178"
      id="rect2028"
      transform="rotate(57.381969)"
      fill="#999999"
      stroke-width="1.33333"
    />
    <rect
      x="-30.288401"
      y="-342.29587"
      width="118.11072"
      height="13.472178"
      id="rect2031"
      transform="rotate(146.13802)"
      fill="#999999"
      stroke-width="1.33333"
    />
    <circle
      cx="369.75311"
      cy="357.19717"
      r="59.055359"
      id="circle2034"
      transform="rotate(27.303514)"
      fill="#ececec"
      stroke-width="1.33333"
    />
    <rect
      x="439.6763"
      y="116.41339"
      width="118.11072"
      height="13.472178"
      id="rect2037"
      transform="rotate(57.381969)"
      fill="#999999"
      stroke-width="1.33333"
    />
    <rect
      x="55.821613"
      y="-507.44003"
      width="118.11072"
      height="13.472178"
      id="rect2040"
      transform="rotate(148.33075)"
      fill="#999999"
      stroke-width="1.33333"
    />
    <circle
      cx="455.03613"
      cy="523.36792"
      r="59.055359"
      id="circle2043"
      transform="rotate(27.303514)"
      fill="#ececec"
      stroke-width="1.33333"
    />
    <rect
      x="596.75739"
      y="217.46504"
      width="118.11072"
      height="13.472178"
      id="rect2046"
      transform="rotate(57.381969)"
      fill="#999999"
      stroke-width="1.33333"
    />
    <rect
      x="155.35822"
      y="-665.81519"
      width="118.11072"
      height="13.472178"
      id="rect2049"
      transform="rotate(148.23538)"
      fill="#999999"
      stroke-width="1.33333"
    />
    <rect
      x="-468.92532"
      y="524.57111"
      width="140.60831"
      height="61.09288"
      id="rect2052"
      transform="rotate(-90)"
      stroke-width="1.10977"
    />
    <rect
      x="-468.92532"
      y="524.57111"
      width="35.155182"
      height="61.09288"
      id="rect2055"
      transform="rotate(-90)"
      fill="#999999"
      stroke-width="1.10977"
    />
    <rect
      x="-363.47217"
      y="524.57111"
      width="35.155182"
      height="61.09288"
      id="rect2058"
      transform="rotate(-90)"
      fill="#999999"
      stroke-width="1.10977"
    />
    <rect
      x="515.74829"
      y="319.89444"
      width="78.735855"
      height="157.48558"
      id="rect2061"
      fill="none"
      stroke="#fffcfc"
      stroke-width="1.14668px"
      stroke-linecap="butt"
      stroke-linejoin="miter"
      stroke-miterlimit="4"
    />
    <rect
      x="-705.51459"
      y="359.60779"
      width="141.33607"
      height="60.311264"
      id="rect2064"
      transform="rotate(-90)"
      stroke-width="1.1055"
    />
    <rect
      x="-705.51459"
      y="359.60779"
      width="35.337132"
      height="60.311264"
      id="rect2067"
      transform="rotate(-90)"
      fill="#999999"
      stroke-width="1.1055"
    />
    <rect
      x="-599.51569"
      y="359.60779"
      width="35.337132"
      height="60.311264"
      id="rect2070"
      transform="rotate(-90)"
      fill="#999999"
      stroke-width="1.1055"
    />
    <rect
      x="350.39465"
      y="556.11591"
      width="78.735855"
      height="157.48558"
      id="rect2073"
      fill="none"
      stroke="#fffcfc"
      stroke-width="1.14668px"
      stroke-linecap="butt"
      stroke-linejoin="miter"
      stroke-miterlimit="4"
    />
    <rect
      x="-173.07552"
      y="204.72571"
      width="145.67416"
      height="70.862267"
      id="rect2076"
      transform="rotate(-90)"
      stroke-width="1.21655"
    />
    <rect
      x="-173.07552"
      y="204.72571"
      width="36.421753"
      height="70.862267"
      id="rect2079"
      transform="rotate(-90)"
      fill="#999999"
      stroke-width="1.21655"
    />
    <rect
      x="-63.82309"
      y="204.72571"
      width="36.421753"
      height="70.862267"
      id="rect2082"
      transform="rotate(-90)"
      fill="#999999"
      stroke-width="1.21655"
    />
    <rect
      x="200.78918"
      y="23.464901"
      width="78.735855"
      height="157.48558"
      id="rect2085"
      fill="none"
      stroke="#fffcfc"
      stroke-width="1.14668px"
      stroke-linecap="butt"
      stroke-linejoin="miter"
      stroke-miterlimit="4"
    />
    <rect
      x="-468.92532"
      y="682.229"
      width="140.60831"
      height="60.735733"
      id="rect2088"
      transform="rotate(-90)"
      stroke-width="1.10652"
    />
    <rect
      x="-468.92532"
      y="682.229"
      width="35.155182"
      height="60.735733"
      id="rect2091"
      transform="rotate(-90)"
      fill="#999999"
      stroke-width="1.10652"
    />
    <rect
      x="-363.47217"
      y="682.229"
      width="35.155182"
      height="60.735733"
      id="rect2094"
      transform="rotate(-90)"
      fill="#999999"
      stroke-width="1.10652"
    />
    <rect
      x="673.22833"
      y="319.89444"
      width="78.735855"
      height="157.48558"
      id="rect2097"
      fill="none"
      stroke="#fffcfc"
      stroke-width="1.14668px"
      stroke-linecap="butt"
      stroke-linejoin="miter"
      stroke-miterlimit="4"
    />
    <rect
      x="599.40881"
      y="838.66541"
      width="138.49959"
      height="62.834435"
      id="rect2100"
      stroke-width="1.117"
    />
    <rect
      x="599.40881"
      y="838.66541"
      width="34.627953"
      height="62.834435"
      id="rect2103"
      fill="#999999"
      stroke-width="1.117"
    />
    <rect
      x="703.28052"
      y="838.66541"
      width="34.627953"
      height="62.834435"
      id="rect2106"
      fill="#999999"
      stroke-width="1.117"
    />
    <rect
      x="830.71228"
      y="-749.01135"
      width="78.735855"
      height="157.48558"
      id="rect2109"
      transform="rotate(90)"
      fill="none"
      stroke="#fffcfc"
      stroke-width="1.14668px"
      stroke-linecap="butt"
      stroke-linejoin="miter"
      stroke-miterlimit="4"
    />
    <use
      xlink:href="#_Image3"
      x="44.028"
      y="45.554001"
      width="3.2809999"
      height="5.2420001"
      transform="matrix(12.203267,0,0,12.99773,-6.5305286,-13.92386)"
      id="use2112"
      stroke-width="0.0960002"
    />
    <rect
      x="530.75793"
      y="656.16193"
      width="48.807892"
      height="31.700584"
      id="rect2115"
      stroke-width="1.42809"
    />
    <rect
      x="-705.70209"
      y="530.76123"
      width="17.845091"
      height="48.809608"
      id="rect2119"
      transform="rotate(-90)"
      fill="#999999"
      stroke-width="0.774635"
    />
    <rect
      x="-578.18054"
      y="530.76123"
      width="18.134127"
      height="48.809608"
      id="rect2122"
      transform="rotate(-90)"
      fill="#999999"
      stroke-width="0.780884"
    />
    <rect
      x="515.74963"
      y="556.10205"
      width="78.735855"
      height="157.48558"
      id="rect2125"
      fill="none"
      stroke="#fffcfc"
      stroke-width="1.14668px"
      stroke-linecap="butt"
      stroke-linejoin="miter"
      stroke-miterlimit="4"
    />
    <rect
      x="698.42596"
      y="604.27484"
      width="123.29482"
      height="74.858253"
      id="rect2128"
      fill="none"
      stroke="#fffcfc"
      stroke-width="0.989287px"
      stroke-linecap="butt"
      stroke-linejoin="miter"
      stroke-miterlimit="4"
    />
    <rect
      x="-467.56754"
      y="359.96207"
      width="137.07056"
      height="59.030014"
      id="rect2131"
      transform="rotate(-90)"
      fill="#ffff00"
      stroke-width="1.18049"
    />
    <rect
      x="-467.56754"
      y="359.96207"
      width="34.267639"
      height="59.030014"
      id="rect2134"
      transform="rotate(-90)"
      fill="#999999"
      stroke-width="1.18049"
    />
    <rect
      x="-364.76459"
      y="359.96207"
      width="34.267639"
      height="59.030014"
      id="rect2137"
      transform="rotate(-90)"
      fill="#999999"
      stroke-width="1.18049"
    />
    <rect
      x="350.39465"
      y="319.89444"
      width="78.735855"
      height="157.48558"
      id="rect2140"
      fill="none"
      stroke="#fffcfc"
      stroke-width="1.14668px"
      stroke-linecap="butt"
      stroke-linejoin="miter"
      stroke-miterlimit="4"
    />
    <rect
      x="363.74753"
      y="838.66766"
      width="140.62437"
      height="62.833187"
      id="rect2143"
      fill="#ffff00"
      stroke-width="1.23362"
    />
    <rect
      x="363.74753"
      y="838.66766"
      width="35.156094"
      height="62.833187"
      id="rect2146"
      fill="#999999"
      stroke-width="1.23362"
    />
    <rect
      x="469.21582"
      y="838.66766"
      width="35.156094"
      height="62.833187"
      id="rect2149"
      fill="#999999"
      stroke-width="1.23362"
    />
    <rect
      x="830.71228"
      y="-512.79132"
      width="78.735855"
      height="157.48558"
      id="rect2152"
      transform="rotate(90)"
      fill="none"
      stroke="#fffcfc"
      stroke-width="1.14668px"
      stroke-linecap="butt"
      stroke-linejoin="miter"
      stroke-miterlimit="4"
    />
    <rect
      x="708.66711"
      y="618.11566"
      width="102.36077"
      height="51.180386"
      id="rect2155"
      stroke-width="1.33333"
    />
    <rect
      x="712.61151"
      y="578.74084"
      width="23.62492"
      height="39.374866"
      id="rect2158"
      fill="#999999"
      stroke-width="1.33333"
    />
    <rect
      x="784.62518"
      y="578.74084"
      width="23.62492"
      height="39.374866"
      id="rect2161"
      fill="#999999"
      stroke-width="1.33333"
    />
    <rect
      x="748.04205"
      y="669.29608"
      width="23.62492"
      height="39.374866"
      id="rect2164"
      fill="#999999"
      stroke-width="1.33333"
    />
    <rect
      x="164.54776"
      y="-592.51465"
      width="102.36077"
      height="94.485786"
      id="rect2167"
      transform="rotate(90)"
      stroke-width="1.33333"
    />
    <rect
      x="170.45053"
      y="-629.9173"
      width="23.62492"
      height="39.374866"
      id="rect2170"
      transform="rotate(90)"
      fill="#999999"
      stroke-width="1.33333"
    />
    <rect
      x="236.22809"
      y="-629.9173"
      width="23.62492"
      height="39.374866"
      id="rect2173"
      transform="rotate(90)"
      fill="#999999"
      stroke-width="1.33333"
    />
    <rect
      x="233.43645"
      y="-498.86224"
      width="23.62492"
      height="39.374866"
      id="rect2176"
      transform="rotate(90)"
      fill="#999999"
      stroke-width="1.33333"
    />
    <rect
      x="173.2422"
      y="-498.86224"
      width="23.62492"
      height="39.374866"
      id="rect2179"
      transform="rotate(90)"
      fill="#999999"
      stroke-width="1.33333"
    />
    <rect
      x="451.6124"
      y="39.381516"
      width="196.84657"
      height="78.735855"
      id="rect2182"
      stroke-width="1.33333"
    />
    <rect
      x="594.48688"
      y="60.214779"
      width="35.430439"
      height="35.430439"
      id="rect2185"
      fill="#ffcc00"
      stroke-width="1.33333"
    />
    <rect
      x="530.34821"
      y="57.909233"
      width="39.374866"
      height="39.374866"
      id="rect2188"
      fill="#ffcc00"
      stroke-width="1.33333"
    />
    <rect
      x="472.44565"
      y="57.909233"
      width="39.374866"
      height="39.374866"
      id="rect2191"
      fill="#ffcc00"
      stroke-width="1.33333"
    />
    <rect
      x="463.26099"
      y="49.752361"
      width="115.26869"
      height="56.187237"
      id="rect2194"
      fill="none"
      stroke="#fbff31"
      stroke-width="1.41106px"
      stroke-linecap="butt"
      stroke-miterlimit="2"
    />
    <rect
      x="471.29288"
      y="55.117573"
      width="90.555244"
      height="47.24984"
      id="rect2197"
      fill="none"
      stroke-width="1.33333"
    />
    <text
      x="786.15826"
      y="78.72673"
      id="text2200"
      transform="scale(1.0042279,0.99578988)"
      font-weight="500"
      font-size="55.3194"
      font-family="OCRA"
      fill="#ffffff"
      stroke-width="1.33333">1 relay module</text>
    <text
      x="786.15826"
      y="147.87875"
      id="text2204"
      transform="scale(1.0042279,0.99578988)"
      font-weight="500"
      font-size="55.3194"
      font-family="OCRA"
      fill="#ffffff"
      stroke-width="1.33333">High/Low Level Trigger</text>
    <text
      x="195.57112"
      y="894.10132"
      id="text2208"
      transform="scale(1.0042279,0.99578988)"
      font-weight="500"
      font-size="55.3194"
      font-family="OCRA"
      fill="#ffffff"
      stroke-width="1.33333">PWR</text>
    <rect
      x="530.758"
      y="578.19122"
      width="48.807899"
      height="109.67975"
      id="rect2212"
      fill="none"
      stroke="#000000"
      stroke-width="0.135494px"
    />
    <ellipse
      cx="515.73328"
      cy="248.76999"
      rx="7.2296963"
      ry="7.6313467"
      id="ellipse2216"
      fill="#5f5e5e"
      stroke="#000000"
      stroke-width="0.142809px"
    />
    <text
      x="723.83466"
      y="657.90582"
      id="text2220"
      transform="scale(1.0042258,0.99579199)"
      font-weight="500"
      font-size="31.0151"
      font-family="OCRA"
      fill="#ffffff"
      stroke-width="0.804065">2TY</text>
    <text
      x="503.36615"
      y="196.48357"
      id="text2224"
      transform="scale(1.0042261,0.9957917)"
      font-weight="500"
      font-size="27.9953"
      font-family="OCRA"
      fill="#ffffff"
      stroke-width="1.43413">LX19</text>
    <text
      x="503.36615"
      y="226.98856"
      id="text2228"
      transform="scale(1.0042261,0.9957917)"
      font-weight="500"
      font-size="27.9953"
      font-family="OCRA"
      fill="#ffffff"
      stroke-width="1.43413">3541</text>
    <text
      x="563.41998"
      y="257.50848"
      id="text2232"
      transform="scale(1.0042261,0.9957917)"
      font-weight="500"
      font-size="27.9953"
      font-family="OCRA"
      fill="#ffffff"
      stroke-width="1.43413">x</text>
    <text
      x="-427.76682"
      y="565.56506"
      id="text2238"
      transform="matrix(0,-1.0042255,0.99579227,0,0,0)"
      font-weight="500"
      font-size="21.7719"
      font-family="OCRA"
      fill="#ffffff"
      stroke-width="0.564436">1002</text>
    <text
      x="-130.63443"
      y="249.23225"
      id="text2242"
      transform="matrix(0,-1.0042255,0.99579227,0,0,0)"
      font-weight="500"
      font-size="21.7719"
      font-family="OCRA"
      fill="#ffffff"
      stroke-width="0.564436">1002</text>
    <text
      x="-664.98462"
      y="402.89078"
      id="text2246"
      transform="matrix(0,-1.0042258,0.99579199,0,0,0)"
      font-weight="500"
      font-size="31.0151"
      font-family="OCRA"
      fill="#ffffff"
      stroke-width="0.804065">222</text>
    <text
      x="-429.75723"
      y="727.08868"
      id="text2250"
      transform="matrix(0,-1.0042258,0.99579199,0,0,0)"
      font-weight="500"
      font-size="31.0151"
      font-family="OCRA"
      fill="#ffffff"
      stroke-width="0.804065">222</text>
    <text
      x="634.6452"
      y="885.23663"
      id="text2254"
      transform="scale(1.0042258,0.99579199)"
      font-weight="500"
      font-size="31.0151"
      font-family="OCRA"
      fill="#ffffff"
      stroke-width="0.804065">222</text>
    <path
      d="m 464.1113,869.61962 4.46276,-0.074 -0.0896,-4.46277 -4.46277,0.074 z"
      id="path2258"
      fill="#120a0a"
      stroke-width="1.42809"
    />
    <path
      d="m 435.5942,869.53037 h -4.46277 l 0.0146,-4.46277 h 4.46278 z"
      id="path2260"
      fill="#120a0a"
      stroke-width="1.42809"
    />
    <path
      d="m 464.95922,867.37336 c -9.98172,0.14875 -20.21634,-0.0302 -30.25757,-0.074"
      id="path2262"
      fill="none"
      stroke="#120a0a"
      stroke-width="0.142809px"
    />
    <path
      d="m 427.94983,876.17841 -2.82643,-3.45119 -3.46607,2.82641 2.82642,3.45121 z"
      id="path2268"
      fill="#120a0a"
      stroke-width="1.42809"
    />
    <path
      d="m 435.62578,883.64612 2.85618,3.42145 -3.43633,2.85618 -2.84129,-3.43634 z"
      id="path2270"
      fill="#120a0a"
      stroke-width="1.42809"
    />
    <path
      d="m 425.64406,876.90734 c 2.90081,3.22807 6.08425,5.84623 8.83628,8.85115"
      id="path2272"
      fill="none"
      stroke="#120a0a"
      stroke-width="0.142809px"
    />
    <path
      d="m 389.33342,368.42208 -0.0896,-4.46277 -4.46276,0.0896 0.0896,4.46278 z"
      id="path2278"
      fill="#120a0a"
      stroke-width="1.42809"
    />
    <path
      d="m 389.24417,396.93917 -0.0146,4.46276 -4.46276,-0.0146 0.0146,-4.46276 z"
      id="path2280"
      fill="#120a0a"
      stroke-width="1.42809"
    />
    <path
      d="m 387.08717,367.57416 c 0.14875,9.98172 -0.0448,20.21634 -0.0896,30.25757"
      id="path2282"
      fill="none"
      stroke="#120a0a"
      stroke-width="0.142809px"
    />
    <path
      d="m 395.0874,407.34964 -3.46607,2.8264 2.82641,3.45122 3.46609,-2.82643 z"
      id="path2288"
      fill="#120a0a"
      stroke-width="1.42809"
    />
    <path
      d="m 402.54022,399.6588 3.43634,-2.8413 2.85617,3.43632 -3.43633,2.84131 z"
      id="path2290"
      fill="#120a0a"
      stroke-width="1.42809"
    />
    <path
      d="m 395.80144,409.64051 c 3.22808,-2.88591 5.84623,-6.06935 8.85117,-8.83627"
      id="path2292"
      fill="none"
      stroke="#120a0a"
      stroke-width="0.142809px"
    />
    <circle
      cx="280.0878"
      cy="187.03656"
      r="59.055359"
      id="connector0pin"
      transform="rotate(27.303514)"
      fill="none"
      stroke-width="0"
    />
    <circle
      cx="369.75311"
      cy="357.19717"
      r="59.055359"
      id="connector1pin"
      transform="rotate(27.303514)"
      fill="none"
      stroke-width="0"
    />
    <circle
      cx="455.03613"
      cy="523.36792"
      r="59.055359"
      id="connector2pin"
      transform="rotate(27.303514)"
      fill="none"
      stroke-width="0"
    />
    <circle
      cx="1920.5601"
      cy="-229.90849"
      r="59.055359"
      id="connector3pin"
      transform="rotate(27.303514)"
      fill="none"
      stroke-width="0"
    />
    <circle
      cx="1835.2769"
      cy="-396.07919"
      id="connector4pin"
      transform="rotate(27.303514)"
      fill="none"
      stroke-width="0"
      r="59.055359"
    />
    <circle
      cx="1745.6113"
      cy="-566.23975"
      r="59.055359"
      id="connector5pin"
      transform="rotate(27.303514)"
      fill="none"
      stroke-width="0"
    />
  </g>
</svg>
