<?xml version='1.0' encoding='UTF-8' standalone='no'?>
<svg
  xmlns="http://www.w3.org/2000/svg"
  xmlns:svg="http://www.w3.org/2000/svg"
  xmlns:rdf="http://www.w3.org/1999/02/22-rdf-syntax-ns#"
  xmlns:cc="http://creativecommons.org/ns#"
  xmlns:dc="http://purl.org/dc/elements/1.1/"
  id="svg2"
  y="0in"
  version="1.2"
  height="7.4886055in"
  width="8.0518751in"
  x="0in"
  viewBox="0 0 8051.8746 7488.6051"
  xml:space="preserve">
  <metadata
    id="metadata24">
    <rdf:RDF>
      <cc:Work
        rdf:about="">
        <dc:format>image/svg+xml</dc:format>
        <dc:type
          rdf:resource="http://purl.org/dc/dcmitype/StillImage"
        />
      </cc:Work>
    </rdf:RDF>
  </metadata>
  <defs
    id="defs22">
  </defs>
  <desc
    id="desc4">
    <referenceFile>3phase-motor-with-hall-sensors_1_breadboard.svg</referenceFile>
  </desc>
  <g
    id="breadboard">
    <line
      y1="3716.9055"
      y2="3307.1355"
      x2="7917.7109"
      x1="6947.2002"
      id="line24"
      stroke-linejoin="round"
      stroke-linecap="round"
      stroke-width="50"
      stroke="#787878"
      fill="none"
    />
    <rect
      id="rect10"
      width="119.99999"
      height="509.99994"
      x="7926.875"
      y="3057.9998"
      fill="#f2f2f2"
      stroke="#666666"
      stroke-width="10"
    />
    <circle
      id="path1"
      cx="2540"
      cy="3773.8149"
      r="2500"
      fill="none"
      stroke="#000000"
      stroke-width="80"
    />
    <circle
      id="circle1"
      cx="2540"
      cy="3773.8149"
      r="2100"
      fill="none"
      stroke="#000000"
      stroke-width="80"
    />
    <circle
      id="circle2"
      cx="2540"
      cy="3773.8149"
      r="500"
      fill="#000000"
      stroke="none"
      stroke-width="0"
    />
    <circle
      id="circle3"
      cx="932.4928"
      cy="2125.7007"
      r="100"
      fill="#000000"
      stroke="none"
      stroke-width="0"
    />
    <circle
      id="circle4"
      cx="928.07947"
      cy="5378.3193"
      r="100"
      fill="#000000"
      stroke="none"
      stroke-width="0"
    />
    <circle
      id="circle5"
      cx="4128.3447"
      cy="5378.3193"
      r="100"
      fill="#000000"
      stroke="none"
      stroke-width="0"
    />
    <rect
      id="rect5"
      width="1906.5552"
      height="688.47827"
      x="1572.7428"
      y="0"
      fill="#000000"
      stroke="none"
      stroke-width="0"
    />
    <rect
      id="rect6"
      width="1906.5552"
      height="688.47827"
      x="1572.7428"
      y="6800.1265"
      fill="#000000"
      stroke="none"
      stroke-width="0"
    />
    <path
      id="rect7"
      d="m 1620.5884,670.72276 685.6746,17.8604 c 63.4774,196.46436 20.0455,392.92874 -50.7907,589.39314 l -634.8839,160.7436 c 122.5195,-255.9991 190.3268,-511.99808 0,-767.99714 z"
      fill="none"
      stroke="#000000"
      stroke-width="50"
    />
    <path
      id="path7"
      d="m 3311.8129,671.06266 -685.6746,17.1365 c -63.4773,188.50166 -20.0455,377.00324 50.7907,565.50484 l 634.8839,154.2286 c -122.5195,-245.6233 -190.3268,-491.24658 0,-736.86994 z"
      fill="none"
      stroke="#000000"
      stroke-width="50"
    />
    <path
      id="path8"
      d="m 1644.447,6090.2828 c 575.055,245.8719 1161.6776,260.3931 1760.2702,35.5137 -204.4248,252.2308 -62.247,501.1664 5.9321,660.0063 -197.9326,53.5812 -1239.2547,18.8959 -1766.2023,72.4771 -102.2713,-154.1637 231.3082,-451.348 0,-767.9971 z"
      fill="none"
      stroke="#000000"
      stroke-width="50"
    />
    <path
      id="path9"
      d="m 5633.3446,2754.1267 h -797.7575 c 256.389,692.6505 259.2984,1135.3476 38.3079,1994.9999 h 759.4496 z"
      fill="none"
      stroke="#000000"
      stroke-width="50"
    />
    <line
      y1="3820.9604"
      y2="4327.1382"
      x2="7933.5225"
      x1="6947.1997"
      id="line10"
      stroke-linejoin="round"
      stroke-linecap="round"
      stroke-width="50"
      stroke="#787878"
      fill="none"
    />
    <path
      id="path10"
      d="m 6663.3446,3323.5321 -1016,6.2414 v 881.3531 h 1016 c 164.1367,-21.266 268.464,-97.2675 259.8382,-470.7991 24.1299,-306.0519 -57.1988,-443.616 -259.8382,-416.7954 z"
      fill="none"
      stroke="#000000"
      stroke-width="50"
    />
    <rect
      id="rect1"
      width="119.99999"
      height="309.99997"
      x="7926.875"
      y="4157.9995"
      fill="#f2f2f2"
      stroke="#666666"
      stroke-width="10"
    />
    <rect
      id="connector0pin"
      width="19.999998"
      height="19.999998"
      x="7979.9995"
      y="4400.1128"
      fill="#ffff00"
      stroke="none"
      stroke-width="0"
    />
    <rect
      id="connector1pin"
      width="19.999998"
      height="19.999998"
      x="7979.9995"
      y="4300.1128"
      fill="#ffff00"
      stroke="#ffff00"
      stroke-width="0"
    />
    <rect
      id="connector2pin"
      width="19.999998"
      height="19.999998"
      x="7979.9995"
      y="4200.1128"
      fill="#ffff00"
      stroke="none"
      stroke-width="0"
    />
    <rect
      id="connector3pin"
      width="19.999998"
      height="19.999998"
      x="7979.9995"
      y="3500"
      fill="#ffff00"
      stroke="none"
      stroke-width="0"
    />
    <rect
      id="connector4pin"
      width="19.999998"
      height="19.999998"
      x="7979.9995"
      y="3400"
      fill="#ffff00"
      stroke="none"
      stroke-width="0"
    />
    <rect
      id="connector5pin"
      width="19.999998"
      height="19.999998"
      x="7979.9995"
      y="3300"
      fill="#ffff00"
      stroke="none"
      stroke-width="0"
    />
    <rect
      id="connector6pin"
      width="19.999998"
      height="19.999998"
      x="7979.9995"
      y="3200"
      fill="#ffff00"
      stroke="none"
      stroke-width="0"
    />
    <rect
      id="connector7pin"
      width="19.999998"
      height="19.999998"
      x="7979.9995"
      y="3100"
      fill="#ffff00"
      stroke="none"
      stroke-width="0"
    />
  </g>
</svg>
