<?xml version='1.0' encoding='UTF-8' standalone='no'?>
<svg
  xmlns="http://www.w3.org/2000/svg"
  xmlns:svg="http://www.w3.org/2000/svg"
  xmlns:rdf="http://www.w3.org/1999/02/22-rdf-syntax-ns#"
  xmlns:cc="http://creativecommons.org/ns#"
  xmlns:dc="http://purl.org/dc/elements/1.1/"
  id="svg2"
  y="0in"
  version="1.2"
  height="1.3135855in"
  width="2.4701626in"
  x="0in"
  viewBox="0 0 2470.1625 1313.5854"
  xml:space="preserve">
  <metadata
    id="metadata24">
    <rdf:RDF>
      <cc:Work
        rdf:about="">
        <dc:format>image/svg+xml</dc:format>
        <dc:type
          rdf:resource="http://purl.org/dc/dcmitype/StillImage"
        />
      </cc:Work>
    </rdf:RDF>
  </metadata>
  <defs
    id="defs22"
  />
  <desc
    id="desc4">
    <referenceFile>5A-MPPT-solar-controller_1_breadboard.svg</referenceFile>
  </desc>
  <g
    id="breadboard">
    <rect
      y="72.056168"
      height="1220.4723"
      width="2362.2046"
      x="53.666374"
      gorn="0.1.0"
      id="upper"
      stroke-width="0"
      fill="#2c5aa0"
    />
    <rect
      id="rect2410"
      width="1007.8771"
      height="448.16284"
      x="656.43567"
      y="419.60464"
      fill="#483e37"
      stroke="#b3b3b3"
      stroke-width="1"
      stroke-miterlimit="1.41421"
      stop-color="#000000"
    />
    <rect
      transform="rotate(179.99985)"
      id="_x30_.1.7.0.0.0.0.0.0"
      height="20.67231"
      y="-406.44601"
      x="-460.5495"
      width="25.30817"
      fill="#cccccc"
      stroke-width="13.889"
    />
    <rect
      transform="rotate(179.99985)"
      id="_x30_.1.7.0.0.0.0.1.0"
      height="20.632513"
      y="-20.648443"
      x="-460.56229"
      width="25.30817"
      fill="#cccccc"
      stroke-width="13.889"
    />
    <rect
      transform="rotate(179.99985)"
      enable-background="new    "
      id="_x30_.1.7.0.0.0.0.2.0"
      height="20.67231"
      y="-406.44113"
      x="-460.59323"
      width="4.0389614"
      opacity="0.1"
      stroke-width="13.889"
    />
    <rect
      transform="rotate(179.99985)"
      enable-background="new    "
      id="_x30_.1.7.0.0.0.0.3.0"
      height="20.632513"
      y="-20.633734"
      x="-460.61404"
      width="4.0389614"
      opacity="0.1"
      stroke-width="13.889"
    />
    <rect
      transform="rotate(179.99985)"
      enable-background="new    "
      id="_x30_.1.7.0.0.0.0.4.0"
      height="20.67231"
      y="-406.44601"
      x="-439.30014"
      width="4.0588574"
      opacity="0.2"
      fill="#ffffff"
      stroke-width="13.889"
    />
    <rect
      transform="rotate(179.99985)"
      enable-background="new    "
      id="_x30_.1.7.0.0.0.0.5.0"
      height="20.632513"
      y="-20.648443"
      x="-439.33093"
      width="4.0588574"
      opacity="0.2"
      fill="#ffffff"
      stroke-width="13.889"
    />
    <path
      d="m 264.79722,96.433763 v 261.776327 c 0,15.12114 12.39545,27.55642 27.5166,27.55642 h 309.98533 c 15.20079,0 27.59625,-12.43528 27.59625,-27.55642 v -261.776327 l -75.82504,-75.80512 h -72.28351 -72.3232 -68.90113 z"
      id="_x30_.1.7.0.0.0.0.6"
      fill="#1a1a1a"
      stroke-width="13.889"
    />
    <ellipse
      ry="173.15804"
      rx="173.15794"
      transform="rotate(90)"
      id="_x30_.1.7.0.0.0.0.7"
      cy="-447.34659"
      cx="203.19728"
      fill="#e6e6e6"
      stroke-width="13.889"
    />
    <path
      d="m 264.79722,96.433763 v 261.776327 c 0,15.12114 12.39545,27.55642 27.5166,27.55642 h 309.98533 c 15.20079,0 27.59625,-12.43528 27.59625,-27.55642 v -54.75485 -207.021477 l -75.82504,-75.80512 h -72.28351 -72.3232 -68.90113 z"
      id="_x30_.1.7.0.0.0.0.8"
      fill="#333333"
      stroke-width="13.889"
    />
    <path
      d="m 550.42929,20.648553 75.82503,75.82503 v 207.001567 54.75485 c 0,15.12115 -12.39531,27.55642 -27.59625,27.55642 h 3.66099 c 15.20079,0 27.59625,-12.43527 27.59625,-27.55642 v -54.77476 -207.021477 l -75.82503,-75.80512 h -3.66099 z"
      id="_x30_.1.7.0.0.0.0.9"
      stroke-width="13.889"
    />
    <path
      d="m 295.99472,385.7466 c -15.1412,0 -27.53665,-12.43528 -27.53665,-27.55642 v -261.776327 l 75.74552,-75.82503 h -3.64107 l -75.7653,75.82503 v 261.776327 c 0,15.12114 12.39545,27.55642 27.5166,27.55642 z"
      enable-background="new    "
      id="_x30_.1.7.0.0.0.0.10"
      opacity="0.1"
      fill="#ffffff"
      stroke-width="13.889"
    />
    <path
      d="m 622.91178,203.19758 c 0,37.42502 -12.01741,71.92538 -32.11275,100.25766 -31.41625,44.07042 -82.82856,72.90022 -141.02537,72.90022 -58.23661,0 -109.6091,-28.8298 -141.00544,-72.90022 -20.15508,-28.33228 -32.13266,-62.83264 -32.13266,-100.25766 0,-95.60192 77.51614,-173.137977 173.15802,-173.137977 95.58215,0 173.1182,77.555967 173.1182,173.137977 z"
      id="_x30_.1.7.0.0.0.0.11"
      fill="#e6e6e6"
      stroke-width="13.889"
    />
    <path
      d="m 447.34637,376.37537 c 58.21672,0 109.60898,-28.8298 141.02537,-72.90022 h -282.03095 c 31.37656,44.05051 82.76882,72.90022 141.00558,72.90022 z"
      id="_x30_.1.7.0.0.0.0.12"
      stroke-width="13.889"
    />
    <path
      d="m 452.20095,30.059603 c -95.64173,0 -173.15801,77.536057 -173.15801,173.137977 0,37.42502 12.01741,71.92538 32.15257,100.25766 31.39648,44.07042 82.78872,72.90022 141.00544,72.90022 h -4.85458 c -58.23676,0 -109.62902,-28.8298 -141.00558,-72.90022 -20.17485,-28.33228 -32.13266,-62.83264 -32.13266,-100.25766 0,-95.60192 77.51628,-173.137977 173.13824,-173.137977 z"
      enable-background="new    "
      id="_x30_.1.7.0.0.0.0.13"
      opacity="0.3"
      fill="#ffffff"
      stroke-width="13.889"
    />
    <path
      d="m 442.79005,376.37537 c 58.1968,0 109.5892,-28.8298 141.02537,-72.90022 h 4.55632 c -31.41639,44.07042 -82.80865,72.90022 -141.02537,72.90022 z"
      enable-background="new    "
      id="_x30_.1.7.0.0.0.0.14"
      opacity="0.5"
      fill="#ffffff"
      stroke-width="13.889"
    />
    <path
      d="m 583.81542,303.45524 c 20.13516,-28.33228 32.13266,-62.83264 32.13266,-100.25766 0,-95.60192 -77.55597,-173.137977 -173.15803,-173.137977 h 4.55632 c 95.60192,0 173.15803,77.536057 173.15803,173.137977 0,37.42502 -12.01741,71.92538 -32.13266,100.25766 z"
      enable-background="new    "
      id="_x30_.1.7.0.0.0.0.15"
      opacity="0.2"
      stroke-width="13.889"
    />
    <polygon
      id="background"
      fill="#254e89"
      points="0,72.4061 0,157.607 196.012,157.607 196.012,72.4061 200,72.4061 200,39.9487 196.012,39.9487 196.012,0 0,0 0,39.9487 3.98829,39.9487 3.98829,72.4061 "
      gorn="0.0.0"
      transform="matrix(0,2.0192525,-2.0192525,0,343.18892,415.65716)"
      stroke-width="0.484014"
    />
    <rect
      x="419.20285"
      stroke-width="0"
      id="upperstripe"
      width="389.20081"
      y="-338.3797"
      fill="#456dab"
      height="11.63162"
      gorn="0.0.1"
      transform="rotate(90)"
    />
    <rect
      x="415.6572"
      stroke-width="0"
      id="lowerrect"
      width="395.7977"
      y="-169.30161"
      fill="#123c66"
      height="144.33295"
      gorn="0.0.2"
      transform="rotate(90)"
    />
    <path
      fill="#3a5c8e"
      d="m 177.63384,514.66151 c 0,38.48029 31.81918,69.81428 71.02014,69.81428 v -139.65598 c -39.22883,-0.0277 -71.02014,31.27883 -71.02014,69.8417 z"
      id="path1331"
      stroke-width="0.977346"
    />
    <path
      fill="#123c66"
      d="m 319.64605,514.66151 c 0,-38.53521 -31.84725,-69.8417 -70.99207,-69.8417 v 139.65598 c 39.20076,-2e-4 70.99207,-31.27906 70.99207,-69.81428 z"
      id="path1333"
      stroke-width="0.977346"
    />
    <path
      fill="#8b8b8b"
      d="m 191.055,514.66151 c 0,-31.27903 25.83573,-56.67597 57.65491,-56.67597 31.76325,0 57.62684,25.39694 57.62684,56.67597 0,31.25157 -25.83573,56.64852 -57.62684,56.64852 -31.81918,-0.0277 -57.65491,-25.42461 -57.65491,-56.64852 z"
      id="path1337"
      stroke-width="0.977346"
    />
    <path
      d="m 305.21829,514.66151 c 0,30.70173 -25.33233,55.54903 -56.50838,55.54903 -31.20411,0 -56.53644,-24.8473 -56.53644,-55.54903 0,-30.70172 25.33233,-55.60415 56.53644,-55.60415 31.17605,-0.0275 56.50838,24.87477 56.50838,55.60415 m 2.06913,0 c 0,-31.8012 -26.31106,-57.72033 -58.66151,-57.72033 -32.35044,0 -58.71744,25.8642 -58.71744,57.72033 0,31.74629 26.283,57.66541 58.71744,57.66541 32.35065,-0.0275 58.66151,-25.89186 58.66151,-57.66541 z"
      id="path1339"
      stroke-width="0.999998"
    />
    <path
      fill="#707070"
      d="m 261.93521,460.73415 c -4.27799,-1.0171 -8.75164,-1.70425 -13.3093,-1.70425 -4.61351,0 -9.00332,0.68714 -13.39315,1.70412 v 107.79982 c 4.27798,1.01697 8.72371,1.70412 13.39315,1.70412 4.5576,0 8.94741,-0.63217 13.30928,-1.70412 z"
      id="path1343"
      stroke-width="0.977346"
    />
    <rect
      x="501.55075"
      stroke-width="0"
      width="26.166685"
      y="-296.57852"
      fill="#545252"
      height="95.849075"
      id="rect1347"
      transform="rotate(90)"
    />
    <rect
      x="473.43265"
      stroke-width="0"
      width="82.430328"
      y="-261.93521"
      fill="#545252"
      height="26.590527"
      id="rect1349"
      transform="rotate(90)"
    />
    <path
      d="m 300.54897,514.66151 c 0,28.06317 -23.29127,50.95887 -51.83906,50.95887 -28.60372,0 -51.86692,-22.8957 -51.86692,-50.95887 0,-28.11809 23.29127,-51.01379 51.86692,-51.01379 28.54779,-0.0277 51.83906,22.86804 51.83906,51.01379 m 4.66932,0 c 0,-30.70172 -25.33233,-55.60395 -56.50838,-55.60395 -31.20411,0 -56.53644,24.90223 -56.53644,55.60395 0,30.70173 25.33233,55.54903 56.53644,55.54903 31.17605,0.0549 56.50838,-24.8473 56.50838,-55.54903 z"
      id="path1353"
      opacity="0.5"
      stroke-width="0.999998"
    />
    <rect
      x="444.79214"
      stroke-width="0"
      width="139.6834"
      y="-153.44785"
      fill="#103656"
      height="56.843975"
      id="rect1362"
      transform="rotate(90)"
    />
    <rect
      x="444.79214"
      stroke-width="0"
      width="139.6834"
      y="-96.575607"
      fill="#254e89"
      height="58.969036"
      id="rect1364"
      transform="rotate(90)"
    />
    <rect
      x="480.44144"
      stroke-width="0"
      width="68.385017"
      y="-95.848671"
      fill="#254e89"
      height="70.824272"
      id="rect1366"
      transform="rotate(90)"
    />
    <rect
      x="450.50925"
      stroke-width="0"
      width="128.30432"
      y="-148.47098"
      fill="#8d8c8c"
      height="106.75384"
      id="rect1368"
      transform="rotate(90)"
    />
    <path
      fill="#a0a0a0"
      d="m 47.980267,514.66151 c 0,30.42691 18.342182,55.19163 41.102086,55.19163 v -110.4933 c -22.759197,0.0549 -41.102086,24.79218 -41.102086,55.30167 z"
      id="path1370"
      stroke-width="0.977346"
    />
    <path
      fill="#565656"
      d="m 129.98817,514.66151 c 0,-30.48182 -18.34218,-55.30167 -41.01829,-55.30167 v 110.4933 c 22.67742,-0.0275 41.01829,-24.7098 41.01829,-55.19163 z"
      id="path1372"
      stroke-width="0.977346"
    />
    <ellipse
      stroke-width="0"
      cy="-88.971085"
      rx="42.823093"
      fill="#383838"
      cx="514.63385"
      ry="31.81918"
      id="ellipse1374"
      transform="rotate(90)"
    />
    <polygon
      fill="#919291"
      points="18.1175,96.0569 80.8004,96.9431 79.9292,104.157 76.989,103.271 67.0115,116.467 30.8446,116.467 21.8335,103.631 17.2599,103.271 "
      id="polygon1376"
      transform="matrix(0,2.0192525,-2.0192525,0,343.18892,415.65716)"
      stroke-width="0.484014"
    />
    <path
      fill="#57585a"
      d="m 145.64687,575.29543 h -9.19905 l -6e-5,-4.15038 v -1.78663 l -1.45386,-1.0171 -25.1922,-18.22315 v -70.4188 l 25.22047,-18.52563 1.42559,-1.07182 v -1.73171 -4.31515 h 9.19911 v 121.24037 m 3.57892,3.51814 v -128.30431 h -16.35698 v 7.83348 l -26.64646,19.59746 v 73.88222 l 26.64646,19.26763 v 7.66858 z"
      id="path1378"
      stroke-width="0.977346"
    />
    <rect
      x="485.88376"
      stroke-width="0"
      width="57.555565"
      y="-42.108288"
      fill="#8c8c8c"
      height="42.080818"
      id="rect1384"
      transform="rotate(90)"
    />
    <path
      fill="#3a5c8e"
      d="m 177.63384,716.58679 c 0,38.4802 31.81918,69.8142 71.02014,69.8142 v -139.6559 c -39.22883,-0.028 -71.02014,31.2788 -71.02014,69.8417 z"
      id="path1390"
      stroke-width="0.977346"
    />
    <path
      fill="#123c66"
      d="m 319.64605,716.58679 c 0,-38.5353 -31.84725,-69.8417 -70.99207,-69.8417 v 139.6559 c 39.20076,-2e-4 70.99207,-31.279 70.99207,-69.8142 z"
      id="path1392"
      stroke-width="0.977346"
    />
    <path
      fill="#8b8b8b"
      d="m 191.055,716.58679 c 0,-31.2791 25.83573,-56.676 57.65491,-56.676 31.76325,0 57.62684,25.3969 57.62684,56.676 0,31.2515 -25.83573,56.6485 -57.62684,56.6485 -31.81918,-0.028 -57.65491,-25.4246 -57.65491,-56.6485 z"
      id="path1396"
      stroke-width="0.977346"
    />
    <path
      d="m 305.21829,716.58679 c 0,30.7017 -25.33233,55.549 -56.50838,55.549 -31.20411,0 -56.53644,-24.8473 -56.53644,-55.549 0,-30.7018 25.33233,-55.6042 56.53644,-55.6042 31.17605,-0.027 56.50838,24.8748 56.50838,55.6042 m 2.06913,0 c 0,-31.8013 -26.31106,-57.7204 -58.66151,-57.7204 -32.35044,0 -58.71744,25.8642 -58.71744,57.7204 0,31.7462 26.283,57.6654 58.71744,57.6654 32.35065,-0.028 58.66151,-25.8919 58.66151,-57.6654 z"
      id="path1398"
      stroke-width="0.999998"
    />
    <path
      fill="#707070"
      d="m 261.93521,662.65939 c -4.27799,-1.0171 -8.75164,-1.7043 -13.3093,-1.7043 -4.61351,0 -9.00332,0.6872 -13.39315,1.7042 v 107.7998 c 4.27798,1.017 8.72371,1.7041 13.39315,1.7041 4.5576,0 8.94741,-0.6322 13.30928,-1.7041 z"
      id="path1402"
      stroke-width="0.977346"
    />
    <rect
      x="703.47589"
      stroke-width="0"
      width="26.166685"
      y="-296.57852"
      fill="#545252"
      height="95.849075"
      id="rect1406"
      transform="rotate(90)"
    />
    <rect
      x="675.35785"
      stroke-width="0"
      width="82.430328"
      y="-261.93521"
      fill="#545252"
      height="26.590527"
      id="rect1408"
      transform="rotate(90)"
    />
    <path
      d="m 300.54897,716.58679 c 0,28.0631 -23.29127,50.9588 -51.83906,50.9588 -28.60372,0 -51.86692,-22.8957 -51.86692,-50.9588 0,-28.1181 23.29127,-51.0138 51.86692,-51.0138 28.54779,-0.028 51.83906,22.868 51.83906,51.0138 m 4.66932,0 c 0,-30.7018 -25.33233,-55.604 -56.50838,-55.604 -31.20411,0 -56.53644,24.9022 -56.53644,55.604 0,30.7017 25.33233,55.549 56.53644,55.549 31.17605,0.055 56.50838,-24.8473 56.50838,-55.549 z"
      id="path1412"
      opacity="0.5"
      stroke-width="0.999998"
    />
    <rect
      x="646.71735"
      stroke-width="0"
      width="139.6834"
      y="-153.44785"
      fill="#103656"
      height="56.843975"
      id="rect1421"
      transform="rotate(90)"
    />
    <rect
      x="646.71735"
      stroke-width="0"
      width="139.6834"
      y="-96.575607"
      fill="#254e89"
      height="58.969036"
      id="rect1423"
      transform="rotate(90)"
    />
    <rect
      x="682.36664"
      stroke-width="0"
      width="68.385017"
      y="-95.848671"
      fill="#254e89"
      height="70.824272"
      id="rect1425"
      transform="rotate(90)"
    />
    <rect
      x="652.43451"
      stroke-width="0"
      width="128.30432"
      y="-148.47098"
      fill="#8d8c8c"
      height="106.75384"
      id="rect1427"
      transform="rotate(90)"
    />
    <path
      fill="#a0a0a0"
      d="m 47.980267,716.58679 c 0,30.4269 18.342182,55.1916 41.102086,55.1916 v -110.4933 c -22.759197,0.055 -41.102086,24.7922 -41.102086,55.3017 z"
      id="path1429"
      stroke-width="0.977346"
    />
    <path
      fill="#565656"
      d="m 129.98817,716.58679 c 0,-30.4819 -18.34218,-55.3017 -41.01829,-55.3017 v 110.4933 c 22.67742,-0.028 41.01829,-24.7098 41.01829,-55.1916 z"
      id="path1431"
      stroke-width="0.977346"
    />
    <ellipse
      stroke-width="0"
      cy="-88.971085"
      rx="42.823093"
      fill="#383838"
      cx="716.55902"
      ry="31.81918"
      id="ellipse1433"
      transform="rotate(90)"
    />
    <polygon
      fill="#919291"
      points="18.1175,96.0569 80.8004,96.9431 79.9292,104.157 76.989,103.271 67.0115,116.467 30.8446,116.467 21.8335,103.631 17.2599,103.271 "
      id="polygon1435"
      transform="matrix(0,2.0192525,-2.0192525,0,343.18892,617.58239)"
      stroke-width="0.484014"
    />
    <path
      fill="#57585a"
      d="m 145.64687,777.22069 h -9.19905 l -6e-5,-4.1504 v -1.7866 l -1.45386,-1.0171 -25.1922,-18.2232 v -70.4188 l 25.22047,-18.5256 1.42559,-1.0718 v -1.7318 -4.3151 h 9.19911 v 121.2404 m 3.57892,3.5181 v -128.3043 h -16.35698 v 7.8335 l -26.64646,19.5974 v 73.8823 l 26.64646,19.2676 v 7.6686 z"
      id="path1437"
      stroke-width="0.977346"
    />
    <rect
      x="687.8089"
      stroke-width="0"
      width="57.555565"
      y="-42.108288"
      fill="#8c8c8c"
      height="42.080818"
      id="rect1443"
      transform="rotate(90)"
    />
    <polygon
      id="background-7"
      fill="#254e89"
      points="200,72.4061 200,39.9487 196.012,39.9487 196.012,0 0,0 0,39.9487 3.98829,39.9487 3.98829,72.4061 0,72.4061 0,157.607 196.012,157.607 196.012,72.4061 "
      gorn="0.0.0"
      transform="matrix(0,-2.0192527,2.0192527,0,2126.9734,819.49059)"
      stroke-width="0.245255"
    />
    <rect
      x="-815.94489"
      stroke-width="0"
      id="upperstripe-2"
      width="389.20087"
      y="2131.7825"
      fill="#456dab"
      height="11.631622"
      gorn="0.0.1"
      transform="rotate(-90)"
    />
    <rect
      x="-819.49054"
      stroke-width="0"
      id="lowerrect-7"
      width="395.79776"
      y="2300.8606"
      fill="#123c66"
      height="144.33296"
      gorn="0.0.2"
      transform="rotate(-90)"
    />
    <path
      fill="#3a5c8e"
      d="m 2292.5285,720.48619 c 0,-38.4803 -31.8192,-69.8142 -71.0202,-69.8142 v 139.6559 c 39.2289,0.028 71.0202,-31.2788 71.0202,-69.8417 z"
      id="path1331-9"
      stroke-width="0.495232"
    />
    <path
      fill="#123c66"
      d="m 2150.5163,720.48619 c 0,38.5353 31.8472,69.8417 70.992,69.8417 v -139.6559 c -39.2007,2e-4 -70.992,31.279 -70.992,69.8142 z"
      id="path1333-7"
      stroke-width="0.495232"
    />
    <path
      fill="#8b8b8b"
      d="m 2279.1073,720.48619 c 0,31.2791 -25.8357,56.676 -57.6549,56.676 -31.7632,0 -57.6268,-25.3969 -57.6268,-56.676 0,-31.2515 25.8357,-56.6485 57.6268,-56.6485 31.8192,0.028 57.6549,25.4246 57.6549,56.6485 z"
      id="path1337-6"
      stroke-width="0.495232"
    />
    <path
      d="m 2164.944,720.48619 c 0,-30.7017 25.3324,-55.549 56.5084,-55.549 31.2041,0 56.5365,24.8473 56.5365,55.549 0,30.7018 -25.3324,55.6042 -56.5365,55.6042 -31.176,0.028 -56.5084,-24.8748 -56.5084,-55.6042 m -2.0691,0 c 0,31.8012 26.3111,57.7204 58.6615,57.7204 32.3505,0 58.7175,-25.8642 58.7175,-57.7204 0,-31.7463 -26.283,-57.6654 -58.7175,-57.6654 -32.3506,0.027 -58.6615,25.8919 -58.6615,57.6654 z"
      id="path1339-8"
      stroke-width="1"
    />
    <path
      fill="#707070"
      d="m 2208.2271,774.41359 c 4.278,1.0171 8.7517,1.7043 13.3093,1.7043 4.6135,0 9.0033,-0.6872 13.3932,-1.7042 v -107.7998 c -4.278,-1.017 -8.7237,-1.7041 -13.3932,-1.7041 -4.5576,0 -8.9474,0.6322 -13.3093,1.7041 z"
      id="path1343-3"
      stroke-width="0.495232"
    />
    <rect
      x="-733.59698"
      stroke-width="0"
      width="26.166689"
      y="2173.5837"
      fill="#545252"
      height="95.849083"
      id="rect1347-9"
      transform="rotate(-90)"
    />
    <rect
      x="-761.71515"
      stroke-width="0"
      width="82.430336"
      y="2208.2271"
      fill="#545252"
      height="26.590528"
      id="rect1349-1"
      transform="rotate(-90)"
    />
    <path
      d="m 2169.6134,720.48619 c 0,-28.0631 23.2912,-50.9588 51.839,-50.9588 28.6037,0 51.8669,22.8957 51.8669,50.9588 0,28.1181 -23.2912,51.0138 -51.8669,51.0138 -28.5478,0.028 -51.839,-22.868 -51.839,-51.0138 m -4.6694,0 c 0,30.7018 25.3324,55.604 56.5084,55.604 31.2041,0 56.5365,-24.9022 56.5365,-55.604 0,-30.7017 -25.3324,-55.549 -56.5365,-55.549 -31.176,-0.055 -56.5084,24.8473 -56.5084,55.549 z"
      id="path1353-6"
      opacity="0.5"
      stroke-width="1"
    />
    <rect
      x="-790.35553"
      stroke-width="0"
      width="139.68341"
      y="2316.7144"
      fill="#103656"
      height="56.843983"
      id="rect1362-7"
      transform="rotate(-90)"
    />
    <rect
      x="-790.35553"
      stroke-width="0"
      width="139.68341"
      y="2373.5867"
      fill="#254e89"
      height="58.969044"
      id="rect1364-6"
      transform="rotate(-90)"
    />
    <rect
      x="-754.70624"
      stroke-width="0"
      width="68.385025"
      y="2374.3135"
      fill="#254e89"
      height="70.82428"
      id="rect1366-2"
      transform="rotate(-90)"
    />
    <rect
      x="-784.63849"
      stroke-width="0"
      width="128.30432"
      y="2321.6912"
      fill="#8d8c8c"
      height="106.75385"
      id="rect1368-4"
      transform="rotate(-90)"
    />
    <path
      fill="#a0a0a0"
      d="m 2422.1821,720.48619 c 0,-30.4269 -18.3422,-55.1916 -41.1021,-55.1916 v 110.4933 c 22.7592,-0.055 41.1021,-24.7922 41.1021,-55.3017 z"
      id="path1370-3"
      stroke-width="0.495232"
    />
    <path
      fill="#565656"
      d="m 2340.1742,720.48619 c 0,30.4819 18.3422,55.3017 41.0183,55.3017 v -110.4933 c -22.6775,0.027 -41.0183,24.7098 -41.0183,55.1916 z"
      id="path1372-0"
      stroke-width="0.495232"
    />
    <ellipse
      stroke-width="0"
      cy="2381.1912"
      rx="42.823097"
      fill="#383838"
      cx="-720.51385"
      ry="31.819183"
      id="ellipse1374-5"
      transform="rotate(-90)"
    />
    <polygon
      fill="#919291"
      points="18.1175,96.0569 80.8004,96.9431 79.9292,104.157 76.989,103.271 67.0115,116.467 30.8446,116.467 21.8335,103.631 17.2599,103.271 "
      id="polygon1376-2"
      transform="matrix(0,-2.0192527,2.0192527,0,2126.9734,819.49059)"
      stroke-width="0.245255"
    />
    <path
      fill="#57585a"
      d="m 2324.5155,659.85229 h 9.199 l 10e-5,4.1504 v 1.7866 l 1.4538,1.0171 25.1922,18.2232 v 70.4188 l -25.2204,18.5256 -1.4256,1.0718 v 1.7317 4.3152 h -9.1991 v -121.2404 m -3.5789,-3.5181 v 128.3043 h 16.3569 v -7.8335 l 26.6465,-19.5974 v -73.8823 l -26.6465,-19.2676 v -7.6686 z"
      id="path1378-0"
      stroke-width="0.495232"
    />
    <rect
      x="-749.26398"
      stroke-width="0"
      width="57.555569"
      y="2428.054"
      fill="#8c8c8c"
      height="42.080822"
      id="rect1384-4"
      transform="rotate(-90)"
    />
    <path
      fill="#3a5c8e"
      d="m 2292.5285,518.56093 c 0,-38.4803 -31.8192,-69.81425 -71.0202,-69.81425 v 139.65591 c 39.2289,0.028 71.0202,-31.27878 71.0202,-69.84166 z"
      id="path1390-2"
      stroke-width="0.495232"
    />
    <path
      fill="#123c66"
      d="m 2150.5163,518.56093 c 0,38.53521 31.8472,69.84166 70.992,69.84166 v -139.65591 c -39.2007,2e-4 -70.992,31.27903 -70.992,69.81425 z"
      id="path1392-6"
      stroke-width="0.495232"
    />
    <path
      fill="#8b8b8b"
      d="m 2279.1073,518.56093 c 0,31.27903 -25.8357,56.67598 -57.6549,56.67598 -31.7632,0 -57.6268,-25.39695 -57.6268,-56.67598 0,-31.25157 25.8357,-56.64852 57.6268,-56.64852 31.8192,0.0277 57.6549,25.42461 57.6549,56.64852 z"
      id="path1396-3"
      stroke-width="0.495232"
    />
    <path
      d="m 2164.944,518.56093 c 0,-30.70173 25.3324,-55.54904 56.5084,-55.54904 31.2041,0 56.5365,24.84731 56.5365,55.54904 0,30.70172 -25.3324,55.60416 -56.5365,55.60416 -31.176,0.0275 -56.5084,-24.87477 -56.5084,-55.60416 m -2.0691,0 c 0,31.80121 26.3111,57.72033 58.6615,57.72033 32.3505,0 58.7175,-25.8642 58.7175,-57.72033 0,-31.74629 -26.283,-57.66542 -58.7175,-57.66542 -32.3506,0.0275 -58.6615,25.89187 -58.6615,57.66542 z"
      id="path1398-0"
      stroke-width="1"
    />
    <path
      fill="#707070"
      d="m 2208.2271,572.4883 c 4.278,1.0171 8.7517,1.70425 13.3093,1.70425 4.6135,0 9.0033,-0.68715 13.3932,-1.70413 v -107.79982 c -4.278,-1.01698 -8.7237,-1.70413 -13.3932,-1.70413 -4.5576,0 -8.9474,0.63218 -13.3093,1.70413 z"
      id="path1402-5"
      stroke-width="0.495232"
    />
    <rect
      x="-531.67169"
      stroke-width="0"
      width="26.166689"
      y="2173.5837"
      fill="#545252"
      height="95.849083"
      id="rect1406-3"
      transform="rotate(-90)"
    />
    <rect
      x="-559.78979"
      stroke-width="0"
      width="82.430336"
      y="2208.2271"
      fill="#545252"
      height="26.590528"
      id="rect1408-2"
      transform="rotate(-90)"
    />
    <path
      d="m 2169.6134,518.56093 c 0,-28.06317 23.2912,-50.95887 51.839,-50.95887 28.6037,0 51.8669,22.8957 51.8669,50.95887 0,28.11809 -23.2912,51.01379 -51.8669,51.01379 -28.5478,0.0277 -51.839,-22.86804 -51.839,-51.01379 m -4.6694,0 c 0,30.70172 25.3324,55.60396 56.5084,55.60396 31.2041,0 56.5365,-24.90224 56.5365,-55.60396 0,-30.70173 -25.3324,-55.54904 -56.5365,-55.54904 -31.176,-0.0549 -56.5084,24.84731 -56.5084,55.54904 z"
      id="path1412-8"
      opacity="0.5"
      stroke-width="1"
    />
    <rect
      x="-588.4303"
      stroke-width="0"
      width="139.68341"
      y="2316.7144"
      fill="#103656"
      height="56.843983"
      id="rect1421-9"
      transform="rotate(-90)"
    />
    <rect
      x="-588.4303"
      stroke-width="0"
      width="139.68341"
      y="2373.5867"
      fill="#254e89"
      height="58.969044"
      id="rect1423-6"
      transform="rotate(-90)"
    />
    <rect
      x="-552.78101"
      stroke-width="0"
      width="68.385025"
      y="2374.3135"
      fill="#254e89"
      height="70.82428"
      id="rect1425-5"
      transform="rotate(-90)"
    />
    <rect
      x="-582.7132"
      stroke-width="0"
      width="128.30432"
      y="2321.6912"
      fill="#8d8c8c"
      height="106.75385"
      id="rect1427-9"
      transform="rotate(-90)"
    />
    <path
      fill="#a0a0a0"
      d="m 2422.1821,518.56093 c 0,-30.42691 -18.3422,-55.19163 -41.1021,-55.19163 v 110.4933 c 22.7592,-0.0549 41.1021,-24.79218 41.1021,-55.30167 z"
      id="path1429-7"
      stroke-width="0.495232"
    />
    <path
      fill="#565656"
      d="m 2340.1742,518.56093 c 0,30.48183 18.3422,55.30167 41.0183,55.30167 v -110.4933 c -22.6775,0.0275 -41.0183,24.7098 -41.0183,55.19163 z"
      id="path1431-4"
      stroke-width="0.495232"
    />
    <ellipse
      stroke-width="0"
      cy="2381.1912"
      rx="42.823097"
      fill="#383838"
      cx="-518.58856"
      ry="31.819183"
      id="ellipse1433-8"
      transform="rotate(-90)"
    />
    <polygon
      fill="#919291"
      points="18.1175,96.0569 80.8004,96.9431 79.9292,104.157 76.989,103.271 67.0115,116.467 30.8446,116.467 21.8335,103.631 17.2599,103.271 "
      id="polygon1435-4"
      transform="matrix(0,-2.0192527,2.0192527,0,2126.9734,617.56529)"
      stroke-width="0.245255"
    />
    <path
      fill="#57585a"
      d="m 2324.5155,457.92701 h 9.199 l 10e-5,4.15037 v 1.78663 l 1.4538,1.0171 25.1922,18.22315 v 70.41882 l -25.2204,18.52563 -1.4256,1.07182 v 1.73171 4.31514 h -9.1991 v -121.24037 m -3.5789,-3.51815 v 128.30433 h 16.3569 v -7.83349 l 26.6465,-19.59745 v -73.88224 l -26.6465,-19.26763 v -7.66857 z"
      id="path1437-3"
      stroke-width="0.495232"
    />
    <rect
      x="-547.33868"
      stroke-width="0"
      width="57.555569"
      y="2428.054"
      fill="#8c8c8c"
      height="42.080822"
      id="rect1443-5"
      transform="rotate(-90)"
    />
    <circle
      id="3pin_ra_header"
      cx="171.18884"
      cy="1191.3668"
      r="54.999996"
      fill-opacity="1"
      fill="#ffffff"
    />
    <text
      fill="#ffffff"
      font-family="OCRA"
      x="516.75415"
      y="687.36237"
      font-size="48.611"
      id="text3683">C-</text>
    <text
      fill="#ffffff"
      font-family="OCRA"
      id="text3685"
      font-size="48.611"
      y="290.08273"
      x="870.97894">LED</text>
    <text
      fill="#ffffff"
      font-family="OCRA"
      id="text3687"
      font-size="48.611"
      y="914.37933"
      x="536.32458">V2</text>
    <text
      fill="#ffffff"
      font-family="OCRA"
      id="text2076"
      font-size="48.611"
      y="293.9968"
      x="1015.8001">CC</text>
    <text
      fill="#ffffff"
      font-family="OCRA"
      id="text2078"
      font-size="48.611"
      y="292.03976"
      x="1103.8671">CV</text>
    <text
      fill="#ffffff"
      font-family="OCRA"
      id="text2080"
      font-size="48.611"
      y="421.20462"
      x="949.26068">MPPT</text>
    <rect
      transform="rotate(179.99985)"
      id="rect2244"
      height="20.67231"
      y="-406.45029"
      x="-2086.5444"
      width="25.30817"
      fill="#cccccc"
      stroke-width="13.889"
    />
    <rect
      transform="rotate(179.99985)"
      id="rect2246"
      height="20.632513"
      y="-20.652685"
      x="-2086.5574"
      width="25.30817"
      fill="#cccccc"
      stroke-width="13.889"
    />
    <rect
      transform="rotate(179.99985)"
      enable-background="new    "
      id="rect2248"
      height="20.67231"
      y="-406.4454"
      x="-2086.5881"
      width="4.0389614"
      opacity="0.1"
      stroke-width="13.889"
    />
    <rect
      transform="rotate(179.99985)"
      enable-background="new    "
      id="rect2250"
      height="20.632513"
      y="-20.637976"
      x="-2086.6091"
      width="4.0389614"
      opacity="0.1"
      stroke-width="13.889"
    />
    <rect
      transform="rotate(179.99985)"
      enable-background="new    "
      id="rect2252"
      height="20.67231"
      y="-406.45029"
      x="-2065.2952"
      width="4.0588574"
      opacity="0.2"
      fill="#ffffff"
      stroke-width="13.889"
    />
    <rect
      transform="rotate(179.99985)"
      enable-background="new    "
      id="rect2254"
      height="20.632513"
      y="-20.652685"
      x="-2065.3259"
      width="4.0588574"
      opacity="0.2"
      fill="#ffffff"
      stroke-width="13.889"
    />
    <path
      d="m 1890.7923,96.433763 v 261.776327 c 0,15.12114 12.3955,27.55642 27.5166,27.55642 h 309.9853 c 15.2008,0 27.5963,-12.43528 27.5963,-27.55642 v -261.776327 l -75.8251,-75.80512 h -72.2835 -72.3232 -68.9011 z"
      id="path2256"
      fill="#1a1a1a"
      stroke-width="13.889"
    />
    <ellipse
      ry="173.15804"
      rx="173.15794"
      transform="rotate(90)"
      id="ellipse2258"
      cy="-2073.3416"
      cx="203.19728"
      fill="#e6e6e6"
      stroke-width="13.889"
    />
    <path
      d="m 1890.7923,96.433763 v 261.776327 c 0,15.12114 12.3955,27.55642 27.5166,27.55642 h 309.9853 c 15.2008,0 27.5963,-12.43528 27.5963,-27.55642 v -54.75485 -207.021477 l -75.8251,-75.80512 h -72.2835 -72.3232 -68.9011 z"
      id="path2260"
      fill="#333333"
      stroke-width="13.889"
    />
    <path
      d="m 2176.4244,20.648553 75.825,75.82503 v 207.001567 54.75485 c 0,15.12115 -12.3953,27.55642 -27.5962,27.55642 h 3.6609 c 15.2008,0 27.5963,-12.43527 27.5963,-27.55642 v -54.77476 -207.021477 l -75.825,-75.80512 h -3.661 z"
      id="path2262"
      stroke-width="13.889"
    />
    <path
      d="m 1921.9898,385.7466 c -15.1412,0 -27.5367,-12.43528 -27.5367,-27.55642 v -261.776327 l 75.7456,-75.82503 h -3.6411 l -75.7653,75.82503 v 261.776327 c 0,15.12114 12.3955,27.55642 27.5166,27.55642 z"
      enable-background="new    "
      id="path2264"
      opacity="0.1"
      fill="#ffffff"
      stroke-width="13.889"
    />
    <path
      d="m 2248.9069,203.19758 c 0,37.42502 -12.0174,71.92538 -32.1128,100.25766 -31.4162,44.07042 -82.8285,72.90022 -141.0254,72.90022 -58.2366,0 -109.6091,-28.8298 -141.0054,-72.90022 -20.1551,-28.33228 -32.1327,-62.83264 -32.1327,-100.25766 0,-95.60192 77.5162,-173.137977 173.1581,-173.137977 95.5821,0 173.1182,77.555967 173.1182,173.137977 z"
      id="path2266"
      fill="#e6e6e6"
      stroke-width="13.889"
    />
    <path
      d="m 2073.3415,376.37537 c 58.2167,0 109.6089,-28.8298 141.0253,-72.90022 h -282.0309 c 31.3765,44.05051 82.7688,72.90022 141.0056,72.90022 z"
      id="path2268"
      stroke-width="13.889"
    />
    <path
      d="m 2078.196,30.059603 c -95.6417,0 -173.158,77.536057 -173.158,173.137977 0,37.42502 12.0174,71.92538 32.1526,100.25766 31.3965,44.07042 82.7887,72.90022 141.0054,72.90022 h -4.8545 c -58.2368,0 -109.6291,-28.8298 -141.0056,-72.90022 -20.1749,-28.33228 -32.1327,-62.83264 -32.1327,-100.25766 0,-95.60192 77.5163,-173.137977 173.1383,-173.137977 z"
      enable-background="new    "
      id="path2270"
      opacity="0.3"
      fill="#ffffff"
      stroke-width="13.889"
    />
    <path
      d="m 2068.7851,376.37537 c 58.1968,0 109.5892,-28.8298 141.0254,-72.90022 h 4.5563 c -31.4164,44.07042 -82.8086,72.90022 -141.0253,72.90022 z"
      enable-background="new    "
      id="path2272"
      opacity="0.5"
      fill="#ffffff"
      stroke-width="13.889"
    />
    <path
      d="m 2209.8105,303.45524 c 20.1352,-28.33228 32.1327,-62.83264 32.1327,-100.25766 0,-95.60192 -77.556,-173.137977 -173.1581,-173.137977 h 4.5564 c 95.6019,0 173.158,77.536057 173.158,173.137977 0,37.42502 -12.0174,71.92538 -32.1327,100.25766 z"
      enable-background="new    "
      id="path2274"
      opacity="0.2"
      stroke-width="13.889"
    />
    <circle
      id="path2330"
      cx="1067.4146"
      cy="143.81898"
      r="60"
      fill="#f2f2f2"
      stroke="#e6e6e6"
      stroke-width="20"
    />
    <circle
      id="circle2332"
      cx="562.4975"
      cy="775.94391"
      r="60"
      fill="#ff0000"
      stroke="#ff5555"
      stroke-width="20"
    />
    <circle
      id="circle2334"
      cx="562.4975"
      cy="1043.6716"
      r="60"
      fill="#ff0000"
      stroke="#ff5555"
      stroke-width="20"
    />
    <text
      fill="#ffffff"
      font-family="OCRA"
      x="150.78714"
      y="988.74689"
      font-size="48.611"
      id="text2336">-KEY+</text>
    <text
      fill="#ffffff"
      font-family="OCRA"
      x="84.247673"
      y="360.5361"
      font-size="48.611"
      id="text2338">+IN</text>
    <text
      fill="#ffffff"
      font-family="OCRA"
      x="66.634285"
      y="898.72284"
      font-size="48.611"
      id="text2340">-</text>
    <text
      fill="#ffffff"
      font-family="OCRA"
      id="text2342"
      font-size="48.611"
      y="749.98773"
      x="2013.8921">/V2</text>
    <text
      fill="#ffffff"
      font-family="OCRA"
      id="text2344"
      font-size="48.611"
      y="1076.7637"
      x="2013.8921">/P</text>
    <text
      fill="#ffffff"
      font-family="OCRA"
      id="text2346"
      font-size="48.611"
      y="908.50824"
      x="2278.0928">OUT-</text>
    <text
      fill="#ffffff"
      font-family="OCRA"
      id="text2348"
      font-size="48.611"
      y="389.89188"
      x="2372.4468">+</text>
    <circle
      id="circle2350"
      cx="1860.0171"
      cy="685.91986"
      r="120"
      fill="#cccccc"
      stroke="#b3b3b3"
      stroke-width="60"
    />
    <circle
      id="circle2352"
      cx="1860.0171"
      cy="1067.8054"
      r="120"
      fill="#cccccc"
      stroke="#b3b3b3"
      stroke-width="60"
    />
    <text
      fill="#ffffff"
      font-family="OCRA"
      x="414.98795"
      y="1262.733"
      font-size="48.611"
      id="text2354">C+</text>
    <text
      fill="#ffffff"
      font-family="OCRA"
      x="561.76617"
      y="1188.3654"
      font-size="48.611"
      id="text2356">P</text>
    <rect
      id="rect2464"
      width="146.77823"
      height="41.097904"
      x="766.03003"
      y="482.23001"
      fill="#cccccc"
      stroke="none"
      stroke-width="0"
    />
    <rect
      id="rect2466"
      width="129.16484"
      height="41.097904"
      x="750.23468"
      y="618.05609"
      fill="#cccccc"
      stroke="none"
      stroke-width="0"
    />
    <rect
      id="rect2468"
      width="129.16484"
      height="41.097904"
      x="722.68207"
      y="755.8399"
      fill="#cccccc"
      stroke="none"
      stroke-width="0"
    />
    <rect
      id="rect2470"
      width="133.73846"
      height="41.028934"
      x="-532.94061"
      y="783.06793"
      transform="matrix(0.15274276,-0.98826598,0.99193274,0.12676533,0,0)"
      fill="#cccccc"
      stroke="none"
      stroke-width="0"
    />
    <rect
      id="rect2472"
      width="137.46136"
      height="41.047981"
      x="-510.50793"
      y="988.31305"
      transform="matrix(0.14860598,-0.98889649,0.99147241,0.13031675,0,0)"
      fill="#cccccc"
      stroke="none"
      stroke-width="0"
    />
    <rect
      id="rect2474"
      width="130.01802"
      height="41.01041"
      x="-671.01862"
      y="981.49188"
      transform="matrix(0.15711345,-0.98758056,0.99238074,0.12320903,0,0)"
      fill="#cccccc"
      stroke="none"
      stroke-width="0"
    />
    <rect
      id="rect2476"
      width="130.01802"
      height="41.01041"
      x="-695.76959"
      y="783.09784"
      transform="matrix(0.15711345,-0.98758056,0.99238074,0.12320903,0,0)"
      fill="#cccccc"
      stroke="none"
      stroke-width="0"
    />
    <rect
      id="rect2955"
      width="1007.8771"
      height="448.16284"
      x="656.43567"
      y="864.92255"
      fill="#483e37"
      stroke="#b3b3b3"
      stroke-width="1"
      stroke-miterlimit="1.41421"
      stop-color="#000000"
    />
    <rect
      id="rect2487"
      width="146.77823"
      height="41.097904"
      x="766.03003"
      y="891.65875"
      fill="#cccccc"
      stroke="none"
      stroke-width="0"
    />
    <rect
      id="rect2489"
      width="129.16484"
      height="41.097904"
      x="750.23468"
      y="1027.4849"
      fill="#cccccc"
      stroke="none"
      stroke-width="0"
    />
    <rect
      id="rect2491"
      width="129.16484"
      height="41.097904"
      x="722.68207"
      y="1165.2687"
      fill="#cccccc"
      stroke="none"
      stroke-width="0"
    />
    <rect
      id="rect2493"
      width="133.73846"
      height="41.028934"
      x="-939.2063"
      y="845.62677"
      transform="matrix(0.15274276,-0.98826598,0.99193274,0.12676533,0,0)"
      fill="#cccccc"
      stroke="none"
      stroke-width="0"
    />
    <rect
      id="rect2495"
      width="137.46136"
      height="41.047981"
      x="-916.51459"
      y="1049.1671"
      transform="matrix(0.14860598,-0.98889649,0.99147241,0.13031675,0,0)"
      fill="#cccccc"
      stroke="none"
      stroke-width="0"
    />
    <rect
      id="rect2497"
      width="130.01802"
      height="41.01041"
      x="-1077.5662"
      y="1045.8564"
      transform="matrix(0.15711345,-0.98758056,0.99238074,0.12320903,0,0)"
      fill="#cccccc"
      stroke="none"
      stroke-width="0"
    />
    <rect
      id="rect2499"
      width="130.01802"
      height="41.01041"
      x="-1102.3171"
      y="847.46234"
      transform="matrix(0.15711345,-0.98758056,0.99238074,0.12320903,0,0)"
      fill="#cccccc"
      stroke="none"
      stroke-width="0"
    />
    <rect
      id="rect2503"
      width="146.77823"
      height="41.097904"
      x="1108.5659"
      y="891.65875"
      fill="#cccccc"
      stroke="none"
      stroke-width="0"
    />
    <rect
      id="rect2505"
      width="129.16484"
      height="41.097904"
      x="1092.7706"
      y="1027.4849"
      fill="#cccccc"
      stroke="none"
      stroke-width="0"
    />
    <rect
      id="rect2507"
      width="129.16484"
      height="41.097904"
      x="1065.2179"
      y="1165.2687"
      fill="#cccccc"
      stroke="none"
      stroke-width="0"
    />
    <rect
      id="rect2509"
      width="133.73846"
      height="41.028934"
      x="-895.76965"
      y="1184.2599"
      transform="matrix(0.15274276,-0.98826598,0.99193274,0.12676533,0,0)"
      fill="#cccccc"
      stroke="none"
      stroke-width="0"
    />
    <rect
      id="rect2511"
      width="137.46136"
      height="41.047981"
      x="-871.86871"
      y="1387.9574"
      transform="matrix(0.14860598,-0.98889649,0.99147241,0.13031675,0,0)"
      fill="#cccccc"
      stroke="none"
      stroke-width="0"
    />
    <rect
      id="rect2513"
      width="130.01802"
      height="41.01041"
      x="-1035.3379"
      y="1384.3367"
      transform="matrix(0.15711345,-0.98758056,0.99238074,0.12320903,0,0)"
      fill="#cccccc"
      stroke="none"
      stroke-width="0"
    />
    <rect
      id="rect2515"
      width="130.01802"
      height="41.01041"
      x="-1060.0889"
      y="1185.9426"
      transform="matrix(0.15711345,-0.98758056,0.99238074,0.12320903,0,0)"
      fill="#cccccc"
      stroke="none"
      stroke-width="0"
    />
    <rect
      id="rect2519"
      width="146.77823"
      height="41.097904"
      x="1443.2115"
      y="891.65875"
      fill="#cccccc"
      stroke="none"
      stroke-width="0"
    />
    <rect
      id="rect2521"
      width="129.16484"
      height="41.097904"
      x="1427.4163"
      y="1027.4849"
      fill="#cccccc"
      stroke="none"
      stroke-width="0"
    />
    <rect
      id="rect2523"
      width="129.16484"
      height="41.097904"
      x="1399.8636"
      y="1165.2687"
      fill="#cccccc"
      stroke="none"
      stroke-width="0"
    />
    <rect
      id="rect2525"
      width="133.73846"
      height="41.028934"
      x="-853.33362"
      y="1515.0927"
      transform="matrix(0.15274276,-0.98826598,0.99193274,0.12676533,0,0)"
      fill="#cccccc"
      stroke="none"
      stroke-width="0"
    />
    <rect
      id="rect2527"
      width="137.46136"
      height="41.047981"
      x="-828.2514"
      y="1718.9436"
      transform="matrix(0.14860598,-0.98889649,0.99147241,0.13031675,0,0)"
      fill="#cccccc"
      stroke="none"
      stroke-width="0"
    />
    <rect
      id="rect2529"
      width="130.01802"
      height="41.01041"
      x="-994.08246"
      y="1715.02"
      transform="matrix(0.15711345,-0.98758056,0.99238074,0.12320903,0,0)"
      fill="#cccccc"
      stroke="none"
      stroke-width="0"
    />
    <rect
      id="rect2531"
      width="130.01802"
      height="41.01041"
      x="-1018.8334"
      y="1516.626"
      transform="matrix(0.15711345,-0.98758056,0.99238074,0.12320903,0,0)"
      fill="#cccccc"
      stroke="none"
      stroke-width="0"
    />
    <rect
      id="rect2535"
      width="146.77823"
      height="41.097904"
      x="1100.6919"
      y="482.23001"
      fill="#cccccc"
      stroke="none"
      stroke-width="0"
    />
    <rect
      id="rect2537"
      width="129.16484"
      height="41.097904"
      x="1084.8966"
      y="618.05609"
      fill="#cccccc"
      stroke="none"
      stroke-width="0"
    />
    <rect
      id="rect2539"
      width="129.16484"
      height="41.097904"
      x="1057.344"
      y="755.8399"
      fill="#cccccc"
      stroke="none"
      stroke-width="0"
    />
    <rect
      id="rect2541"
      width="133.73846"
      height="41.028934"
      x="-490.50247"
      y="1113.9167"
      transform="matrix(0.15274276,-0.98826598,0.99193274,0.12676533,0,0)"
      fill="#cccccc"
      stroke="none"
      stroke-width="0"
    />
    <rect
      id="rect2543"
      width="137.46136"
      height="41.047981"
      x="-466.88843"
      y="1319.3156"
      transform="matrix(0.14860598,-0.98889649,0.99147241,0.13031675,0,0)"
      fill="#cccccc"
      stroke="none"
      stroke-width="0"
    />
    <rect
      id="rect2545"
      width="130.01802"
      height="41.01041"
      x="-629.76105"
      y="1312.1914"
      transform="matrix(0.15711345,-0.98758056,0.99238074,0.12320903,0,0)"
      fill="#cccccc"
      stroke="none"
      stroke-width="0"
    />
    <rect
      id="rect2547"
      width="130.01802"
      height="41.01041"
      x="-654.51202"
      y="1113.7974"
      transform="matrix(0.15711345,-0.98758056,0.99238074,0.12320903,0,0)"
      fill="#cccccc"
      stroke="none"
      stroke-width="0"
    />
    <rect
      id="rect2551"
      width="146.77823"
      height="41.097904"
      x="1439.2745"
      y="482.23001"
      fill="#cccccc"
      stroke="none"
      stroke-width="0"
    />
    <rect
      id="rect2553"
      width="129.16484"
      height="41.097904"
      x="1423.4792"
      y="618.05609"
      fill="#cccccc"
      stroke="none"
      stroke-width="0"
    />
    <rect
      id="rect2555"
      width="129.16484"
      height="41.097904"
      x="1395.9266"
      y="755.8399"
      fill="#cccccc"
      stroke="none"
      stroke-width="0"
    />
    <rect
      id="rect2557"
      width="133.73846"
      height="41.028934"
      x="-447.56717"
      y="1448.6417"
      transform="matrix(0.15274276,-0.98826598,0.99193274,0.12676533,0,0)"
      fill="#cccccc"
      stroke="none"
      stroke-width="0"
    />
    <rect
      id="rect2559"
      width="137.46136"
      height="41.047981"
      x="-422.75793"
      y="1654.1959"
      transform="matrix(0.14860598,-0.98889649,0.99147241,0.13031675,0,0)"
      fill="#cccccc"
      stroke="none"
      stroke-width="0"
    />
    <rect
      id="rect2561"
      width="130.01802"
      height="41.01041"
      x="-588.02026"
      y="1646.7651"
      transform="matrix(0.15711345,-0.98758056,0.99238074,0.12320903,0,0)"
      fill="#cccccc"
      stroke="none"
      stroke-width="0"
    />
    <rect
      id="rect2563"
      width="130.01802"
      height="41.01041"
      x="-612.77118"
      y="1448.3711"
      transform="matrix(0.15711345,-0.98758056,0.99238074,0.12320903,0,0)"
      fill="#cccccc"
      stroke="none"
      stroke-width="0"
    />
    <circle
      id="path2619"
      cx="955.86322"
      cy="777.74347"
      r="20"
      fill="#cccccc"
      stroke="none"
      stroke-width="0"
    />
    <circle
      id="circle2621"
      cx="1294.4537"
      cy="777.74347"
      r="20"
      fill="#cccccc"
      stroke="none"
      stroke-width="0"
    />
    <circle
      id="circle2623"
      cx="1625.1624"
      cy="777.74347"
      r="20"
      fill="#cccccc"
      stroke="none"
      stroke-width="0"
    />
    <circle
      id="circle2625"
      cx="955.86322"
      cy="1187.1707"
      r="20"
      fill="#cccccc"
      stroke="none"
      stroke-width="0"
    />
    <circle
      id="circle2627"
      cx="1294.4537"
      cy="1187.1707"
      r="20"
      fill="#cccccc"
      stroke="none"
      stroke-width="0"
    />
    <circle
      id="circle2629"
      cx="1625.1624"
      cy="1187.1707"
      r="20"
      fill="#cccccc"
      stroke="none"
      stroke-width="0"
    />
    <path
      id="rect13640"
      d="m 672.31752,416.39683 h 191.33908 v -21.83414 h -24.75772 v -313.945787 h 24.75772 v -21.50279 h -191.33908 v 357.285887 z"
      color="#000000"
      fill="#418dd9"
      stroke-width="5.47296"
    />
    <path
      id="path13645"
      d="m 750.96668,331.32892 c 19.68985,0 35.65123,14.92978 35.65123,33.34678 0,18.417 -15.96138,33.34678 -35.65123,33.34678 -19.68984,0 -35.6512,-14.92978 -35.6512,-33.34678 0,-18.417 15.96136,-33.34678 35.6512,-33.34678 z"
      color="#000000"
      fill="#ffd42a"
      stroke="#7d7d7d"
      stroke-width="4.04292"
    />
    <path
      id="path13647"
      d="m 770.11628,384.64835 -38.36288,-35.88315"
      fill="none"
      stroke="#847c5c"
      stroke-width="10.4164"
    />
    <path
      id="path2927"
      d="m 1227.8002,416.38738 h 191.3391 v -21.83414 h -24.7577 v -313.945787 h 24.7577 v -21.50279 h -191.3391 v 357.285887 z"
      color="#000000"
      fill="#418dd9"
      stroke-width="5.47296"
    />
    <path
      id="path2929"
      d="m 1306.4494,331.31947 c 19.6898,0 35.6512,14.92978 35.6512,33.34678 0,18.417 -15.9614,33.34678 -35.6512,33.34678 -19.6899,0 -35.6512,-14.92978 -35.6512,-33.34678 0,-18.417 15.9613,-33.34678 35.6512,-33.34678 z"
      color="#000000"
      fill="#ffd42a"
      stroke="#7d7d7d"
      stroke-width="4.04292"
    />
    <path
      id="path2931"
      d="m 1325.599,384.6389 -38.3629,-35.88315"
      fill="none"
      stroke="#847c5c"
      stroke-width="10.4164"
    />
    <path
      id="path2935"
      d="m 1440.3986,416.38738 h 191.3391 v -21.83414 h -24.7577 v -313.945787 h 24.7577 v -21.50279 h -191.3391 v 357.285887 z"
      color="#000000"
      fill="#418dd9"
      stroke-width="5.47296"
    />
    <path
      id="path2937"
      d="m 1519.0478,331.31947 c 19.6898,0 35.6512,14.92978 35.6512,33.34678 0,18.417 -15.9614,33.34678 -35.6512,33.34678 -19.6899,0 -35.6512,-14.92978 -35.6512,-33.34678 0,-18.417 15.9613,-33.34678 35.6512,-33.34678 z"
      color="#000000"
      fill="#ffd42a"
      stroke="#7d7d7d"
      stroke-width="4.04292"
    />
    <path
      id="path2939"
      d="m 1538.1974,384.6389 -38.3629,-35.88315"
      fill="none"
      stroke="#847c5c"
      stroke-width="10.4164"
    />
    <path
      id="path2943"
      d="m 1660.871,416.38738 h 191.3391 v -21.83414 h -24.7577 v -313.945787 h 24.7577 v -21.50279 h -191.3391 v 357.285887 z"
      color="#000000"
      fill="#418dd9"
      stroke-width="5.47296"
    />
    <path
      id="path2945"
      d="m 1739.5202,331.31947 c 19.6898,0 35.6512,14.92978 35.6512,33.34678 0,18.417 -15.9614,33.34678 -35.6512,33.34678 -19.6899,0 -35.6512,-14.92978 -35.6512,-33.34678 0,-18.417 15.9613,-33.34678 35.6512,-33.34678 z"
      color="#000000"
      fill="#ffd42a"
      stroke="#7d7d7d"
      stroke-width="4.04292"
    />
    <path
      id="path2947"
      d="m 1758.6698,384.6389 -38.3629,-35.88315"
      fill="none"
      stroke="#847c5c"
      stroke-width="10.4164"
    />
    <rect
      x="484.89413"
      stroke-width="0"
      id="connector0pin"
      width="63.653908"
      y="-121.32558"
      fill="none"
      height="121.32558"
      gorn="0.0.5"
      transform="rotate(90)"
    />
    <rect
      x="686.8194"
      stroke-width="0"
      id="connector1pin"
      width="63.653908"
      y="-121.32558"
      fill="none"
      height="121.32558"
      gorn="0.0.8"
      transform="rotate(90)"
    />
    <circle
      id="connector2pin"
      cx="191.66638"
      cy="873.79596"
      r="29"
      fill="#ffffff"
      stroke="#999999"
      stroke-width="20"
    />
    <circle
      id="connector3pin"
      cx="291.66635"
      cy="873.79596"
      r="29"
      fill="#ffffff"
      stroke="#999999"
      stroke-width="20"
    />
    <rect
      x="-750.2536"
      stroke-width="0"
      id="connector4pin"
      width="63.653912"
      y="2348.8367"
      fill="none"
      height="121.32558"
      gorn="0.0.5"
      transform="rotate(-90)"
    />
    <rect
      x="-548.32837"
      stroke-width="0"
      id="connector5pin"
      width="63.653912"
      y="2348.8367"
      fill="none"
      height="121.32558"
      gorn="0.0.8"
      transform="rotate(-90)"
    />
  </g>
</svg>
