<?xml version="1.0" encoding="UTF-8"?>
<!DOCTYPE svg PUBLIC "-//W3C//DTD SVG 1.1//EN" "http://www.w3.org/Graphics/SVG/1.1/DTD/svg11.dtd">
<!-- Creator: CorelDRAW X6 -->
<svg xmlns="http://www.w3.org/2000/svg" xml:space="preserve" width="6.63023in" height="6.82952in" version="1.1" shape-rendering="geometricPrecision" text-rendering="geometricPrecision" image-rendering="optimizeQuality" fill-rule="evenodd" clip-rule="evenodd"
viewBox="0 0 654769 674450"
 xmlns:xlink="http://www.w3.org/1999/xlink">
 <g id="breadboard">
  <metadata id="CorelCorpID_0Corel-Layer"/>
  <g id="_728042720">
   <rect fill="#D1D3D4" x="203" width="654566" height="674450"/>
   <rect fill="#1E1E1E" x="15971" y="45136" width="621740" height="610076"/>
   <line fill="none" stroke="#D1D3D4" stroke-width="3870.89" x1="637724" y1="49600" x2="637724" y2= "658386" />
   <rect fill="#D1D3D4" x="325170" y="45136" width="2580" height="610192"/>
   <line fill="none" stroke="#D1D3D4" stroke-width="2580.47" x1="20913" y1="45149" x2="634253" y2= "45149" />
   <rect fill="#D1D3D4" transform="matrix(0.7071 0.7071 -0.7071 0.7071 326463 29165)" width="22581" height="22581"/>
   <rect fill="#D1D3D4" x="405467" y="45252" width="2580" height="610089"/>
   <rect fill="#D1D3D4" x="482409" y="45252" width="2580" height="609960"/>
   <rect fill="#D1D3D4" x="559312" y="45136" width="2580" height="610192"/>
   <rect fill="#D1D3D4" x="247919" y="45252" width="2580" height="610089"/>
   <rect fill="#D1D3D4" x="168913" y="45252" width="2580" height="609960"/>
   <rect fill="#D1D3D4" x="89984" y="45136" width="2580" height="610076"/>
   <rect fill="#D1D3D4" x="15971" y="195381" width="621753" height="2580"/>
   <rect fill="#D1D3D4" x="15971" y="348890" width="621753" height="2580"/>
   <rect fill="#D1D3D4" x="15584" y="501161" width="621753" height="2580"/>
   <rect fill="#D1D3D4" transform="matrix(0.7071 0.7071 -0.7071 0.7071 483698 29169.5)" width="22581" height="22581"/>
   <rect fill="#D1D3D4" transform="matrix(0.7071 0.7071 -0.7071 0.7071 170205 29170.1)" width="22581" height="22581"/>
   <rect fill="#D1D3D4" transform="matrix(0.7071 0.7071 -0.7071 0.7071 170198 180701)" width="22581" height="22581"/>
   <rect fill="#D1D3D4" transform="matrix(0.7071 0.7071 -0.7071 0.7071 326456 180696)" width="22581" height="22581"/>
   <rect fill="#D1D3D4" transform="matrix(0.7071 0.7071 -0.7071 0.7071 483691 180700)" width="22581" height="22581"/>
   <rect fill="#D1D3D4" transform="matrix(0.7071 0.7071 -0.7071 0.7071 483693 334325)" width="22581" height="22581"/>
   <rect fill="#D1D3D4" transform="matrix(0.7071 0.7071 -0.7071 0.7071 326459 334204)" width="22581" height="22581"/>
   <rect fill="#D1D3D4" transform="matrix(0.7071 0.7071 -0.7071 0.7071 170200 334210)" width="22581" height="22581"/>
   <rect fill="#D1D3D4" transform="matrix(0.7071 0.7071 -0.7071 0.7071 483698 486480)" width="22581" height="22581"/>
   <rect fill="#D1D3D4" transform="matrix(0.7071 0.7071 -0.7071 0.7071 326463 486475)" width="22581" height="22581"/>
   <rect fill="#D1D3D4" transform="matrix(0.7071 0.7071 -0.7071 0.7071 170204 486481)" width="22581" height="22581"/>
   <rect fill="#D1D3D4" transform="matrix(0.7071 0.7071 -0.7071 0.7071 170201 639368)" width="22581" height="22581"/>
   <rect fill="#D1D3D4" transform="matrix(0.7071 0.7071 -0.7071 0.7071 326460 639363)" width="22581" height="22581"/>
   <rect fill="#D1D3D4" transform="matrix(0.7071 0.7071 -0.7071 0.7071 483695 639367)" width="22581" height="22581"/>
   <rect fill="#D1D3D4" transform="matrix(0.7071 0.7071 -0.7071 0.7071 15967.3 29284.7)" width="22581" height="22581"/>
   <rect fill="#D1D3D4" transform="matrix(0.7071 0.7071 -0.7071 0.7071 637693 29275.4)" width="22581" height="22581"/>
   <rect fill="#D1D3D4" transform="matrix(0.7071 0.7071 -0.7071 0.7071 637699 639232)" width="22581" height="22581"/>
   <rect fill="#D1D3D4" transform="matrix(0.7071 0.7071 -0.7071 0.7071 15973.6 639241)" width="22581" height="22581"/>
   <rect fill="#D1D3D4" transform="matrix(0.7071 0.7071 -0.7071 0.7071 637724 486475)" width="22581" height="22581"/>
   <rect fill="#D1D3D4" transform="matrix(0.7071 0.7071 -0.7071 0.7071 637334 334201)" width="22581" height="22581"/>
   <rect fill="#D1D3D4" transform="matrix(0.7071 0.7071 -0.7071 0.7071 637692 180693)" width="22581" height="22581"/>
   <rect fill="#D1D3D4" transform="matrix(0.7071 0.7071 -0.7071 0.7071 15966.9 180702)" width="22581" height="22581"/>
   <rect fill="#D1D3D4" transform="matrix(0.7071 0.7071 -0.7071 0.7071 15969.1 334211)" width="22581" height="22581"/>
   <rect fill="#D1D3D4" transform="matrix(0.7071 0.7071 -0.7071 0.7071 15973.5 486482)" width="22581" height="22581"/>
   <g>
    <circle fill="#6D6E71" cx="19842" cy="651341" r="3871"/>
    <circle fill="#6D6E71" cx="633827" cy="651341" r="3871"/>
    <circle fill="#6D6E71" cx="19726" cy="49007" r="3871"/>
    <circle fill="#6D6E71" cx="633827" cy="49007" r="3871"/>
   </g>
   <rect fill="black" x="260177" y="20143" width="129974" height="9032"/>
  </g>
  <rect id="connector0pin" fill="#ED3237" x="381622" y="20708" width="7900" height="7900"/>
  <rect id="connector1pin" fill="#ED3237" x="260754" y="20708" width="7900" height="7900"/>
 </g>
</svg>
