<?xml version='1.0' encoding='UTF-8' standalone='no'?>
<svg
  xmlns="http://www.w3.org/2000/svg"
  xmlns:svg="http://www.w3.org/2000/svg"
  xmlns:rdf="http://www.w3.org/1999/02/22-rdf-syntax-ns#"
  xmlns:cc="http://creativecommons.org/ns#"
  xmlns:dc="http://purl.org/dc/elements/1.1/"
  id="svg2"
  y="0in"
  version="1.2"
  height="1.1811024in"
  width="2.0027692in"
  x="0in"
  viewBox="0 0 2002.7691 1181.1023"
  xml:space="preserve">
  <metadata
    id="metadata24">
    <rdf:RDF>
      <cc:Work
        rdf:about="">
        <dc:format>image/svg+xml</dc:format>
        <dc:type
          rdf:resource="http://purl.org/dc/dcmitype/StillImage"
        />
      </cc:Work>
    </rdf:RDF>
  </metadata>
  <defs
    id="defs22"
  />
  <desc
    id="desc4">
    <referenceFile>X804_1_breadboard.svg</referenceFile>
  </desc>
  <g
    id="breadboard">
    <rect
      id="rect1"
      width="1179.9672"
      height="1967.3687"
      x="-1180.5347"
      y="16.463661"
      transform="rotate(-90)"
      fill="#0044aa"
      stroke="#808080"
      stroke-width="1.13513"
      stroke-miterlimit="1.41421"
    />
    <rect
      id="rect2"
      width="613.04401"
      height="782.01984"
      x="-1028.1948"
      y="497.58646"
      transform="rotate(-90)"
      fill="#00aad4"
      stroke="#808080"
      stroke-width="0.515849"
      stroke-miterlimit="1.41421"
    />
    <rect
      id="rect925"
      connectorname="2"
      x="1368.3379"
      y="609.41827"
      width="57.166664"
      height="22.479166"
      fill="#8c8c8c"
      stroke="none"
      stroke-width="0"
      stroke-linecap="round"
    />
    <rect
      id="rect935"
      connectorname="7"
      x="1368.3403"
      y="468.96515"
      width="57.16317"
      height="22.484209"
      fill="#8c8c8c"
      stroke="none"
      stroke-width="0"
      stroke-linecap="round"
    />
    <rect
      id="rect939"
      connectorname="EP"
      x="1342.0598"
      y="498.53888"
      width="126.69878"
      height="104.70357"
      fill="#c8beb7"
      stroke="#917c6f"
      stroke-width="0"
      stroke-linecap="round"
    />
    <rect
      id="rect941"
      x="1316.7883"
      y="481.67731"
      width="166.66666"
      height="138.42674"
      fill="#917c6f"
      stroke="none"
      stroke-width="0"
    />
    <polygon
      transform="matrix(1.23774,0,0,1.0228753,1316.7884,433.70292)"
      id="polygon943"
      points="10,56.9016 0,46.9016 134.654,46.9016 124.654,56.9016 "
      fill="#803300"
      stroke-width="1.15931"
    />
    <polygon
      transform="matrix(1.23774,0,0,1.0228753,1316.7884,433.70292)"
      id="polygon945"
      points="124.654,172.232 10,172.232 0,182.232 134.654,182.232 "
      fill="#784421"
      stroke-width="1.15931"
    />
    <polygon
      transform="matrix(1.23774,0,0,1.0228753,1316.7884,433.70292)"
      id="polygon947"
      points="10,56.9016 0,46.9016 0,182.232 10,172.232 "
      fill="#a05a2c"
      stroke-width="1.15931"
    />
    <polygon
      transform="matrix(1.23774,0,0,1.0228753,1316.7884,433.70292)"
      id="polygon949"
      points="124.654,172.232 124.654,56.9016 134.654,46.9016 134.654,182.232 "
      fill="#a05a2c"
      stroke-width="1.15931"
    />
    <rect
      height="37.236099"
      width="110.639"
      x="38.445129"
      id="rect3806"
      y="-556.28729"
      transform="rotate(90)"
      fill="#4d4d4d"
    />
    <rect
      height="0.63888901"
      width="110.639"
      enable-background="new    "
      x="38.445129"
      id="rect3808"
      y="-556.28729"
      transform="rotate(90)"
      opacity="0.2"
      fill="#ffffff"
    />
    <rect
      height="11.0972"
      width="110.639"
      y="-528.09283"
      x="38.445129"
      id="rect3810"
      transform="rotate(90)"
      fill="#333333"
    />
    <rect
      height="0.444444"
      width="110.639"
      y="-517.37054"
      enable-background="new    "
      x="38.445129"
      id="rect3812"
      transform="rotate(90)"
      opacity="0.2"
    />
    <path
      d="m 556.28723,133.01462 v 0 0 -1.2917 0 c -3.4861,-1.1111 -11.0556,-1.875 -14.9306,-1.875 -4.0417,0 -9.625,0.6667 -13.2639,1.875 v 0 0 l 1e-4,16.9861 h 28.1944 z"
      id="path3814"
      fill="#dcdcdc"
    />
    <path
      d="m 554.84283,55.736819 h 1.4444 v -16.9723 h -28.1944 v 16.9861 c 3.6527,1.2223 9.1527,2.6806 13.25,2.6806 4.8055,0 9.3194,-1.0416 13.5,-2.6944 z"
      id="path3816"
      fill="#dcdcdc"
    />
    <path
      d="m 526.62053,148.80602 v -16.9859 l 1.4723,-0.097 v 16.9861 z"
      id="path3818"
      fill="#999999"
    />
    <path
      d="m 526.59283,38.847919 v 16.9861 l 1.5,-0.097 v -16.9723 l -1.5,0.083 z"
      id="path3820"
      fill="#999999"
    />
    <rect
      height="0.63888901"
      width="16.986099"
      y="-517.565"
      enable-background="new    "
      x="38.764587"
      id="rect3822"
      transform="rotate(90)"
      opacity="0.15"
    />
    <rect
      height="0.63888901"
      width="16.986099"
      enable-background="new    "
      x="38.764587"
      id="rect3824"
      y="-556.28729"
      transform="rotate(90)"
      opacity="0.5"
      fill="#ffffff"
    />
    <rect
      height="0.63888901"
      width="17"
      y="-517.565"
      enable-background="new    "
      x="131.73676"
      id="rect3826"
      transform="rotate(90)"
      opacity="0.15"
    />
    <rect
      height="0.63888901"
      width="17"
      enable-background="new    "
      x="131.73676"
      id="rect3828"
      y="-556.28729"
      transform="rotate(90)"
      opacity="0.5"
      fill="#ffffff"
    />
    <line
      x1="516.92621"
      y2="49.028381"
      y1="49.028381"
      x2="516.92621"
      id="line3830"
      fill="none"
    />
    <rect
      height="9.6111097"
      width="1.63889"
      y="-526.62054"
      x="147.43097"
      id="rect3832"
      transform="rotate(90)"
      fill="#999999"
    />
    <rect
      height="9.6111097"
      width="1.6527801"
      y="-526.62054"
      x="38.764587"
      id="rect3834"
      transform="rotate(90)"
      fill="#999999"
    />
    <rect
      transform="rotate(179.99985)"
      id="_x30_.1.7.0.0.0.0.0.0-5"
      height="14.430561"
      y="-324.19485"
      x="-999.71545"
      width="17.666681"
      fill="#cccccc"
      stroke-width="13.8889"
    />
    <rect
      transform="rotate(179.99985)"
      id="_x30_.1.7.0.0.0.0.1.0-7"
      height="14.402781"
      y="-54.884048"
      x="-999.72424"
      width="17.666681"
      fill="#cccccc"
      stroke-width="13.8889"
    />
    <rect
      transform="rotate(179.99985)"
      enable-background="new    "
      id="_x30_.1.7.0.0.0.0.2.0-3"
      height="14.430561"
      y="-324.19144"
      x="-999.74597"
      width="2.8194468"
      opacity="0.1"
      stroke-width="13.8889"
    />
    <rect
      transform="rotate(179.99985)"
      enable-background="new    "
      id="_x30_.1.7.0.0.0.0.3.0-1"
      height="14.402781"
      y="-54.873795"
      x="-999.76038"
      width="2.8194468"
      opacity="0.1"
      stroke-width="13.8889"
    />
    <rect
      transform="rotate(179.99985)"
      enable-background="new    "
      id="_x30_.1.7.0.0.0.0.4.0-9"
      height="14.430561"
      y="-324.19485"
      x="-984.88196"
      width="2.8333356"
      opacity="0.2"
      fill="#ffffff"
      stroke-width="13.8889"
    />
    <rect
      transform="rotate(179.99985)"
      enable-background="new    "
      id="_x30_.1.7.0.0.0.0.5.0-0"
      height="14.402781"
      y="-54.884048"
      x="-984.90344"
      width="2.8333356"
      opacity="0.2"
      fill="#ffffff"
      stroke-width="13.8889"
    />
    <path
      d="m 863.06803,107.78522 v 182.7362 c 0,10.5555 8.6528,19.2361 19.2083,19.2361 h 216.38907 c 10.6111,0 19.2639,-8.6806 19.2639,-19.2361 v -182.7362 l -52.9306,-52.916701 h -50.4584 -50.48607 -48.0973 z"
      id="_x30_.1.7.0.0.0.0.6-5"
      fill="#1a1a1a"
      stroke-width="13.8889"
    />
    <ellipse
      ry="120.8751"
      rx="120.87504"
      transform="rotate(90)"
      id="_x30_.1.7.0.0.0.0.7-4"
      cy="-990.49884"
      cx="182.31281"
      fill="#e6e6e6"
      stroke-width="13.8889"
    />
    <path
      d="m 863.06803,107.78522 v 182.7362 c 0,10.5555 8.6528,19.2361 19.2083,19.2361 h 216.38907 c 10.6111,0 19.2639,-8.6806 19.2639,-19.2361 v -38.2223 -144.5139 l -52.9306,-52.916701 h -50.4584 -50.48607 -48.0973 z"
      id="_x30_.1.7.0.0.0.0.8-6"
      fill="#333333"
      stroke-width="13.8889"
    />
    <path
      d="m 1062.457,54.882419 52.9306,52.930601 v 144.5 38.2223 c 0,10.5555 -8.6527,19.2361 -19.2639,19.2361 h 2.5556 c 10.6111,0 19.2639,-8.6806 19.2639,-19.2361 v -38.2362 -144.5139 l -52.9306,-52.916701 h -2.5556 z"
      id="_x30_.1.7.0.0.0.0.9-8"
      stroke-width="13.8889"
    />
    <path
      d="m 884.84583,309.74362 c -10.5695,0 -19.2223,-8.6806 -19.2223,-19.2361 v -182.7362 l 52.8751,-52.930601 h -2.5417 l -52.8889,52.930601 v 182.7362 c 0,10.5555 8.6528,19.2361 19.2083,19.2361 z"
      enable-background="new    "
      id="_x30_.1.7.0.0.0.0.10-4"
      opacity="0.1"
      fill="#ffffff"
      stroke-width="13.8889"
    />
    <path
      d="m 1113.0543,182.31302 c 0,26.125 -8.3889,50.2084 -22.4167,69.9861 -21.9305,30.7639 -57.8195,50.8889 -98.44447,50.8889 -40.6528,0 -76.514,-20.125 -98.4306,-50.8889 -14.0695,-19.7777 -22.4306,-43.8611 -22.4306,-69.9861 0,-66.7361 54.1111,-120.861101 120.8751,-120.861101 66.72227,0 120.84727,54.138901 120.84727,120.861101 z"
      id="_x30_.1.7.0.0.0.0.11-8"
      fill="#e6e6e6"
      stroke-width="13.8889"
    />
    <path
      d="m 990.49873,303.20192 c 40.63887,0 76.51387,-20.125 98.44447,-50.8889 h -196.87517 c 21.9028,30.75 57.7778,50.8889 98.4307,50.8889 z"
      id="_x30_.1.7.0.0.0.0.12-1"
      stroke-width="13.8889"
    />
    <path
      d="m 993.88753,61.451919 c -66.7639,0 -120.8751,54.125001 -120.8751,120.861101 0,26.125 8.3889,50.2084 22.4445,69.9861 21.9167,30.7639 57.7917,50.8889 98.4306,50.8889 h -3.3888 c -40.6529,0 -76.5279,-20.125 -98.4307,-50.8889 -14.0833,-19.7777 -22.4306,-43.8611 -22.4306,-69.9861 0,-66.7361 54.1112,-120.861101 120.8613,-120.861101 z"
      enable-background="new    "
      id="_x30_.1.7.0.0.0.0.13-6"
      opacity="0.3"
      fill="#ffffff"
      stroke-width="13.8889"
    />
    <path
      d="m 987.31813,303.20192 c 40.62497,0 76.50007,-20.125 98.44447,-50.8889 h 3.1806 c -21.9306,30.7639 -57.8056,50.8889 -98.44447,50.8889 z"
      enable-background="new    "
      id="_x30_.1.7.0.0.0.0.14-0"
      opacity="0.5"
      fill="#ffffff"
      stroke-width="13.8889"
    />
    <path
      d="m 1085.7626,252.29912 c 14.0556,-19.7777 22.4306,-43.8611 22.4306,-69.9861 0,-66.7361 -54.1389,-120.861101 -120.87507,-120.861101 h 3.1806 c 66.73607,0 120.87507,54.125001 120.87507,120.861101 0,26.125 -8.3889,50.2084 -22.4306,69.9861 z"
      enable-background="new    "
      id="_x30_.1.7.0.0.0.0.15-7"
      opacity="0.2"
      stroke-width="13.8889"
    />
    <rect
      transform="rotate(179.99985)"
      id="_x30_.1.7.0.0.0.0.0.0"
      height="14.430561"
      y="-1165.5704"
      x="-1658.42"
      width="17.666681"
      fill="#cccccc"
      stroke-width="13.8889"
    />
    <rect
      transform="rotate(179.99985)"
      id="_x30_.1.7.0.0.0.0.1.0"
      height="14.402781"
      y="-896.25964"
      x="-1658.4288"
      width="17.666681"
      fill="#cccccc"
      stroke-width="13.8889"
    />
    <rect
      transform="rotate(179.99985)"
      enable-background="new    "
      id="_x30_.1.7.0.0.0.0.2.0"
      height="14.430561"
      y="-1165.567"
      x="-1658.4506"
      width="2.8194468"
      opacity="0.1"
      stroke-width="13.8889"
    />
    <rect
      transform="rotate(179.99985)"
      enable-background="new    "
      id="_x30_.1.7.0.0.0.0.3.0"
      height="14.402781"
      y="-896.24939"
      x="-1658.465"
      width="2.8194468"
      opacity="0.1"
      stroke-width="13.8889"
    />
    <rect
      transform="rotate(179.99985)"
      enable-background="new    "
      id="_x30_.1.7.0.0.0.0.4.0"
      height="14.430561"
      y="-1165.5704"
      x="-1643.5865"
      width="2.8333356"
      opacity="0.2"
      fill="#ffffff"
      stroke-width="13.8889"
    />
    <rect
      transform="rotate(179.99985)"
      enable-background="new    "
      id="_x30_.1.7.0.0.0.0.5.0"
      height="14.402781"
      y="-896.25964"
      x="-1643.608"
      width="2.8333356"
      opacity="0.2"
      fill="#ffffff"
      stroke-width="13.8889"
    />
    <path
      d="m 1521.775,949.15892 v 182.73618 c 0,10.5555 8.6528,19.2361 19.2083,19.2361 h 216.3891 c 10.6111,0 19.2639,-8.6806 19.2639,-19.2361 v -182.73618 l -52.9306,-52.9167 h -50.4584 -50.4861 -48.0973 z"
      id="_x30_.1.7.0.0.0.0.6"
      fill="#1a1a1a"
      stroke-width="13.8889"
    />
    <ellipse
      ry="120.8751"
      rx="120.87504"
      transform="rotate(90)"
      id="_x30_.1.7.0.0.0.0.7"
      cy="-1649.2058"
      cx="1023.6866"
      fill="#e6e6e6"
      stroke-width="13.8889"
    />
    <path
      d="m 1521.775,949.15892 v 182.73618 c 0,10.5555 8.6528,19.2361 19.2083,19.2361 h 216.3891 c 10.6111,0 19.2639,-8.6806 19.2639,-19.2361 v -38.2223 -144.51388 l -52.9306,-52.9167 h -50.4584 -50.4861 -48.0973 z"
      id="_x30_.1.7.0.0.0.0.8"
      fill="#333333"
      stroke-width="13.8889"
    />
    <path
      d="m 1721.164,896.25612 52.9306,52.9306 v 144.49998 38.2223 c 0,10.5555 -8.6527,19.2361 -19.2639,19.2361 h 2.5556 c 10.6111,0 19.2639,-8.6806 19.2639,-19.2361 v -38.2362 -144.51388 l -52.9306,-52.9167 h -2.5556 z"
      id="_x30_.1.7.0.0.0.0.9"
      stroke-width="13.8889"
    />
    <path
      d="m 1543.5528,1151.1173 c -10.5695,0 -19.2223,-8.6806 -19.2223,-19.2361 v -182.73618 l 52.8751,-52.9306 h -2.5417 l -52.8889,52.9306 v 182.73618 c 0,10.5555 8.6528,19.2361 19.2083,19.2361 z"
      enable-background="new    "
      id="_x30_.1.7.0.0.0.0.10"
      opacity="0.1"
      fill="#ffffff"
      stroke-width="13.8889"
    />
    <path
      d="m 1771.7613,1023.6867 c 0,26.125 -8.3889,50.2084 -22.4167,69.9861 -21.9305,30.7639 -57.8195,50.8889 -98.4445,50.8889 -40.6528,0 -76.514,-20.125 -98.4306,-50.8889 -14.0695,-19.7777 -22.4306,-43.8611 -22.4306,-69.9861 0,-66.73608 54.1111,-120.86108 120.8751,-120.86108 66.7223,0 120.8473,54.1389 120.8473,120.86108 z"
      id="_x30_.1.7.0.0.0.0.11"
      fill="#e6e6e6"
      stroke-width="13.8889"
    />
    <path
      d="m 1649.2057,1144.5756 c 40.6389,0 76.5139,-20.125 98.4445,-50.8889 h -196.8752 c 21.9028,30.75 57.7778,50.8889 98.4307,50.8889 z"
      id="_x30_.1.7.0.0.0.0.12"
      stroke-width="13.8889"
    />
    <path
      d="m 1652.5945,902.82562 c -66.7639,0 -120.8751,54.125 -120.8751,120.86108 0,26.125 8.3889,50.2084 22.4445,69.9861 21.9167,30.7639 57.7917,50.8889 98.4306,50.8889 h -3.3888 c -40.6529,0 -76.5279,-20.125 -98.4307,-50.8889 -14.0833,-19.7777 -22.4306,-43.8611 -22.4306,-69.9861 0,-66.73608 54.1112,-120.86108 120.8613,-120.86108 z"
      enable-background="new    "
      id="_x30_.1.7.0.0.0.0.13"
      opacity="0.3"
      fill="#ffffff"
      stroke-width="13.8889"
    />
    <path
      d="m 1646.0251,1144.5756 c 40.625,0 76.5001,-20.125 98.4445,-50.8889 h 3.1806 c -21.9306,30.7639 -57.8056,50.8889 -98.4445,50.8889 z"
      enable-background="new    "
      id="_x30_.1.7.0.0.0.0.14"
      opacity="0.5"
      fill="#ffffff"
      stroke-width="13.8889"
    />
    <path
      d="m 1744.4696,1093.6728 c 14.0556,-19.7777 22.4306,-43.8611 22.4306,-69.9861 0,-66.73608 -54.1389,-120.86108 -120.8751,-120.86108 h 3.1806 c 66.7361,0 120.8751,54.125 120.8751,120.86108 0,26.125 -8.3889,50.2084 -22.4306,69.9861 z"
      enable-background="new    "
      id="_x30_.1.7.0.0.0.0.15"
      opacity="0.2"
      stroke-width="13.8889"
    />
    <text
      x="824.29791"
      y="538.95905"
      font-size="60"
      id="text109"
      font-family="OCRA"
      fill="#ffffff"
      stroke-width="1">SONGLE</text>
    <polygon
      id="background-4-4"
      fill="#37c837"
      points="3.98829,72.4061 0,72.4061 0,157.607 196.012,157.607 196.012,72.4061 200,72.4061 200,39.9487 196.012,39.9487 196.012,0 0,0 0,39.9487 3.98829,39.9487 "
      gorn="0.0.0"
      transform="matrix(0,-2.0590957,2.0590957,0,1652.8084,807.93142)"
    />
    <rect
      x="-804.31573"
      stroke-width="0"
      id="upperstripe-1-3"
      width="396.8804"
      y="1657.7124"
      fill="#217821"
      height="11.861132"
      gorn="0.0.1"
      transform="rotate(-90)"
    />
    <rect
      x="-807.93146"
      stroke-width="0"
      id="lowerrect-5-2"
      width="403.60745"
      y="1830.1267"
      fill="#2ca02c"
      height="147.18086"
      gorn="0.0.2"
      transform="rotate(-90)"
    />
    <path
      fill="#217821"
      d="m 1821.6302,706.97352 c 0,-39.2395 -32.4471,-71.1918 -72.4215,-71.1918 v 142.4116 c 40.0028,0.028 72.4215,-31.896 72.4215,-71.2198 z"
      id="path14888-35"
      stroke-width="2.0591"
    />
    <path
      fill="#2ca02c"
      d="m 1676.8158,706.97352 c 0,39.2956 32.4757,71.2198 72.3929,71.2198 v -142.4116 c -39.9743,2e-4 -72.3929,31.8962 -72.3929,71.1918 z"
      id="path14890-8"
      stroke-width="2.0591"
    />
    <path
      fill="#8b8b8b"
      d="m 1807.9442,706.97352 c 0,31.8962 -26.3455,57.7943 -58.7926,57.7943 -32.39,0 -58.7639,-25.8981 -58.7639,-57.7943 0,-31.8682 26.3455,-57.7663 58.7639,-57.7663 32.4471,0.028 58.7926,25.9263 58.7926,57.7663 z"
      id="path14894-9"
      stroke-width="2.0591"
    />
    <path
      d="m 1691.5283,706.97352 c 0,-31.3075 25.8321,-56.6451 57.6233,-56.6451 31.8199,0 57.652,25.3376 57.652,56.6451 0,31.3075 -25.8321,56.7013 -57.652,56.7013 -31.7912,0.028 -57.6233,-25.3655 -57.6233,-56.7013 m -2.11,0 c 0,32.4287 26.8302,58.8593 59.819,58.8593 32.9888,0 59.876,-26.3746 59.876,-58.8593 0,-32.3727 -26.8016,-58.8032 -59.876,-58.8032 -32.989,0.028 -59.819,26.4027 -59.819,58.8032 z"
      id="path14896-4"
      stroke-width="2.0591"
    />
    <path
      fill="#707070"
      d="m 1735.6654,761.96502 c 4.3624,1.0371 8.9243,1.7378 13.5719,1.7378 4.7045,0 9.181,-0.7007 13.6574,-1.7377 v -109.9269 c -4.3624,-1.037 -8.8958,-1.7377 -13.6574,-1.7377 -4.6475,0 -9.124,0.6446 -13.5719,1.7377 z"
      id="path14900-3"
      stroke-width="2.0591"
    />
    <rect
      x="-720.34308"
      stroke-width="0"
      width="26.682997"
      y="1700.3384"
      fill="#545252"
      height="97.740334"
      id="rect14904-36"
      transform="rotate(-90)"
    />
    <rect
      x="-749.01593"
      stroke-width="0"
      width="84.056816"
      y="1735.6653"
      fill="#545252"
      height="27.115202"
      id="rect14906-0"
      transform="rotate(-90)"
    />
    <path
      d="m 1696.2897,706.97352 c 0,-28.6169 23.7509,-51.9643 52.8619,-51.9643 29.1682,0 52.8904,23.3474 52.8904,51.9643 0,28.6729 -23.7509,52.0204 -52.8904,52.0204 -29.111,0.028 -52.8619,-23.3193 -52.8619,-52.0204 m -4.7614,0 c 0,31.3075 25.8321,56.7011 57.6233,56.7011 31.8199,0 57.652,-25.3936 57.652,-56.7011 0,-31.3075 -25.8321,-56.6451 -57.652,-56.6451 -31.7912,-0.056 -57.6233,25.3376 -57.6233,56.6451 z"
      id="path14910-7"
      opacity="0.5"
      stroke-width="2.0591"
    />
    <rect
      x="-778.2215"
      stroke-width="0"
      width="142.43959"
      y="1846.2935"
      fill="#165016"
      height="57.965603"
      id="rect14919-9"
      transform="rotate(-90)"
    />
    <rect
      x="-778.2215"
      stroke-width="0"
      width="142.43959"
      y="1904.2878"
      fill="#217821"
      height="60.132595"
      id="rect14921-9"
      transform="rotate(-90)"
    />
    <rect
      x="-741.86871"
      stroke-width="0"
      width="69.734367"
      y="1905.0291"
      fill="#165016"
      height="72.221756"
      id="rect14923-0"
      transform="rotate(-90)"
    />
    <rect
      x="-772.39166"
      stroke-width="0"
      width="130.83597"
      y="1851.3684"
      fill="#8d8c8c"
      height="108.86028"
      id="rect14925-7"
      transform="rotate(-90)"
    />
    <path
      fill="#a0a0a0"
      d="m 1953.842,706.97352 c 0,-31.0273 -18.7041,-56.2806 -41.9131,-56.2806 v 112.6735 c 23.2083,-0.056 41.9131,-25.2814 41.9131,-56.3929 z"
      id="path14927-3"
      stroke-width="2.0591"
    />
    <path
      fill="#565656"
      d="m 1870.216,706.97352 c 0,31.0833 18.7041,56.3929 41.8276,56.3929 v -112.6735 c -23.1249,0.028 -41.8276,25.1973 -41.8276,56.2806 z"
      id="path14929-3"
      stroke-width="2.0591"
    />
    <ellipse
      stroke-width="0"
      cy="1912.0425"
      rx="43.668064"
      fill="#383838"
      cx="-707.00177"
      ry="32.447025"
      id="ellipse14931-23"
      transform="rotate(-90)"
    />
    <polygon
      fill="#919291"
      points="18.1175,96.0569 80.8004,96.9431 79.9292,104.157 76.989,103.271 67.0115,116.467 30.8446,116.467 21.8335,103.631 17.2599,103.271 "
      id="polygon14933-1"
      transform="matrix(0,-2.0590957,2.0590957,0,1652.8084,807.93142)"
    />
    <path
      fill="#57585a"
      d="m 1854.2483,645.14322 h 9.3806 v 4.2323 1.8219 l 1.4826,1.0371 25.6892,18.5827 v 71.8083 l -25.7181,18.8912 -1.4537,1.093 v 1.7659 4.4002 h -9.3806 v -123.6326 m -3.6496,-3.5876 v 130.836 h 16.6798 v -7.988 l 27.1722,-19.9842 v -75.34 l -27.1722,-19.6478 v -7.8199 z"
      id="path14935-6"
      stroke-width="2.0591"
    />
    <rect
      x="-736.31915"
      stroke-width="0"
      width="58.691231"
      y="1959.8298"
      fill="#8c8c8c"
      height="42.91114"
      id="rect14941-5"
      transform="rotate(-90)"
    />
    <path
      fill="#217821"
      d="m 1821.6302,501.06392 c 0,-39.2395 -32.4471,-71.1918 -72.4215,-71.1918 v 142.4116 c 40.0028,0.028 72.4215,-31.896 72.4215,-71.2198 z"
      id="path14947-8"
      stroke-width="2.0591"
    />
    <path
      fill="#2ca02c"
      d="m 1676.8158,501.06392 c 0,39.2956 32.4757,71.2198 72.3929,71.2198 v -142.4116 c -39.9743,2e-4 -72.3929,31.8962 -72.3929,71.1918 z"
      id="path14949-2"
      stroke-width="2.0591"
    />
    <path
      fill="#8b8b8b"
      d="m 1807.9442,501.06392 c 0,31.8962 -26.3455,57.7943 -58.7926,57.7943 -32.39,0 -58.7639,-25.8981 -58.7639,-57.7943 0,-31.8682 26.3455,-57.7663 58.7639,-57.7663 32.4471,0.028 58.7926,25.9263 58.7926,57.7663 z"
      id="path14953-0"
      stroke-width="2.0591"
    />
    <path
      d="m 1691.5283,501.06392 c 0,-31.3075 25.8321,-56.6451 57.6233,-56.6451 31.8199,0 57.652,25.3376 57.652,56.6451 0,31.3075 -25.8321,56.7013 -57.652,56.7013 -31.7912,0.028 -57.6233,-25.3655 -57.6233,-56.7013 m -2.11,0 c 0,32.4287 26.8302,58.8593 59.819,58.8593 32.9888,0 59.876,-26.3746 59.876,-58.8593 0,-32.3727 -26.8016,-58.8032 -59.876,-58.8032 -32.989,0.028 -59.819,26.4027 -59.819,58.8032 z"
      id="path14955-1"
      stroke-width="2.0591"
    />
    <path
      fill="#707070"
      d="m 1735.6654,556.05542 c 4.3624,1.0371 8.9243,1.7378 13.5719,1.7378 4.7045,0 9.181,-0.7007 13.6574,-1.7377 v -109.9269 c -4.3624,-1.037 -8.8958,-1.7377 -13.6574,-1.7377 -4.6475,0 -9.124,0.6446 -13.5719,1.7377 z"
      id="path14959-6"
      stroke-width="2.0591"
    />
    <rect
      x="-514.43341"
      stroke-width="0"
      width="26.682997"
      y="1700.3384"
      fill="#545252"
      height="97.740334"
      id="rect14963-7"
      transform="rotate(-90)"
    />
    <rect
      x="-543.10626"
      stroke-width="0"
      width="84.056816"
      y="1735.6653"
      fill="#545252"
      height="27.115202"
      id="rect14965-6"
      transform="rotate(-90)"
    />
    <path
      d="m 1696.2897,501.06392 c 0,-28.6169 23.7509,-51.9643 52.8619,-51.9643 29.1682,0 52.8904,23.3474 52.8904,51.9643 0,28.6729 -23.7509,52.0204 -52.8904,52.0204 -29.111,0.028 -52.8619,-23.3193 -52.8619,-52.0204 m -4.7614,0 c 0,31.3075 25.8321,56.7011 57.6233,56.7011 31.8199,0 57.652,-25.3936 57.652,-56.7011 0,-31.3075 -25.8321,-56.6451 -57.652,-56.6451 -31.7912,-0.056 -57.6233,25.3376 -57.6233,56.6451 z"
      id="path14969-4"
      opacity="0.5"
      stroke-width="2.0591"
    />
    <rect
      x="-572.31207"
      stroke-width="0"
      width="142.43959"
      y="1846.2935"
      fill="#165016"
      height="57.965603"
      id="rect14978-5"
      transform="rotate(-90)"
    />
    <rect
      x="-572.31207"
      stroke-width="0"
      width="142.43959"
      y="1904.2878"
      fill="#217821"
      height="60.132595"
      id="rect14980-9"
      transform="rotate(-90)"
    />
    <rect
      x="-535.95929"
      stroke-width="0"
      width="69.734367"
      y="1905.0291"
      fill="#165016"
      height="72.221756"
      id="rect14982-7"
      transform="rotate(-90)"
    />
    <rect
      x="-566.48199"
      stroke-width="0"
      width="130.83597"
      y="1851.3684"
      fill="#8d8c8c"
      height="108.86028"
      id="rect14984-3"
      transform="rotate(-90)"
    />
    <path
      fill="#a0a0a0"
      d="m 1953.842,501.06392 c 0,-31.0273 -18.7041,-56.2806 -41.9131,-56.2806 v 112.6735 c 23.2083,-0.056 41.9131,-25.2814 41.9131,-56.3929 z"
      id="path14986-0"
      stroke-width="2.0591"
    />
    <path
      fill="#565656"
      d="m 1870.216,501.06392 c 0,31.0833 18.7041,56.3929 41.8276,56.3929 v -112.6735 c -23.1249,0.028 -41.8276,25.1973 -41.8276,56.2806 z"
      id="path14988-4"
      stroke-width="2.0591"
    />
    <ellipse
      stroke-width="0"
      cy="1912.0425"
      rx="43.668064"
      fill="#383838"
      cx="-501.0921"
      ry="32.447025"
      id="ellipse14990-6"
      transform="rotate(-90)"
    />
    <polygon
      fill="#919291"
      points="18.1175,96.0569 80.8004,96.9431 79.9292,104.157 76.989,103.271 67.0115,116.467 30.8446,116.467 21.8335,103.631 17.2599,103.271 "
      id="polygon14992-5"
      transform="matrix(0,-2.0590957,2.0590957,0,1652.8084,602.02182)"
    />
    <path
      fill="#57585a"
      d="m 1854.2483,439.23362 h 9.3806 v 4.2323 1.8219 l 1.4826,1.0371 25.6892,18.5827 v 71.8083 l -25.7181,18.8912 -1.4537,1.093 v 1.7659 4.4002 h -9.3806 v -123.6326 m -3.6496,-3.5876 v 130.836 h 16.6798 v -7.988 l 27.1722,-19.9842 v -75.34 l -27.1722,-19.6478 v -7.8199 z"
      id="path14994-6"
      stroke-width="2.0591"
    />
    <rect
      x="-530.40948"
      stroke-width="0"
      width="58.691231"
      y="1959.8298"
      fill="#8c8c8c"
      height="42.91114"
      id="rect15000-1"
      transform="rotate(-90)"
    />
    <polygon
      id="background-4-6"
      fill="#37c837"
      points="196.012,0 0,0 0,39.9487 3.98829,39.9487 3.98829,72.4061 0,72.4061 0,157.607 196.012,157.607 196.012,72.4061 200,72.4061 200,39.9487 196.012,39.9487 "
      gorn="0.0.0"
      transform="matrix(0,2.0590549,-2.0590549,0,349.95373,85.332519)"
    />
    <rect
      x="88.948059"
      stroke-width="0"
      id="upperstripe-1-0"
      width="396.87253"
      y="-345.04971"
      fill="#217821"
      height="11.860897"
      gorn="0.0.1"
      transform="rotate(90)"
    />
    <rect
      x="85.332581"
      stroke-width="0"
      id="lowerrect-5-3"
      width="403.59946"
      y="-172.63882"
      fill="#2ca02c"
      height="147.17795"
      gorn="0.0.2"
      transform="rotate(90)"
    />
    <path
      fill="#217821"
      d="m 181.13533,186.28842 c 0,39.2388 32.4464,71.1904 72.42,71.1904 v -142.4088 c -40.002,-0.028 -72.42,31.8954 -72.42,71.2184 z"
      id="path14888-3"
      stroke-width="2.05905"
    />
    <path
      fill="#2ca02c"
      d="m 325.94683,186.28842 c 0,-39.2948 -32.475,-71.2184 -72.3915,-71.2184 v 142.4088 c 39.9735,-3e-4 72.3915,-31.8956 72.3915,-71.1904 z"
      id="path14890-2"
      stroke-width="2.05905"
    />
    <path
      fill="#8b8b8b"
      d="m 194.82103,186.28842 c 0,-31.8956 26.345,-57.7932 58.7914,-57.7932 32.3893,0 58.7627,25.8976 58.7627,57.7932 0,31.8676 -26.345,57.7651 -58.7627,57.7651 -32.4464,-0.028 -58.7914,-25.9258 -58.7914,-57.7651 z"
      id="path14894-7"
      stroke-width="2.05905"
    />
    <path
      d="m 311.23463,186.28842 c 0,31.3069 -25.8317,56.644 -57.6222,56.644 -31.8192,0 -57.6509,-25.3371 -57.6509,-56.644 0,-31.3069 25.8317,-56.7002 57.6509,-56.7002 31.7905,-0.028 57.6222,25.3651 57.6222,56.7002 m 2.1099,0 c 0,-32.4281 -26.8297,-58.8581 -59.8178,-58.8581 -32.9881,0 -59.8748,26.374 -59.8748,58.8581 0,32.372 26.801,58.8021 59.8748,58.8021 32.9883,-0.028 59.8178,-26.4023 59.8178,-58.8021 z"
      id="path14896-1"
      stroke-width="2.05905"
    />
    <path
      fill="#707070"
      d="m 267.09843,131.29802 c -4.3624,-1.0371 -8.9242,-1.7378 -13.5717,-1.7378 -4.7044,0 -9.1808,0.7007 -13.6571,1.7377 v 109.9247 c 4.3623,1.037 8.8956,1.7377 13.6571,1.7377 4.6474,0 9.1238,-0.6446 13.5716,-1.7377 z"
      id="path14900-5"
      stroke-width="2.05905"
    />
    <rect
      x="172.91913"
      stroke-width="0"
      width="26.682468"
      y="-302.42459"
      fill="#545252"
      height="97.738396"
      id="rect14904-3"
      transform="rotate(90)"
    />
    <rect
      x="144.24677"
      stroke-width="0"
      width="84.055153"
      y="-267.09842"
      fill="#545252"
      height="27.114664"
      id="rect14906-6"
      transform="rotate(90)"
    />
    <path
      d="m 306.47333,186.28842 c 0,28.6163 -23.7504,51.9633 -52.8609,51.9633 -29.1676,0 -52.8893,-23.347 -52.8893,-51.9633 0,-28.6724 23.7504,-52.0194 52.8893,-52.0194 29.1105,-0.028 52.8609,23.3188 52.8609,52.0194 m 4.7613,0 c 0,-31.3069 -25.8317,-56.7 -57.6222,-56.7 -31.8192,0 -57.6509,25.3931 -57.6509,56.7 0,31.3069 25.8317,56.644 57.6509,56.644 31.7905,0.056 57.6222,-25.3371 57.6222,-56.644 z"
      id="path14910-1"
      opacity="0.5"
      stroke-width="2.05905"
    />
    <rect
      x="115.04181"
      stroke-width="0"
      width="142.43677"
      y="-156.47256"
      fill="#165016"
      height="57.964451"
      id="rect14919-8"
      transform="rotate(90)"
    />
    <rect
      x="115.04181"
      stroke-width="0"
      width="142.43677"
      y="-98.479286"
      fill="#217821"
      height="60.131405"
      id="rect14921-2"
      transform="rotate(90)"
    />
    <rect
      x="151.39386"
      stroke-width="0"
      width="69.732986"
      y="-97.738075"
      fill="#165016"
      height="72.220322"
      id="rect14923-3"
      transform="rotate(90)"
    />
    <rect
      x="120.87164"
      stroke-width="0"
      width="130.83337"
      y="-151.39761"
      fill="#8d8c8c"
      height="108.85812"
      id="rect14925-8"
      transform="rotate(90)"
    />
    <path
      fill="#a0a0a0"
      d="m 48.926133,186.28842 c 0,31.0266 18.7037,56.2795 41.9122,56.2795 v -112.6713 c -23.2078,0.056 -41.9122,25.2809 -41.9122,56.3918 z"
      id="path14927-4"
      stroke-width="2.05905"
    />
    <path
      fill="#565656"
      d="m 132.55043,186.28842 c 0,-31.0827 -18.7037,-56.3918 -41.826797,-56.3918 v 112.6713 c 23.124497,-0.028 41.826797,-25.1969 41.826797,-56.2795 z"
      id="path14929-8"
      stroke-width="2.05905"
    />
    <ellipse
      stroke-width="0"
      cy="-90.724892"
      rx="43.667198"
      fill="#383838"
      cx="186.26019"
      ry="32.446381"
      id="ellipse14931-2"
      transform="rotate(90)"
    />
    <polygon
      fill="#919291"
      points="18.1175,96.0569 80.8004,96.9431 79.9292,104.157 76.989,103.271 67.0115,116.467 30.8446,116.467 21.8335,103.631 17.2599,103.271 "
      id="polygon14933-4"
      transform="matrix(0,2.0590549,-2.0590549,0,349.95373,85.332519)"
    />
    <path
      fill="#57585a"
      d="m 148.51783,248.11752 h -9.3804 v -4.2322 -1.8219 l -1.4826,-1.0371 -25.6887,-18.5824 v -71.8068 l 25.7176,-18.8908 1.4537,-1.093 v -1.7658 -4.4002 h 9.3804 v 123.6302 m 3.6495,3.5875 v -130.8334 h -16.6794 v 7.9879 l -27.1717,19.9837 v 75.3386 l 27.1717,19.6474 v 7.8197 z"
      id="path14935-3"
      stroke-width="2.05905"
    />
    <rect
      x="156.94342"
      stroke-width="0"
      width="58.690067"
      y="-42.938393"
      fill="#8c8c8c"
      height="42.910294"
      id="rect14941-1"
      transform="rotate(90)"
    />
    <path
      fill="#217821"
      d="m 181.13533,392.19392 c 0,39.2388 32.4464,71.1904 72.42,71.1904 v -142.4088 c -40.002,-0.028 -72.42,31.8954 -72.42,71.2184 z"
      id="path14947-3"
      stroke-width="2.05905"
    />
    <path
      fill="#2ca02c"
      d="m 325.94683,392.19392 c 0,-39.2948 -32.475,-71.2184 -72.3915,-71.2184 v 142.4088 c 39.9735,-3e-4 72.3915,-31.8956 72.3915,-71.1904 z"
      id="path14949-5"
      stroke-width="2.05905"
    />
    <path
      fill="#8b8b8b"
      d="m 194.82103,392.19392 c 0,-31.8956 26.345,-57.7932 58.7914,-57.7932 32.3893,0 58.7627,25.8976 58.7627,57.7932 0,31.8676 -26.345,57.7651 -58.7627,57.7651 -32.4464,-0.028 -58.7914,-25.9258 -58.7914,-57.7651 z"
      id="path14953-7"
      stroke-width="2.05905"
    />
    <path
      d="m 311.23463,392.19392 c 0,31.3069 -25.8317,56.644 -57.6222,56.644 -31.8192,0 -57.6509,-25.3371 -57.6509,-56.644 0,-31.3069 25.8317,-56.7002 57.6509,-56.7002 31.7905,-0.028 57.6222,25.3651 57.6222,56.7002 m 2.1099,0 c 0,-32.4281 -26.8297,-58.8581 -59.8178,-58.8581 -32.9881,0 -59.8748,26.374 -59.8748,58.8581 0,32.372 26.801,58.8021 59.8748,58.8021 32.9883,-0.028 59.8178,-26.4023 59.8178,-58.8021 z"
      id="path14955-6"
      stroke-width="2.05905"
    />
    <path
      fill="#707070"
      d="m 267.09843,337.20352 c -4.3624,-1.0371 -8.9242,-1.7378 -13.5717,-1.7378 -4.7044,0 -9.1808,0.7007 -13.6571,1.7377 v 109.9247 c 4.3623,1.037 8.8956,1.7377 13.6571,1.7377 4.6474,0 9.1238,-0.6446 13.5716,-1.7377 z"
      id="path14959-9"
      stroke-width="2.05905"
    />
    <rect
      x="378.82477"
      stroke-width="0"
      width="26.682468"
      y="-302.42459"
      fill="#545252"
      height="97.738396"
      id="rect14963-4"
      transform="rotate(90)"
    />
    <rect
      x="350.1524"
      stroke-width="0"
      width="84.055153"
      y="-267.09842"
      fill="#545252"
      height="27.114664"
      id="rect14965-7"
      transform="rotate(90)"
    />
    <path
      d="m 306.47333,392.19392 c 0,28.6163 -23.7504,51.9633 -52.8609,51.9633 -29.1676,0 -52.8893,-23.347 -52.8893,-51.9633 0,-28.6724 23.7504,-52.0194 52.8893,-52.0194 29.1105,-0.028 52.8609,23.3188 52.8609,52.0194 m 4.7613,0 c 0,-31.3069 -25.8317,-56.7 -57.6222,-56.7 -31.8192,0 -57.6509,25.3931 -57.6509,56.7 0,31.3069 25.8317,56.644 57.6509,56.644 31.7905,0.056 57.6222,-25.3371 57.6222,-56.644 z"
      id="path14969-8"
      opacity="0.5"
      stroke-width="2.05905"
    />
    <rect
      x="320.94733"
      stroke-width="0"
      width="142.43677"
      y="-156.47256"
      fill="#165016"
      height="57.964451"
      id="rect14978-4"
      transform="rotate(90)"
    />
    <rect
      x="320.94733"
      stroke-width="0"
      width="142.43677"
      y="-98.479286"
      fill="#217821"
      height="60.131405"
      id="rect14980-3"
      transform="rotate(90)"
    />
    <rect
      x="357.29938"
      stroke-width="0"
      width="69.732986"
      y="-97.738075"
      fill="#165016"
      height="72.220322"
      id="rect14982-6"
      transform="rotate(90)"
    />
    <rect
      x="326.77704"
      stroke-width="0"
      width="130.83337"
      y="-151.39761"
      fill="#8d8c8c"
      height="108.85812"
      id="rect14984-0"
      transform="rotate(90)"
    />
    <path
      fill="#a0a0a0"
      d="m 48.926133,392.19392 c 0,31.0266 18.7037,56.2795 41.9122,56.2795 v -112.6713 c -23.2078,0.056 -41.9122,25.2809 -41.9122,56.3918 z"
      id="path14986-7"
      stroke-width="2.05905"
    />
    <path
      fill="#565656"
      d="m 132.55043,392.19392 c 0,-31.0827 -18.7037,-56.3918 -41.826797,-56.3918 v 112.6713 c 23.124497,-0.028 41.826797,-25.1969 41.826797,-56.2795 z"
      id="path14988-5"
      stroke-width="2.05905"
    />
    <ellipse
      stroke-width="0"
      cy="-90.724892"
      rx="43.667198"
      fill="#383838"
      cx="392.16559"
      ry="32.446381"
      id="ellipse14990-0"
      transform="rotate(90)"
    />
    <polygon
      fill="#919291"
      points="18.1175,96.0569 80.8004,96.9431 79.9292,104.157 76.989,103.271 67.0115,116.467 30.8446,116.467 21.8335,103.631 17.2599,103.271 "
      id="polygon14992-3"
      transform="matrix(0,2.0590549,-2.0590549,0,349.95373,291.23802)"
    />
    <path
      fill="#57585a"
      d="m 148.51783,454.02302 h -9.3804 v -4.2322 -1.8219 l -1.4826,-1.0371 -25.6887,-18.5824 v -71.8068 l 25.7176,-18.8908 1.4537,-1.093 v -1.7658 -4.4002 h 9.3804 v 123.6302 m 3.6495,3.5875 v -130.8334 h -16.6794 v 7.9879 l -27.1717,19.9837 v 75.3386 l 27.1717,19.6474 v 7.8197 z"
      id="path14994-8"
      stroke-width="2.05905"
    />
    <rect
      x="362.84894"
      stroke-width="0"
      width="58.690067"
      y="-42.938393"
      fill="#8c8c8c"
      height="42.910294"
      id="rect15000-2"
      transform="rotate(90)"
    />
    <polygon
      id="background-4"
      fill="#37c837"
      points="0,0 0,39.9487 3.98829,39.9487 3.98829,72.4061 0,72.4061 0,157.607 196.012,157.607 196.012,72.4061 200,72.4061 200,39.9487 196.012,39.9487 196.012,0 "
      gorn="0.0.0"
      transform="matrix(0,2.0590549,-2.0590549,0,349.95903,637.21882)"
    />
    <rect
      x="640.83429"
      stroke-width="0"
      id="upperstripe-1"
      width="396.87253"
      y="-345.05496"
      fill="#217821"
      height="11.860897"
      gorn="0.0.1"
      transform="rotate(90)"
    />
    <rect
      x="637.21881"
      stroke-width="0"
      id="lowerrect-5"
      width="403.59946"
      y="-172.64407"
      fill="#2ca02c"
      height="147.17795"
      gorn="0.0.2"
      transform="rotate(90)"
    />
    <path
      fill="#217821"
      d="m 181.14063,738.17472 c 0,39.2388 32.4464,71.1904 72.42,71.1904 v -142.4088 c -40.002,-0.028 -72.42,31.8954 -72.42,71.2184 z"
      id="path14888"
      stroke-width="2.05905"
    />
    <path
      fill="#2ca02c"
      d="m 325.95213,738.17472 c 0,-39.2948 -32.475,-71.2184 -72.3915,-71.2184 v 142.4088 c 39.9735,-3e-4 72.3915,-31.8956 72.3915,-71.1904 z"
      id="path14890"
      stroke-width="2.05905"
    />
    <path
      fill="#8b8b8b"
      d="m 194.82633,738.17472 c 0,-31.8956 26.345,-57.7932 58.7914,-57.7932 32.3893,0 58.7627,25.8976 58.7627,57.7932 0,31.8676 -26.345,57.7651 -58.7627,57.7651 -32.4464,-0.028 -58.7914,-25.9258 -58.7914,-57.7651 z"
      id="path14894"
      stroke-width="2.05905"
    />
    <path
      d="m 311.23993,738.17472 c 0,31.3069 -25.8317,56.644 -57.6222,56.644 -31.8192,0 -57.6509,-25.3371 -57.6509,-56.644 0,-31.3069 25.8317,-56.7002 57.6509,-56.7002 31.7905,-0.028 57.6222,25.3651 57.6222,56.7002 m 2.1099,0 c 0,-32.4281 -26.8297,-58.8581 -59.8178,-58.8581 -32.9881,0 -59.8748,26.374 -59.8748,58.8581 0,32.372 26.801,58.8021 59.8748,58.8021 32.9883,-0.028 59.8178,-26.4023 59.8178,-58.8021 z"
      id="path14896"
      stroke-width="2.05905"
    />
    <path
      fill="#707070"
      d="m 267.10373,683.18432 c -4.3624,-1.0371 -8.9242,-1.7378 -13.5717,-1.7378 -4.7044,0 -9.1808,0.7007 -13.6571,1.7377 v 109.9247 c 4.3623,1.037 8.8956,1.7377 13.6571,1.7377 4.6474,0 9.1238,-0.6446 13.5716,-1.7377 z"
      id="path14900"
      stroke-width="2.05905"
    />
    <rect
      x="724.80548"
      stroke-width="0"
      width="26.682468"
      y="-302.42984"
      fill="#545252"
      height="97.738396"
      id="rect14904"
      transform="rotate(90)"
    />
    <rect
      x="696.13312"
      stroke-width="0"
      width="84.055153"
      y="-267.10367"
      fill="#545252"
      height="27.114664"
      id="rect14906"
      transform="rotate(90)"
    />
    <path
      d="m 306.47863,738.17472 c 0,28.6163 -23.7504,51.9633 -52.8609,51.9633 -29.1676,0 -52.8893,-23.347 -52.8893,-51.9633 0,-28.6724 23.7504,-52.0194 52.8893,-52.0194 29.1105,-0.028 52.8609,23.3188 52.8609,52.0194 m 4.7613,0 c 0,-31.3069 -25.8317,-56.7 -57.6222,-56.7 -31.8192,0 -57.6509,25.3931 -57.6509,56.7 0,31.3069 25.8317,56.644 57.6509,56.644 31.7905,0.056 57.6222,-25.3371 57.6222,-56.644 z"
      id="path14910"
      opacity="0.5"
      stroke-width="2.05905"
    />
    <rect
      x="666.92804"
      stroke-width="0"
      width="142.43677"
      y="-156.47781"
      fill="#165016"
      height="57.964451"
      id="rect14919"
      transform="rotate(90)"
    />
    <rect
      x="666.92804"
      stroke-width="0"
      width="142.43677"
      y="-98.484657"
      fill="#217821"
      height="60.131405"
      id="rect14921"
      transform="rotate(90)"
    />
    <rect
      x="703.28009"
      stroke-width="0"
      width="69.732986"
      y="-97.743324"
      fill="#165016"
      height="72.220322"
      id="rect14923"
      transform="rotate(90)"
    />
    <rect
      x="672.75787"
      stroke-width="0"
      width="130.83337"
      y="-151.40286"
      fill="#8d8c8c"
      height="108.85812"
      id="rect14925"
      transform="rotate(90)"
    />
    <path
      fill="#a0a0a0"
      d="m 48.931433,738.17472 c 0,31.0266 18.7037,56.2795 41.9122,56.2795 v -112.6713 c -23.2078,0.056 -41.9122,25.2809 -41.9122,56.3918 z"
      id="path14927"
      stroke-width="2.05905"
    />
    <path
      fill="#565656"
      d="m 132.55573,738.17472 c 0,-31.0827 -18.7037,-56.3918 -41.826797,-56.3918 v 112.6713 c 23.124497,-0.028 41.826797,-25.1969 41.826797,-56.2795 z"
      id="path14929"
      stroke-width="2.05905"
    />
    <ellipse
      stroke-width="0"
      cy="-90.730141"
      rx="43.667198"
      fill="#383838"
      cx="738.14655"
      ry="32.446381"
      id="ellipse14931"
      transform="rotate(90)"
    />
    <polygon
      fill="#919291"
      points="80.8004,96.9431 79.9292,104.157 76.989,103.271 67.0115,116.467 30.8446,116.467 21.8335,103.631 17.2599,103.271 18.1175,96.0569 "
      id="polygon14933"
      transform="matrix(0,2.0590549,-2.0590549,0,349.95903,637.21882)"
    />
    <path
      fill="#57585a"
      d="m 148.52313,800.00382 h -9.3804 v -4.2322 -1.8219 l -1.4826,-1.0371 -25.6887,-18.5824 v -71.8068 l 25.7176,-18.8908 1.4537,-1.093 v -1.7658 -4.4002 h 9.3804 v 123.6302 m 3.6495,3.5875 v -130.8334 h -16.6794 v 7.9879 l -27.1717,19.9837 v 75.3386 l 27.1717,19.6474 v 7.8197 z"
      id="path14935"
      stroke-width="2.05905"
    />
    <rect
      x="708.82965"
      stroke-width="0"
      width="58.690067"
      y="-42.943642"
      fill="#8c8c8c"
      height="42.910294"
      id="rect14941"
      transform="rotate(90)"
    />
    <path
      fill="#217821"
      d="m 181.14063,944.08022 c 0,39.2388 32.4464,71.19038 72.42,71.19038 v -142.40878 c -40.002,-0.028 -72.42,31.8954 -72.42,71.2184 z"
      id="path14947"
      stroke-width="2.05905"
    />
    <path
      fill="#2ca02c"
      d="m 325.95213,944.08022 c 0,-39.2948 -32.475,-71.2184 -72.3915,-71.2184 v 142.40878 c 39.9735,-3e-4 72.3915,-31.89558 72.3915,-71.19038 z"
      id="path14949"
      stroke-width="2.05905"
    />
    <path
      fill="#8b8b8b"
      d="m 194.82633,944.08022 c 0,-31.8956 26.345,-57.7932 58.7914,-57.7932 32.3893,0 58.7627,25.8976 58.7627,57.7932 0,31.8676 -26.345,57.76508 -58.7627,57.76508 -32.4464,-0.028 -58.7914,-25.92578 -58.7914,-57.76508 z"
      id="path14953"
      stroke-width="2.05905"
    />
    <path
      d="m 311.23993,944.08022 c 0,31.3069 -25.8317,56.64398 -57.6222,56.64398 -31.8192,0 -57.6509,-25.33708 -57.6509,-56.64398 0,-31.3069 25.8317,-56.7002 57.6509,-56.7002 31.7905,-0.028 57.6222,25.3651 57.6222,56.7002 m 2.1099,0 c 0,-32.4281 -26.8297,-58.8581 -59.8178,-58.8581 -32.9881,0 -59.8748,26.374 -59.8748,58.8581 0,32.372 26.801,58.80208 59.8748,58.80208 32.9883,-0.028 59.8178,-26.40228 59.8178,-58.80208 z"
      id="path14955"
      stroke-width="2.05905"
    />
    <path
      fill="#707070"
      d="m 267.10373,889.08982 c -4.3624,-1.0371 -8.9242,-1.7378 -13.5717,-1.7378 -4.7044,0 -9.1808,0.7007 -13.6571,1.7377 v 109.9247 c 4.3623,1.03698 8.8956,1.73768 13.6571,1.73768 4.6474,0 9.1238,-0.6446 13.5716,-1.73768 z"
      id="path14959"
      stroke-width="2.05905"
    />
    <rect
      x="930.711"
      stroke-width="0"
      width="26.682468"
      y="-302.42984"
      fill="#545252"
      height="97.738396"
      id="rect14963"
      transform="rotate(90)"
    />
    <rect
      x="902.03864"
      stroke-width="0"
      width="84.055153"
      y="-267.10367"
      fill="#545252"
      height="27.114664"
      id="rect14965"
      transform="rotate(90)"
    />
    <path
      d="m 306.47863,944.08022 c 0,28.6163 -23.7504,51.9633 -52.8609,51.9633 -29.1676,0 -52.8893,-23.347 -52.8893,-51.9633 0,-28.6724 23.7504,-52.0194 52.8893,-52.0194 29.1105,-0.028 52.8609,23.3188 52.8609,52.0194 m 4.7613,0 c 0,-31.3069 -25.8317,-56.7 -57.6222,-56.7 -31.8192,0 -57.6509,25.3931 -57.6509,56.7 0,31.3069 25.8317,56.64398 57.6509,56.64398 31.7905,0.056 57.6222,-25.33708 57.6222,-56.64398 z"
      id="path14969"
      opacity="0.5"
      stroke-width="2.05905"
    />
    <rect
      x="872.83356"
      stroke-width="0"
      width="142.43677"
      y="-156.47781"
      fill="#165016"
      height="57.964451"
      id="rect14978"
      transform="rotate(90)"
    />
    <rect
      x="872.83356"
      stroke-width="0"
      width="142.43677"
      y="-98.484657"
      fill="#217821"
      height="60.131405"
      id="rect14980"
      transform="rotate(90)"
    />
    <rect
      x="909.18561"
      stroke-width="0"
      width="69.732986"
      y="-97.743324"
      fill="#165016"
      height="72.220322"
      id="rect14982"
      transform="rotate(90)"
    />
    <rect
      x="878.66339"
      stroke-width="0"
      width="130.83337"
      y="-151.40286"
      fill="#8d8c8c"
      height="108.85812"
      id="rect14984"
      transform="rotate(90)"
    />
    <path
      fill="#a0a0a0"
      d="m 48.931433,944.08022 c 0,31.0266 18.7037,56.27948 41.9122,56.27948 v -112.67128 c -23.2078,0.056 -41.9122,25.2809 -41.9122,56.3918 z"
      id="path14986"
      stroke-width="2.05905"
    />
    <path
      fill="#565656"
      d="m 132.55573,944.08022 c 0,-31.0827 -18.7037,-56.3918 -41.826797,-56.3918 v 112.67128 c 23.124497,-0.028 41.826797,-25.19688 41.826797,-56.27948 z"
      id="path14988"
      stroke-width="2.05905"
    />
    <ellipse
      stroke-width="0"
      cy="-90.730141"
      rx="43.667198"
      fill="#383838"
      cx="944.05206"
      ry="32.446381"
      id="ellipse14990"
      transform="rotate(90)"
    />
    <polygon
      fill="#919291"
      points="80.8004,96.9431 79.9292,104.157 76.989,103.271 67.0115,116.467 30.8446,116.467 21.8335,103.631 17.2599,103.271 18.1175,96.0569 "
      id="polygon14992"
      transform="matrix(0,2.0590549,-2.0590549,0,349.95903,843.12432)"
    />
    <path
      fill="#57585a"
      d="m 148.52313,1005.9093 h -9.3804 v -4.2322 -1.82188 l -1.4826,-1.0371 -25.6887,-18.5824 v -71.8068 l 25.7176,-18.8908 1.4537,-1.093 v -1.7658 -4.4002 h 9.3804 v 123.63018 m 3.6495,3.5875 v -130.83338 h -16.6794 v 7.9879 l -27.1717,19.9837 v 75.3386 l 27.1717,19.64738 v 7.8197 z"
      id="path14994"
      stroke-width="2.05905"
    />
    <rect
      x="914.73517"
      stroke-width="0"
      width="58.690067"
      y="-42.943642"
      fill="#8c8c8c"
      height="42.910294"
      id="rect15000"
      transform="rotate(90)"
    />
    <text
      x="521.93475"
      y="855.02155"
      font-size="60"
      id="text2"
      font-family="OCRA"
      fill="#ffffff"
      stroke-width="1">10A 250VAC</text>
    <text
      x="518.99921"
      y="921.5611"
      font-size="60"
      id="text3"
      font-family="OCRA"
      fill="#ffffff"
      stroke-width="1">10A 30VDC</text>
    <text
      x="511.17105"
      y="1003.7569"
      font-size="70"
      id="text4"
      font-family="OCRA"
      fill="#ffffff"
      stroke-width="1">SRD012VDC-SL-C</text>
    <text
      x="46.580727"
      y="65.68634"
      font-size="60"
      id="text5"
      font-family="OCRA"
      fill="#ffffff"
      stroke-width="1">DC-</text>
    <text
      x="46.580727"
      y="577.50372"
      font-size="60"
      id="text6"
      font-family="OCRA"
      fill="#ffffff"
      stroke-width="1">DC+</text>
    <text
      x="215.40897"
      y="616.25128"
      font-size="60"
      id="text7"
      font-family="OCRA"
      fill="#ffffff"
      stroke-width="1">BAT+</text>
    <text
      x="215.40897"
      y="1120.1807"
      font-size="60"
      id="text8"
      font-family="OCRA"
      fill="#ffffff"
      stroke-width="1">BAT-</text>
    <text
      x="1723.7927"
      y="369.92804"
      font-size="60"
      id="text9"
      font-family="OCRA"
      fill="#ffffff"
      stroke-width="1">OUT+</text>
    <text
      x="1723.7927"
      y="885.69269"
      font-size="60"
      id="text10"
      font-family="OCRA"
      fill="#ffffff"
      stroke-width="1">OUT-</text>
    <circle
      id="path10"
      cx="1875.0051"
      cy="133.89581"
      r="60"
      fill="#ffffff"
      stroke-miterlimit="1.41421"
    />
    <circle
      id="circle10"
      cx="1875.0051"
      cy="1063.0264"
      r="60"
      fill="#ffffff"
      stroke-miterlimit="1.41421"
    />
    <rect
      height="37.236099"
      width="110.639"
      x="38.445007"
      id="rect10"
      y="-745.27191"
      transform="rotate(90)"
      fill="#4d4d4d"
    />
    <rect
      height="0.63888901"
      width="110.639"
      enable-background="new    "
      x="38.445007"
      id="rect11"
      y="-745.27191"
      transform="rotate(90)"
      opacity="0.2"
      fill="#ffffff"
    />
    <rect
      height="11.0972"
      width="110.639"
      y="-717.07758"
      x="38.445007"
      id="rect12"
      transform="rotate(90)"
      fill="#333333"
    />
    <rect
      height="0.444444"
      width="110.639"
      y="-706.35529"
      enable-background="new    "
      x="38.445007"
      id="rect13"
      transform="rotate(90)"
      opacity="0.2"
    />
    <path
      d="m 745.27193,133.01452 v 0 0 -1.2917 0 c -3.4861,-1.1111 -11.0556,-1.875 -14.9306,-1.875 -4.0417,0 -9.625,0.6667 -13.2639,1.875 v 0 0 l 10e-5,16.9861 h 28.1944 z"
      id="path13"
      fill="#dcdcdc"
    />
    <path
      d="m 743.82753,55.736719 h 1.4444 v -16.9723 h -28.1944 v 16.9861 c 3.6527,1.2223 9.1527,2.6806 13.25,2.6806 4.8055,0 9.3194,-1.0416 13.5,-2.6944 z"
      id="path14"
      fill="#dcdcdc"
    />
    <path
      d="m 715.60523,148.80592 v -16.9859 l 1.4723,-0.097 v 16.9861 z"
      id="path15"
      fill="#999999"
    />
    <path
      d="m 715.57753,38.847819 v 16.9861 l 1.5,-0.097 v -16.9723 l -1.5,0.083 z"
      id="path16"
      fill="#999999"
    />
    <rect
      height="0.63888901"
      width="16.986099"
      y="-706.54974"
      enable-background="new    "
      x="38.764465"
      id="rect16"
      transform="rotate(90)"
      opacity="0.15"
    />
    <rect
      height="0.63888901"
      width="16.986099"
      enable-background="new    "
      x="38.764465"
      id="rect17"
      y="-745.27191"
      transform="rotate(90)"
      opacity="0.5"
      fill="#ffffff"
    />
    <rect
      height="0.63888901"
      width="17"
      y="-706.54974"
      enable-background="new    "
      x="131.73676"
      id="rect18"
      transform="rotate(90)"
      opacity="0.15"
    />
    <rect
      height="0.63888901"
      width="17"
      enable-background="new    "
      x="131.73676"
      id="rect19"
      y="-745.27191"
      transform="rotate(90)"
      opacity="0.5"
      fill="#ffffff"
    />
    <line
      x1="705.91083"
      y2="49.028259"
      y1="49.028259"
      x2="705.91083"
      id="line19"
      fill="none"
    />
    <rect
      height="9.6111097"
      width="1.63889"
      y="-715.60529"
      x="147.43097"
      id="rect20"
      transform="rotate(90)"
      fill="#999999"
    />
    <rect
      height="9.6111097"
      width="1.6527801"
      y="-715.60529"
      x="38.764465"
      id="rect21"
      transform="rotate(90)"
      fill="#999999"
    />
    <rect
      height="37.236099"
      width="110.639"
      x="-1450.6885"
      id="rect22"
      y="-780.45538"
      transform="scale(-1)"
      fill="#4d4d4d"
    />
    <rect
      height="0.63888901"
      width="110.639"
      enable-background="new    "
      x="-1450.6885"
      id="rect23"
      y="-780.45538"
      transform="scale(-1)"
      opacity="0.2"
      fill="#ffffff"
    />
    <rect
      height="11.0972"
      width="110.639"
      y="-752.2608"
      x="-1450.6885"
      id="rect24"
      transform="scale(-1)"
      fill="#333333"
    />
    <rect
      height="0.444444"
      width="110.639"
      y="-741.53864"
      enable-background="new    "
      x="-1450.6885"
      id="rect25"
      transform="scale(-1)"
      opacity="0.2"
    />
    <path
      d="m 1356.1191,780.45532 v 0 0 h 1.2917 v 0 c 1.1111,-3.4861 1.875,-11.0556 1.875,-14.9306 0,-4.0417 -0.6667,-9.625 -1.875,-13.2639 v 0 0 l -16.9861,1e-4 v 28.1944 z"
      id="path25"
      fill="#dcdcdc"
    />
    <path
      d="m 1433.3969,779.01092 v 1.4444 h 16.9723 v -28.1944 h -16.9861 c -1.2223,3.6527 -2.6806,9.1527 -2.6806,13.25 0,4.8055 1.0416,9.3194 2.6944,13.5 z"
      id="path26"
      fill="#dcdcdc"
    />
    <path
      d="m 1340.3277,750.78862 h 16.9859 l 0.097,1.4723 h -16.9861 z"
      id="path27"
      fill="#999999"
    />
    <path
      d="m 1450.2858,750.76092 h -16.9861 l 0.097,1.5 h 16.9723 l -0.083,-1.5 z"
      id="path28"
      fill="#999999"
    />
    <rect
      height="0.63888901"
      width="16.986099"
      y="-741.73322"
      enable-background="new    "
      x="-1450.3691"
      id="rect28"
      transform="scale(-1)"
      opacity="0.15"
    />
    <rect
      height="0.63888901"
      width="16.986099"
      enable-background="new    "
      x="-1450.3691"
      id="rect29"
      y="-780.45538"
      transform="scale(-1)"
      opacity="0.5"
      fill="#ffffff"
    />
    <rect
      height="0.63888901"
      width="17"
      y="-741.73322"
      enable-background="new    "
      x="-1357.397"
      id="rect30"
      transform="scale(-1)"
      opacity="0.15"
    />
    <rect
      height="0.63888901"
      width="17"
      enable-background="new    "
      x="-1357.397"
      id="rect31"
      y="-780.45538"
      transform="scale(-1)"
      opacity="0.5"
      fill="#ffffff"
    />
    <line
      x1="1440.1052"
      y2="741.0943"
      y1="741.0943"
      x2="1440.1052"
      id="line31"
      fill="none"
    />
    <rect
      height="9.6111097"
      width="1.63889"
      y="-750.78864"
      x="-1341.7026"
      id="rect32"
      transform="scale(-1)"
      fill="#999999"
    />
    <rect
      height="9.6111097"
      width="1.6527801"
      y="-750.78864"
      x="-1450.3691"
      id="rect33"
      transform="scale(-1)"
      fill="#999999"
    />
    <rect
      height="37.236099"
      width="110.639"
      x="-1450.6885"
      id="rect34"
      y="-886.75763"
      transform="scale(-1)"
      fill="#4d4d4d"
    />
    <rect
      height="0.63888901"
      width="110.639"
      enable-background="new    "
      x="-1450.6885"
      id="rect35"
      y="-886.75763"
      transform="scale(-1)"
      opacity="0.2"
      fill="#ffffff"
    />
    <rect
      height="11.0972"
      width="110.639"
      y="-858.56329"
      x="-1450.6885"
      id="rect36"
      transform="scale(-1)"
      fill="#333333"
    />
    <rect
      height="0.444444"
      width="110.639"
      y="-847.84113"
      enable-background="new    "
      x="-1450.6885"
      id="rect37"
      transform="scale(-1)"
      opacity="0.2"
    />
    <path
      d="m 1356.1191,886.75772 v 0 0 h 1.2917 v 0 c 1.1111,-3.4861 1.875,-11.0556 1.875,-14.9306 0,-4.0417 -0.6667,-9.625 -1.875,-13.2639 v 0 0 l -16.9861,10e-5 v 28.1944 z"
      id="path37"
      fill="#dcdcdc"
    />
    <path
      d="m 1433.3969,885.31332 v 1.4444 h 16.9723 v -28.1944 h -16.9861 c -1.2223,3.6527 -2.6806,9.1527 -2.6806,13.25 0,4.8055 1.0416,9.3194 2.6944,13.5 z"
      id="path38"
      fill="#dcdcdc"
    />
    <path
      d="m 1340.3277,857.09102 h 16.9859 l 0.097,1.4723 h -16.9861 z"
      id="path39"
      fill="#999999"
    />
    <path
      d="m 1450.2858,857.06332 h -16.9861 l 0.097,1.5 h 16.9723 l -0.083,-1.5 z"
      id="path40"
      fill="#999999"
    />
    <rect
      height="0.63888901"
      width="16.986099"
      y="-848.03546"
      enable-background="new    "
      x="-1450.3691"
      id="rect40"
      transform="scale(-1)"
      opacity="0.15"
    />
    <rect
      height="0.63888901"
      width="16.986099"
      enable-background="new    "
      x="-1450.3691"
      id="rect41"
      y="-886.75763"
      transform="scale(-1)"
      opacity="0.5"
      fill="#ffffff"
    />
    <rect
      height="0.63888901"
      width="17"
      y="-848.03546"
      enable-background="new    "
      x="-1357.397"
      id="rect42"
      transform="scale(-1)"
      opacity="0.15"
    />
    <rect
      height="0.63888901"
      width="17"
      enable-background="new    "
      x="-1357.397"
      id="rect43"
      y="-886.75763"
      transform="scale(-1)"
      opacity="0.5"
      fill="#ffffff"
    />
    <line
      x1="1440.1052"
      y2="847.39655"
      y1="847.39655"
      x2="1440.1052"
      id="line43"
      fill="none"
    />
    <rect
      height="9.6111097"
      width="1.63889"
      y="-857.09113"
      x="-1341.7026"
      id="rect44"
      transform="scale(-1)"
      fill="#999999"
    />
    <rect
      height="9.6111097"
      width="1.6527801"
      y="-857.09113"
      x="-1450.3691"
      id="rect45"
      transform="scale(-1)"
      fill="#999999"
    />
    <rect
      height="37.236099"
      width="110.639"
      x="-1450.6885"
      id="rect46"
      y="-993.05695"
      transform="scale(-1)"
      fill="#4d4d4d"
    />
    <rect
      height="0.63888901"
      width="110.639"
      enable-background="new    "
      x="-1450.6885"
      id="rect47"
      y="-993.05695"
      transform="scale(-1)"
      opacity="0.2"
      fill="#ffffff"
    />
    <rect
      height="11.0972"
      width="110.639"
      y="-964.86261"
      x="-1450.6885"
      id="rect48"
      transform="scale(-1)"
      fill="#333333"
    />
    <rect
      height="0.444444"
      width="110.639"
      y="-954.1402"
      enable-background="new    "
      x="-1450.6885"
      id="rect49"
      transform="scale(-1)"
      opacity="0.2"
    />
    <path
      d="m 1356.1191,993.05692 v 0 0 h 1.2917 v 0 c 1.1111,-3.4861 1.875,-11.0556 1.875,-14.9306 0,-4.0417 -0.6667,-9.625 -1.875,-13.2639 v 0 0 l -16.9861,10e-5 v 28.1944 z"
      id="path49"
      fill="#dcdcdc"
    />
    <path
      d="m 1433.3969,991.61252 v 1.4444 h 16.9723 v -28.1944 h -16.9861 c -1.2223,3.6527 -2.6806,9.1527 -2.6806,13.25 0,4.8055 1.0416,9.3194 2.6944,13.5 z"
      id="path50"
      fill="#dcdcdc"
    />
    <path
      d="m 1340.3277,963.39022 h 16.9859 l 0.097,1.4723 h -16.9861 z"
      id="path51"
      fill="#999999"
    />
    <path
      d="m 1450.2858,963.36252 h -16.9861 l 0.097,1.5 h 16.9723 l -0.083,-1.5 z"
      id="path52"
      fill="#999999"
    />
    <rect
      height="0.63888901"
      width="16.986099"
      y="-954.33478"
      enable-background="new    "
      x="-1450.3691"
      id="rect52"
      transform="scale(-1)"
      opacity="0.15"
    />
    <rect
      height="0.63888901"
      width="16.986099"
      enable-background="new    "
      x="-1450.3691"
      id="rect53"
      y="-993.05695"
      transform="scale(-1)"
      opacity="0.5"
      fill="#ffffff"
    />
    <rect
      height="0.63888901"
      width="17"
      y="-954.33478"
      enable-background="new    "
      x="-1357.397"
      id="rect54"
      transform="scale(-1)"
      opacity="0.15"
    />
    <rect
      height="0.63888901"
      width="17"
      enable-background="new    "
      x="-1357.397"
      id="rect55"
      y="-993.05695"
      transform="scale(-1)"
      opacity="0.5"
      fill="#ffffff"
    />
    <line
      x1="1440.1052"
      y2="953.69586"
      y1="953.69586"
      x2="1440.1052"
      id="line55"
      fill="none"
    />
    <rect
      height="9.6111097"
      width="1.63889"
      y="-963.3902"
      x="-1341.7026"
      id="rect56"
      transform="scale(-1)"
      fill="#999999"
    />
    <rect
      height="9.6111097"
      width="1.6527801"
      y="-963.3902"
      x="-1450.3691"
      id="rect57"
      transform="scale(-1)"
      fill="#999999"
    />
    <rect
      height="37.236099"
      width="110.639"
      x="-1450.6885"
      id="rect58"
      y="-1099.356"
      transform="scale(-1)"
      fill="#4d4d4d"
    />
    <rect
      height="0.63888901"
      width="110.639"
      enable-background="new    "
      x="-1450.6885"
      id="rect59"
      y="-1099.356"
      transform="scale(-1)"
      opacity="0.2"
      fill="#ffffff"
    />
    <rect
      height="11.0972"
      width="110.639"
      y="-1071.1616"
      x="-1450.6885"
      id="rect60"
      transform="scale(-1)"
      fill="#333333"
    />
    <rect
      height="0.444444"
      width="110.639"
      y="-1060.4395"
      enable-background="new    "
      x="-1450.6885"
      id="rect61"
      transform="scale(-1)"
      opacity="0.2"
    />
    <path
      d="m 1356.1191,1099.3561 v 0 0 h 1.2917 v 0 c 1.1111,-3.4861 1.875,-11.0556 1.875,-14.9306 0,-4.0417 -0.6667,-9.625 -1.875,-13.2639 v 0 0 l -16.9861,1e-4 v 28.1944 z"
      id="path61"
      fill="#dcdcdc"
    />
    <path
      d="m 1433.3969,1097.9117 v 1.4444 h 16.9723 v -28.1944 h -16.9861 c -1.2223,3.6527 -2.6806,9.1527 -2.6806,13.25 0,4.8055 1.0416,9.3194 2.6944,13.5 z"
      id="path62"
      fill="#dcdcdc"
    />
    <path
      d="m 1340.3277,1069.6894 h 16.9859 l 0.097,1.4723 h -16.9861 z"
      id="path63"
      fill="#999999"
    />
    <path
      d="m 1450.2858,1069.6617 h -16.9861 l 0.097,1.5 h 16.9723 l -0.083,-1.5 z"
      id="path64"
      fill="#999999"
    />
    <rect
      height="0.63888901"
      width="16.986099"
      y="-1060.6338"
      enable-background="new    "
      x="-1450.3691"
      id="rect64"
      transform="scale(-1)"
      opacity="0.15"
    />
    <rect
      height="0.63888901"
      width="16.986099"
      enable-background="new    "
      x="-1450.3691"
      id="rect65"
      y="-1099.356"
      transform="scale(-1)"
      opacity="0.5"
      fill="#ffffff"
    />
    <rect
      height="0.63888901"
      width="17"
      y="-1060.6338"
      enable-background="new    "
      x="-1357.397"
      id="rect66"
      transform="scale(-1)"
      opacity="0.15"
    />
    <rect
      height="0.63888901"
      width="17"
      enable-background="new    "
      x="-1357.397"
      id="rect67"
      y="-1099.356"
      transform="scale(-1)"
      opacity="0.5"
      fill="#ffffff"
    />
    <line
      x1="1440.1052"
      y2="1059.9949"
      y1="1059.9949"
      x2="1440.1052"
      id="line67"
      fill="none"
    />
    <rect
      height="9.6111097"
      width="1.63889"
      y="-1069.6895"
      x="-1341.7026"
      id="rect68"
      transform="scale(-1)"
      fill="#999999"
    />
    <rect
      height="9.6111097"
      width="1.6527801"
      y="-1069.6895"
      x="-1450.3691"
      id="rect69"
      transform="scale(-1)"
      fill="#999999"
    />
    <rect
      height="81.938004"
      width="243.46101"
      x="55.051086"
      id="rect70"
      y="-1686.4844"
      transform="rotate(90)"
      fill="#4d4d4d"
      stroke-width="2.2005"
    />
    <rect
      height="1.4058747"
      width="243.46101"
      enable-background="new    "
      x="55.051086"
      id="rect71"
      y="-1686.4844"
      transform="rotate(90)"
      opacity="0.2"
      fill="#ffffff"
      stroke-width="2.2005"
    />
    <rect
      height="24.41938"
      width="243.46101"
      y="-1624.4426"
      x="55.051086"
      id="rect72"
      transform="rotate(90)"
      fill="#333333"
      stroke-width="2.2005"
    />
    <rect
      height="0.97799861"
      width="243.46101"
      y="-1600.8481"
      enable-background="new    "
      x="55.051086"
      id="rect73"
      transform="rotate(90)"
      opacity="0.2"
      stroke-width="2.2005"
    />
    <path
      d="m 1686.4844,263.15122 v 0 0 -2.8424 0 c -7.6712,-2.445 -24.3278,-4.126 -32.8548,-4.126 -8.8937,0 -21.1798,1.4671 -29.1872,4.126 v 0 0 l 2e-4,37.3779 h 62.0418 z"
      id="path73"
      fill="#dcdcdc"
      stroke-width="2.2005"
    />
    <path
      d="m 1683.3059,93.101419 h 3.1785 v -37.3474 h -62.0418 v 37.3779 c 8.0378,2.6896 20.1406,5.8986 29.1567,5.8986 10.5745,0 20.5073,-2.2921 29.7066,-5.9291 z"
      id="path74"
      fill="#dcdcdc"
      stroke-width="2.2005"
    />
    <path
      d="m 1621.2029,297.90012 v -37.3774 l 3.2397,-0.2139 v 37.3779 z"
      id="path75"
      fill="#999999"
      stroke-width="2.2005"
    />
    <path
      d="m 1621.1419,55.937419 v 37.3779 l 3.3007,-0.2139 v -37.3474 l -3.3007,0.1833 z"
      id="path76"
      fill="#999999"
      stroke-width="2.2005"
    />
    <rect
      height="1.4058747"
      width="37.377895"
      y="-1601.2761"
      enable-background="new    "
      x="55.754089"
      id="rect76"
      transform="rotate(90)"
      opacity="0.15"
      stroke-width="2.2005"
    />
    <rect
      height="1.4058747"
      width="37.377895"
      enable-background="new    "
      x="55.754089"
      id="rect77"
      y="-1686.4844"
      transform="rotate(90)"
      opacity="0.5"
      fill="#ffffff"
      stroke-width="2.2005"
    />
    <rect
      height="1.4058747"
      width="37.408485"
      y="-1601.2761"
      enable-background="new    "
      x="260.33942"
      id="rect78"
      transform="rotate(90)"
      opacity="0.15"
      stroke-width="2.2005"
    />
    <rect
      height="1.4058747"
      width="37.408485"
      enable-background="new    "
      x="260.33942"
      id="rect79"
      y="-1686.4844"
      transform="rotate(90)"
      opacity="0.5"
      fill="#ffffff"
      stroke-width="2.2005"
    />
    <line
      x1="1599.8704"
      y2="78.339661"
      y1="78.339661"
      x2="1599.8704"
      id="line79"
      fill="none"
      stroke-width="2.2005"
    />
    <rect
      height="21.149239"
      width="3.6063759"
      y="-1621.2029"
      x="294.87445"
      id="rect80"
      transform="rotate(90)"
      fill="#999999"
      stroke-width="2.2005"
    />
    <rect
      height="21.149239"
      width="3.636941"
      y="-1621.2029"
      x="55.754089"
      id="rect81"
      transform="rotate(90)"
      fill="#999999"
      stroke-width="2.2005"
    />
    <rect
      height="81.938004"
      width="243.46101"
      x="-757.47357"
      id="rect82"
      y="-364.00787"
      transform="scale(-1)"
      fill="#4d4d4d"
      stroke-width="2.2005"
    />
    <rect
      height="1.4058747"
      width="243.46101"
      enable-background="new    "
      x="-757.47357"
      id="rect83"
      y="-364.00787"
      transform="scale(-1)"
      opacity="0.2"
      fill="#ffffff"
      stroke-width="2.2005"
    />
    <rect
      height="24.41938"
      width="243.46101"
      y="-301.96613"
      x="-757.47357"
      id="rect84"
      transform="scale(-1)"
      fill="#333333"
      stroke-width="2.2005"
    />
    <rect
      height="0.97799861"
      width="243.46101"
      y="-278.37177"
      enable-background="new    "
      x="-757.47357"
      id="rect85"
      transform="scale(-1)"
      opacity="0.2"
      stroke-width="2.2005"
    />
    <path
      d="m 549.37343,364.00792 v 0 0 h 2.8424 v 0 c 2.445,-7.6712 4.126,-24.3278 4.126,-32.8548 0,-8.8937 -1.4671,-21.1798 -4.126,-29.1872 v 0 0 l -37.3779,2e-4 v 62.0418 z"
      id="path85"
      fill="#dcdcdc"
      stroke-width="2.2005"
    />
    <path
      d="m 719.42323,360.82942 v 3.1785 h 37.3474 v -62.0418 h -37.3779 c -2.6896,8.0378 -5.8986,20.1406 -5.8986,29.1567 0,10.5745 2.2921,20.5073 5.9291,29.7066 z"
      id="path86"
      fill="#dcdcdc"
      stroke-width="2.2005"
    />
    <path
      d="m 514.62453,298.72642 h 37.3774 l 0.2139,3.2397 h -37.3779 z"
      id="path87"
      fill="#999999"
      stroke-width="2.2005"
    />
    <path
      d="m 756.58723,298.66542 h -37.3779 l 0.2139,3.3007 h 37.3474 l -0.1833,-3.3007 z"
      id="path88"
      fill="#999999"
      stroke-width="2.2005"
    />
    <rect
      height="1.4058747"
      width="37.377895"
      y="-278.79974"
      enable-background="new    "
      x="-756.77057"
      id="rect88"
      transform="scale(-1)"
      opacity="0.15"
      stroke-width="2.2005"
    />
    <rect
      height="1.4058747"
      width="37.377895"
      enable-background="new    "
      x="-756.77057"
      id="rect89"
      y="-364.00787"
      transform="scale(-1)"
      opacity="0.5"
      fill="#ffffff"
      stroke-width="2.2005"
    />
    <rect
      height="1.4058747"
      width="37.408485"
      y="-278.79974"
      enable-background="new    "
      x="-552.18524"
      id="rect90"
      transform="scale(-1)"
      opacity="0.15"
      stroke-width="2.2005"
    />
    <rect
      height="1.4058747"
      width="37.408485"
      enable-background="new    "
      x="-552.18524"
      id="rect91"
      y="-364.00787"
      transform="scale(-1)"
      opacity="0.5"
      fill="#ffffff"
      stroke-width="2.2005"
    />
    <line
      x1="734.185"
      y2="277.39386"
      y1="277.39386"
      x2="734.185"
      id="line91"
      fill="none"
      stroke-width="2.2005"
    />
    <rect
      height="21.149239"
      width="3.6063759"
      y="-298.72638"
      x="-517.65021"
      id="rect92"
      transform="scale(-1)"
      fill="#999999"
      stroke-width="2.2005"
    />
    <rect
      height="21.149239"
      width="3.636941"
      y="-298.72638"
      x="-756.77057"
      id="rect93"
      transform="scale(-1)"
      fill="#999999"
      stroke-width="2.2005"
    />
    <rect
      id="rect20-5"
      connectorname="1"
      x="1320.2561"
      y="297.02948"
      width="23.645536"
      height="58.823566"
      fill="#8c8c8c"
      stroke="none"
      stroke-width="0"
      stroke-linecap="round"
    />
    <rect
      id="rect22-3"
      connectorname="2"
      x="1357.7432"
      y="297.02948"
      width="23.645536"
      height="58.823566"
      fill="#8c8c8c"
      stroke="none"
      stroke-width="0"
      stroke-linecap="round"
    />
    <rect
      id="rect24-3"
      connectorname="3"
      x="1395.2297"
      y="297.02948"
      width="23.645536"
      height="58.823566"
      fill="#8c8c8c"
      stroke="none"
      stroke-width="0"
      stroke-linecap="round"
    />
    <rect
      id="rect26"
      connectorname="4"
      x="1432.717"
      y="297.02948"
      width="23.645536"
      height="58.823566"
      fill="#8c8c8c"
      stroke="none"
      stroke-width="0"
      stroke-linecap="round"
    />
    <rect
      id="rect28-9"
      connectorname="5"
      x="1432.717"
      y="49.840759"
      width="23.645536"
      height="58.823566"
      fill="#8c8c8c"
      stroke="none"
      stroke-width="0"
      stroke-linecap="round"
    />
    <rect
      id="rect30-8"
      connectorname="6"
      x="1395.2297"
      y="49.840759"
      width="23.645536"
      height="58.823566"
      fill="#8c8c8c"
      stroke="none"
      stroke-width="0"
      stroke-linecap="round"
    />
    <rect
      id="rect32-9"
      connectorname="7"
      x="1357.7432"
      y="49.840759"
      width="23.645536"
      height="58.823566"
      fill="#8c8c8c"
      stroke="none"
      stroke-width="0"
      stroke-linecap="round"
    />
    <rect
      id="rect34-2"
      connectorname="8"
      x="1320.2561"
      y="49.840759"
      width="23.645536"
      height="58.823566"
      fill="#8c8c8c"
      stroke="none"
      stroke-width="0"
      stroke-linecap="round"
    />
    <rect
      id="rect36-3"
      connectorname="EP"
      x="1313.3357"
      y="128.32086"
      width="149.94351"
      height="149.94205"
      fill="#8c8c8c"
      stroke="none"
      stroke-width="0"
      stroke-linecap="round"
    />
    <rect
      id="rect38"
      x="1283.428"
      y="104.17426"
      width="197.24406"
      height="198.23573"
      fill="#303030"
      stroke="none"
      stroke-width="0"
    />
    <polygon
      transform="matrix(1.4648214,0,0,1.4648214,1283.4279,35.471819)"
      id="polygon40"
      points="10,56.9016 0,46.9016 134.654,46.9016 124.654,56.9016 "
      fill="#1f1f1f"
    />
    <polygon
      transform="matrix(1.4648214,0,0,1.4648214,1283.4279,35.471819)"
      id="polygon42"
      points="10,172.232 0,182.232 134.654,182.232 124.654,172.232 "
      fill="#1f1f1f"
    />
    <polygon
      transform="matrix(1.4648214,0,0,1.4648214,1283.4279,35.471819)"
      id="polygon44"
      points="10,56.9016 0,46.9016 0,182.232 10,172.232 "
      fill="#000000"
    />
    <polygon
      transform="matrix(1.4648214,0,0,1.4648214,1283.4279,35.471819)"
      id="polygon46"
      points="124.654,56.9016 134.654,46.9016 134.654,182.232 124.654,172.232 "
      fill="#3d3d3d"
    />
    <circle
      id="circle48"
      cy="258.46454"
      r="14.648214"
      cx="1327.3726"
      fill="#1f1f1f"
      stroke="none"
      stroke-width="0"
    />
    <rect
      x="155.93427"
      stroke-width="0"
      id="connector0pin"
      width="64.908615"
      y="-123.71708"
      fill="none"
      height="123.71708"
      gorn="0.0.5"
      transform="rotate(90)"
    />
    <rect
      x="361.83966"
      stroke-width="0"
      id="connector1pin"
      width="64.908615"
      y="-123.71708"
      fill="none"
      height="123.71708"
      gorn="0.0.8"
      transform="rotate(90)"
    />
    <rect
      x="707.82062"
      stroke-width="0"
      id="connector2pin"
      width="64.908615"
      y="-123.72245"
      fill="none"
      height="123.71708"
      gorn="0.0.5"
      transform="rotate(90)"
    />
    <rect
      x="913.72614"
      stroke-width="0"
      id="connector3pin"
      width="64.908615"
      y="-123.72245"
      fill="none"
      height="123.71708"
      gorn="0.0.8"
      transform="rotate(90)"
    />
    <rect
      x="-737.32843"
      stroke-width="0"
      id="connector4pin"
      width="64.909904"
      y="1879.0496"
      fill="none"
      height="123.71953"
      gorn="0.0.5"
      transform="rotate(-90)"
    />
    <rect
      x="-531.41876"
      stroke-width="0"
      id="connector5pin"
      width="64.909904"
      y="1879.0496"
      fill="none"
      height="123.71953"
      gorn="0.0.8"
      transform="rotate(-90)"
    />
  </g>
</svg>
