<?xml version="1.0" encoding="UTF-8"?>
<!DOCTYPE svg PUBLIC "-//W3C//DTD SVG 1.1//EN" "http://www.w3.org/Graphics/SVG/1.1/DTD/svg11.dtd">
<!-- Creator: CorelDRAW X6 -->
<svg xmlns="http://www.w3.org/2000/svg" xml:space="preserve" width="1.01321in" height="0.809701in" version="1.1" shape-rendering="geometricPrecision" text-rendering="geometricPrecision" image-rendering="optimizeQuality" fill-rule="evenodd" clip-rule="evenodd"
viewBox="0 0 6769375 5409693"
 xmlns:xlink="http://www.w3.org/1999/xlink">
 <g id="schematic">
  <metadata id="CorelCorpID_0Corel-Layer"/>
  <rect fill="#FEFEFE" stroke="#373435" stroke-width="64811.9" x="1392089" y="32397" width="5344881" height="5344881"/>
  <line id="connector0pin" fill="none" stroke="black" stroke-width="64943.5" stroke-linecap="round" stroke-linejoin="round" x1="55869" y1="1034571" x2="1392089" y2= "1034571"  gorn="0.0.0"/>
  <rect id="connector0terminal" fill="none" y="1025654" width="50661" height="19307" gorn="0.0.1"/>
  <g transform="matrix(1 0 0 1 603246 -2.10936E+006)">
   <text x="-38798" y="3049291"  fill="#4B4B4D" font-weight="normal" font-size="324770" font-family="Droid Sans">1</text>
  </g>
  <line id="connector1pin" fill="none" stroke="black" stroke-width="64943.5" stroke-linecap="round" stroke-linejoin="round" x1="55869" y1="1702681" x2="1392089" y2= "1702681"  text-anchor="middle" gorn="0.0.5"/>
  <rect id="connector1terminal" fill="none" y="1693764" width="50661" height="19307" gorn="0.0.6"/>
  <g transform="matrix(1 0 0 1 603246 -1.44125E+006)">
   <text x="-38798" y="3049291"  fill="#4B4B4D" font-weight="normal" font-size="324770" font-family="Droid Sans">2</text>
  </g>
  <text x="2242772" y="1472920"  fill="#373435" font-weight="bold" font-size="324770" font-family="Droid Sans">POWER OUT</text>
  <polygon fill="#373435" fill-rule="nonzero" points="1756183,1029758 1650942,1029758 1650942,989013 1756183,989013 1756183,883247 1797006,883247 1797006,989013 1902141,989013 1902141,1029758 1797006,1029758 1797006,1134419 1756183,1134419 "/>
  <polygon fill="#373435" fill-rule="nonzero" points="1660885,1715991 1660885,1670354 1892198,1670354 1892198,1715991 "/>
  <text x="2538871" y="3204614"  fill="#373435" font-weight="500" font-size="389740" font-family="OCRA">SOLAR PANEL</text>
 </g>
</svg>
